G75*
G70*
%OFA0B0*%
%FSLAX24Y24*%
%IPPOS*%
%LPD*%
%AMOC8*
5,1,8,0,0,1.08239X$1,22.5*
%
%ADD10R,0.0220X0.0470*%
%ADD11R,0.0470X0.0220*%
%ADD12R,0.0850X0.1102*%
%ADD13R,0.1000X0.0500*%
%ADD14R,0.0315X0.0315*%
%ADD15R,0.0669X0.0945*%
%ADD16R,0.0433X0.0394*%
%ADD17R,0.0394X0.0433*%
%ADD18R,0.0130X0.0472*%
%ADD19R,0.0220X0.0500*%
%ADD20R,0.0500X0.0220*%
%ADD21R,0.1102X0.0850*%
%ADD22R,0.0450X0.0100*%
%ADD23R,0.0100X0.0450*%
%ADD24R,0.0630X0.0984*%
%ADD25R,0.1024X0.1024*%
%ADD26R,0.0118X0.0315*%
%ADD27R,0.0315X0.0118*%
%ADD28R,0.0394X0.0394*%
%ADD29R,0.1575X0.0787*%
%ADD30R,0.0701X0.0598*%
%ADD31R,0.1575X0.1339*%
%ADD32R,0.0551X0.0472*%
%ADD33R,0.0906X0.2205*%
%ADD34R,0.0551X0.1339*%
%ADD35R,0.0591X0.0669*%
%ADD36R,0.2559X0.0984*%
%ADD37R,0.0787X0.1575*%
%ADD38R,0.0394X0.1339*%
%ADD39R,0.4213X0.3386*%
%ADD40R,0.2165X0.1516*%
%ADD41R,0.0472X0.0276*%
%ADD42R,0.1120X0.0600*%
%ADD43R,0.0600X0.1120*%
D10*
X021238Y005751D03*
X021553Y005751D03*
X021868Y005751D03*
X022183Y005751D03*
X022498Y005751D03*
X022813Y005751D03*
X023128Y005751D03*
X023443Y005751D03*
X023758Y005751D03*
X024073Y005751D03*
X024388Y005751D03*
X024703Y005751D03*
X025018Y005751D03*
X025333Y005751D03*
X025648Y005751D03*
X025963Y005751D03*
X025963Y011893D03*
X025648Y011893D03*
X025333Y011893D03*
X025018Y011893D03*
X024703Y011893D03*
X024388Y011893D03*
X024073Y011893D03*
X023758Y011893D03*
X023443Y011893D03*
X023128Y011893D03*
X022813Y011893D03*
X022498Y011893D03*
X022183Y011893D03*
X021868Y011893D03*
X021553Y011893D03*
X021238Y011893D03*
D11*
X020529Y011184D03*
X020529Y010869D03*
X020529Y010554D03*
X020529Y010239D03*
X020529Y009924D03*
X020529Y009609D03*
X020529Y009294D03*
X020529Y008979D03*
X020529Y008664D03*
X020529Y008349D03*
X020529Y008034D03*
X020529Y007719D03*
X020529Y007404D03*
X020529Y007089D03*
X020529Y006774D03*
X020529Y006459D03*
X026671Y006459D03*
X026671Y006774D03*
X026671Y007089D03*
X026671Y007404D03*
X026671Y007719D03*
X026671Y008034D03*
X026671Y008349D03*
X026671Y008664D03*
X026671Y008979D03*
X026671Y009294D03*
X026671Y009609D03*
X026671Y009924D03*
X026671Y010239D03*
X026671Y010554D03*
X026671Y010869D03*
X026671Y011184D03*
D12*
X017693Y010987D03*
X017693Y012877D03*
D13*
X017040Y007231D03*
X017040Y008231D03*
X017040Y009231D03*
X019290Y009231D03*
X019290Y008231D03*
X019290Y007231D03*
X028271Y013822D03*
X028271Y014822D03*
X028271Y015822D03*
X030521Y015822D03*
X030521Y014822D03*
X030521Y013822D03*
D14*
X030463Y021259D03*
X030463Y021849D03*
X047687Y011570D03*
X048277Y011570D03*
X020065Y006066D03*
X019474Y006066D03*
D15*
X022557Y004294D03*
X024014Y004294D03*
X036140Y013900D03*
X037596Y013900D03*
D16*
X038262Y013609D03*
X038262Y012900D03*
X037435Y012381D03*
X037435Y011672D03*
X036218Y011672D03*
X036218Y012381D03*
X035486Y012900D03*
X035486Y013609D03*
X034482Y016133D03*
X034482Y016841D03*
X038506Y019798D03*
X038506Y020507D03*
X040581Y016802D03*
X040581Y016093D03*
X044604Y019759D03*
X044604Y020467D03*
X032774Y021672D03*
X032104Y021672D03*
X032104Y022381D03*
X032774Y022381D03*
X031132Y022500D03*
X030974Y021948D03*
X030974Y021239D03*
X029557Y021278D03*
X029006Y021278D03*
X029006Y021987D03*
X029557Y021987D03*
X031132Y023209D03*
X016980Y023671D03*
X016440Y023660D03*
X016440Y022951D03*
X016980Y024380D03*
X016940Y021120D03*
X016940Y020411D03*
X028081Y012830D03*
X028081Y012121D03*
X030305Y012133D03*
X030915Y012129D03*
X030915Y012837D03*
X030305Y012841D03*
X037498Y006956D03*
X037498Y006247D03*
X038112Y006475D03*
X038112Y005767D03*
X038120Y005184D03*
X038120Y004475D03*
X036541Y004396D03*
X036541Y005105D03*
X036545Y005688D03*
X036545Y006396D03*
X035203Y006475D03*
X035203Y005767D03*
X035203Y005184D03*
X035203Y004475D03*
X041266Y007113D03*
X042053Y007129D03*
X042053Y007837D03*
X041266Y007822D03*
X041581Y011333D03*
X041581Y012042D03*
X024781Y004570D03*
X024781Y003861D03*
X021789Y003861D03*
X021789Y004570D03*
X019270Y010830D03*
X019270Y011538D03*
X020648Y011853D03*
X020648Y012562D03*
D17*
X021356Y012562D03*
X022065Y012562D03*
X025096Y012476D03*
X025805Y012476D03*
X029085Y012141D03*
X029793Y012141D03*
X033537Y009133D03*
X033537Y008562D03*
X034246Y008562D03*
X034246Y009133D03*
X033939Y007412D03*
X034648Y007412D03*
X036183Y006936D03*
X036892Y006936D03*
X038801Y008117D03*
X039510Y008117D03*
X040277Y008711D03*
X040285Y009341D03*
X040994Y009341D03*
X040986Y008711D03*
X039522Y009204D03*
X039529Y009810D03*
X039529Y010420D03*
X040262Y010719D03*
X040274Y011314D03*
X040982Y011314D03*
X040970Y010719D03*
X040978Y010089D03*
X040270Y010089D03*
X038821Y009810D03*
X038821Y010420D03*
X038813Y009204D03*
X037218Y012971D03*
X036510Y012971D03*
X029793Y016751D03*
X029085Y016751D03*
X043837Y010448D03*
X044545Y010448D03*
X044526Y008416D03*
X043817Y008416D03*
X048415Y012357D03*
X049124Y012357D03*
X030340Y005857D03*
X029632Y005857D03*
X028663Y005877D03*
X027955Y005877D03*
X020687Y005160D03*
X019978Y005160D03*
X018943Y006066D03*
X018234Y006066D03*
D18*
X027933Y006487D03*
X028150Y006487D03*
X028366Y006487D03*
X028583Y006487D03*
X028799Y006487D03*
X029016Y006487D03*
X029232Y006487D03*
X029449Y006487D03*
X029665Y006487D03*
X029882Y006487D03*
X030098Y006487D03*
X030315Y006487D03*
X030531Y006487D03*
X030748Y006487D03*
X030748Y011566D03*
X030531Y011566D03*
X030315Y011566D03*
X030098Y011566D03*
X029882Y011566D03*
X029665Y011566D03*
X029449Y011566D03*
X029232Y011566D03*
X029016Y011566D03*
X028799Y011566D03*
X028583Y011566D03*
X028366Y011566D03*
X028150Y011566D03*
X027933Y011566D03*
D19*
X028337Y017305D03*
X028651Y017305D03*
X028966Y017305D03*
X029281Y017305D03*
X029596Y017305D03*
X029911Y017305D03*
X030226Y017305D03*
X030541Y017305D03*
X030541Y020685D03*
X030226Y020685D03*
X029911Y020685D03*
X029596Y020685D03*
X029281Y020685D03*
X028966Y020685D03*
X028651Y020685D03*
X028337Y020685D03*
D20*
X027749Y020097D03*
X027749Y019782D03*
X027749Y019467D03*
X027749Y019152D03*
X027749Y018837D03*
X027749Y018522D03*
X027749Y018207D03*
X027749Y017893D03*
X031129Y017893D03*
X031129Y018207D03*
X031129Y018522D03*
X031129Y018837D03*
X031129Y019152D03*
X031129Y019467D03*
X031129Y019782D03*
X031129Y020097D03*
D21*
X030187Y023525D03*
X028297Y023525D03*
D22*
X034872Y010542D03*
X034872Y010345D03*
X034872Y010148D03*
X034872Y009952D03*
X034872Y009755D03*
X034872Y009558D03*
X034872Y009361D03*
X034872Y009164D03*
X034872Y008967D03*
X034872Y008770D03*
X034872Y008574D03*
X034872Y008377D03*
X038218Y008377D03*
X038218Y008574D03*
X038218Y008770D03*
X038218Y008967D03*
X038218Y009164D03*
X038218Y009361D03*
X038218Y009558D03*
X038218Y009755D03*
X038218Y009952D03*
X038218Y010148D03*
X038218Y010345D03*
X038218Y010542D03*
D23*
X037628Y011133D03*
X037431Y011133D03*
X037234Y011133D03*
X037037Y011133D03*
X036840Y011133D03*
X036644Y011133D03*
X036447Y011133D03*
X036250Y011133D03*
X036053Y011133D03*
X035856Y011133D03*
X035659Y011133D03*
X035463Y011133D03*
X035463Y007786D03*
X035659Y007786D03*
X035856Y007786D03*
X036053Y007786D03*
X036250Y007786D03*
X036447Y007786D03*
X036644Y007786D03*
X036840Y007786D03*
X037037Y007786D03*
X037234Y007786D03*
X037431Y007786D03*
X037628Y007786D03*
D24*
X033907Y005912D03*
X033907Y004534D03*
X034230Y012361D03*
X034230Y013739D03*
D25*
X042262Y009404D03*
D26*
X042360Y008637D03*
X042163Y008637D03*
X041966Y008637D03*
X041770Y008637D03*
X042557Y008637D03*
X042754Y008637D03*
X042754Y010172D03*
X042557Y010172D03*
X042360Y010172D03*
X042163Y010172D03*
X041966Y010172D03*
X041770Y010172D03*
D27*
X041494Y009896D03*
X041494Y009700D03*
X041494Y009503D03*
X041494Y009306D03*
X041494Y009109D03*
X041494Y008912D03*
X043029Y008912D03*
X043029Y009109D03*
X043029Y009306D03*
X043029Y009503D03*
X043029Y009700D03*
X043029Y009896D03*
D28*
X043746Y009798D03*
X044612Y009798D03*
X044620Y009050D03*
X043754Y009050D03*
X043512Y007837D03*
X042646Y007837D03*
X042372Y011072D03*
X042969Y011105D03*
X043835Y011105D03*
X044545Y011115D03*
X044545Y011981D03*
X044573Y012589D03*
X043707Y012589D03*
X042372Y011938D03*
D29*
X043667Y013959D03*
X040872Y013959D03*
X049163Y010893D03*
X051959Y010893D03*
D30*
X043884Y016148D03*
X042884Y016148D03*
X041884Y016148D03*
X037746Y016188D03*
X036746Y016188D03*
X035746Y016188D03*
X035746Y019731D03*
X036746Y019731D03*
X037746Y019731D03*
X041884Y019692D03*
X042884Y019692D03*
X043884Y019692D03*
D31*
X044014Y022160D03*
X040077Y022160D03*
X037955Y022160D03*
X034018Y022160D03*
D32*
X039214Y020861D03*
X039214Y019522D03*
X045313Y019444D03*
X045313Y020782D03*
D33*
X044368Y025310D03*
X041061Y025310D03*
X037640Y025310D03*
X034333Y025310D03*
X053344Y025286D03*
X056651Y025286D03*
X043128Y004822D03*
X039821Y004822D03*
D34*
X040982Y006062D03*
X041966Y006062D03*
X042222Y024070D03*
X043207Y024070D03*
X036478Y024070D03*
X035494Y024070D03*
X054506Y024046D03*
X055490Y024046D03*
D35*
X055947Y021318D03*
X053939Y021318D03*
X053939Y017774D03*
X055947Y017774D03*
D36*
X051294Y016058D03*
X046373Y016058D03*
X046373Y022983D03*
X051294Y022983D03*
D37*
X055459Y015113D03*
X055459Y012318D03*
D38*
X055470Y010062D03*
X054801Y010062D03*
X054132Y010062D03*
X053463Y010062D03*
X056140Y010062D03*
D39*
X054801Y005889D03*
D40*
X049474Y004347D03*
X049474Y008265D03*
D41*
X053947Y011176D03*
X055403Y011176D03*
D42*
X026330Y015586D03*
X026330Y016376D03*
X026330Y017166D03*
X026330Y017956D03*
X026330Y018746D03*
X026330Y019536D03*
X026330Y020326D03*
X026330Y021116D03*
X026330Y021906D03*
X026330Y022696D03*
X026330Y023486D03*
X026330Y024276D03*
X026330Y025066D03*
X026330Y025856D03*
X026330Y026646D03*
X026330Y027436D03*
X017870Y025066D03*
X017870Y024276D03*
X017870Y023486D03*
X017870Y022696D03*
X017870Y021906D03*
X017870Y021116D03*
X017870Y020326D03*
X017870Y019536D03*
X017870Y018746D03*
X017870Y017956D03*
X017870Y017166D03*
X017870Y016376D03*
X017870Y015586D03*
D43*
X019335Y014896D03*
X020125Y014896D03*
X020915Y014896D03*
X021705Y014896D03*
X022495Y014896D03*
X023285Y014896D03*
X024075Y014896D03*
X024865Y014896D03*
M02*
