G75*
G70*
%OFA0B0*%
%FSLAX24Y24*%
%IPPOS*%
%LPD*%
%AMOC8*
5,1,8,0,0,1.08239X$1,22.5*
%
%ADD10C,0.0600*%
%ADD11C,0.0396*%
%ADD12C,0.0160*%
D10*
X027684Y021871D03*
D11*
X028494Y021475D03*
X027751Y020515D03*
X027240Y020526D03*
X028391Y019943D03*
X028391Y019470D03*
X028371Y018978D03*
X028364Y018486D03*
X028651Y017893D03*
X029596Y017893D03*
X030502Y018877D03*
X031829Y018995D03*
X032340Y018522D03*
X031671Y018207D03*
X031211Y017459D03*
X031211Y016987D03*
X031199Y016515D03*
X029085Y015688D03*
X027655Y016515D03*
X027667Y016987D03*
X027667Y017459D03*
X027200Y019286D03*
X029281Y020097D03*
X029911Y020097D03*
X030974Y020727D03*
X031486Y021908D03*
X032262Y021042D03*
X033049Y021042D03*
X033049Y019902D03*
X032695Y019467D03*
X035411Y021042D03*
X034624Y023798D03*
X031132Y023721D03*
X029281Y022499D03*
X027340Y024606D03*
X034529Y017436D03*
X036734Y017200D03*
X037758Y017200D03*
X040628Y017396D03*
X042833Y017160D03*
X043856Y017160D03*
X040136Y021042D03*
X041317Y023798D03*
X052865Y022988D03*
X053207Y023680D03*
X054821Y021751D03*
X055974Y016885D03*
X056368Y015704D03*
X052865Y016057D03*
X052431Y011767D03*
X054793Y009011D03*
X054806Y007015D03*
X055581Y006255D03*
X055581Y005467D03*
X054846Y004695D03*
X054006Y005467D03*
X054006Y006255D03*
X053218Y007042D03*
X053218Y004680D03*
X056368Y004680D03*
X056368Y007042D03*
X048022Y010900D03*
X047510Y010900D03*
X046959Y010900D03*
X047234Y011570D03*
X045254Y009822D03*
X043825Y011763D03*
X043116Y011959D03*
X041041Y011830D03*
X040360Y013180D03*
X037970Y012365D03*
X037970Y011814D03*
X038207Y011105D03*
X037026Y010475D03*
X036081Y010475D03*
X035529Y009294D03*
X035529Y008428D03*
X036159Y008349D03*
X036868Y008900D03*
X037577Y009058D03*
X038837Y008664D03*
X039545Y008664D03*
X040557Y007904D03*
X040636Y007117D03*
X040254Y006396D03*
X038049Y007011D03*
X038364Y007719D03*
X037498Y005751D03*
X037340Y003861D03*
X038128Y003860D03*
X036553Y003861D03*
X035923Y003861D03*
X035174Y003860D03*
X033325Y003940D03*
X030844Y005869D03*
X029151Y005869D03*
X029230Y007089D03*
X027340Y005885D03*
X025333Y003861D03*
X022813Y006459D03*
X022183Y006459D03*
X021520Y007406D03*
X021120Y007806D03*
X020648Y005869D03*
X019427Y005160D03*
X018604Y005566D03*
X017813Y007247D03*
X018360Y008246D03*
X017813Y009215D03*
X019270Y010003D03*
X021868Y011223D03*
X020096Y011853D03*
X019360Y013966D03*
X018600Y014446D03*
X016960Y015606D03*
X016960Y016406D03*
X016960Y017166D03*
X016960Y019906D03*
X016440Y022426D03*
X016440Y024126D03*
X016440Y024646D03*
X025840Y014526D03*
X025840Y013806D03*
X026480Y013406D03*
X025805Y012988D03*
X025105Y013000D03*
X026793Y012108D03*
X027065Y011633D03*
X027577Y011554D03*
X027537Y012144D03*
X028010Y011003D03*
X028837Y010963D03*
X028167Y010255D03*
X027616Y010019D03*
X028837Y009507D03*
X030726Y009152D03*
X031789Y009664D03*
X031553Y010255D03*
X031238Y010727D03*
X031081Y011593D03*
X032498Y011082D03*
X033010Y011341D03*
X033010Y010790D03*
X033010Y010239D03*
X033010Y009688D03*
X033010Y009137D03*
X033010Y008585D03*
X033325Y007404D03*
X034585Y006853D03*
X033246Y006302D03*
X026041Y010885D03*
X025690Y010492D03*
X024703Y011223D03*
X021720Y013966D03*
X020920Y013966D03*
X028915Y012641D03*
X029742Y012837D03*
X029557Y013719D03*
X029085Y013719D03*
X033010Y012444D03*
X033010Y011893D03*
X034978Y011971D03*
X035529Y012286D03*
X042053Y009637D03*
X042486Y009164D03*
X043195Y008456D03*
X043510Y007196D03*
X021199Y003861D03*
D12*
X016250Y003656D02*
X016250Y022138D01*
X016373Y022087D01*
X016507Y022087D01*
X016632Y022139D01*
X016727Y022234D01*
X016778Y022358D01*
X016778Y022493D01*
X016727Y022617D01*
X016632Y022712D01*
X016507Y022764D01*
X016373Y022764D01*
X016250Y022713D01*
X016250Y024358D01*
X016373Y024307D01*
X016507Y024307D01*
X016632Y024359D01*
X016727Y024454D01*
X016778Y024578D01*
X016778Y024713D01*
X016735Y024818D01*
X027059Y024803D01*
X027053Y024797D01*
X027002Y024673D01*
X027002Y024538D01*
X027053Y024414D01*
X027148Y024319D01*
X027273Y024267D01*
X027407Y024267D01*
X027532Y024319D01*
X027627Y024414D01*
X027678Y024538D01*
X027678Y024673D01*
X027627Y024797D01*
X027621Y024802D01*
X044203Y024779D01*
X044203Y028496D01*
X057130Y028496D01*
X057129Y003656D01*
X038402Y003656D01*
X038415Y003668D01*
X038466Y003793D01*
X038466Y003927D01*
X038415Y004051D01*
X038319Y004146D01*
X038195Y004198D01*
X038061Y004198D01*
X037936Y004146D01*
X037841Y004051D01*
X037790Y003927D01*
X037790Y003793D01*
X037841Y003668D01*
X037854Y003656D01*
X037613Y003656D01*
X037627Y003670D01*
X037679Y003794D01*
X037679Y003928D01*
X037627Y004053D01*
X037532Y004148D01*
X037408Y004199D01*
X037273Y004199D01*
X037149Y004148D01*
X037054Y004053D01*
X037002Y003928D01*
X037002Y003794D01*
X037054Y003670D01*
X037068Y003656D01*
X036826Y003656D01*
X036840Y003670D01*
X036891Y003794D01*
X036891Y003928D01*
X036840Y004053D01*
X036745Y004148D01*
X036620Y004199D01*
X036486Y004199D01*
X036362Y004148D01*
X036266Y004053D01*
X036238Y003984D01*
X036210Y004053D01*
X036115Y004148D01*
X035990Y004199D01*
X035856Y004199D01*
X035732Y004148D01*
X035637Y004053D01*
X035585Y003928D01*
X035585Y003794D01*
X035637Y003670D01*
X035650Y003656D01*
X035448Y003656D01*
X035461Y003668D01*
X035513Y003793D01*
X035513Y003927D01*
X035461Y004051D01*
X035366Y004146D01*
X035242Y004198D01*
X035107Y004198D01*
X034983Y004146D01*
X034888Y004051D01*
X034836Y003927D01*
X034836Y003793D01*
X034888Y003668D01*
X034901Y003656D01*
X033519Y003656D01*
X033611Y003748D01*
X033663Y003873D01*
X033663Y004007D01*
X033611Y004131D01*
X033516Y004226D01*
X033392Y004278D01*
X033257Y004278D01*
X033133Y004226D01*
X033038Y004131D01*
X032987Y004007D01*
X032987Y003873D01*
X033038Y003748D01*
X033131Y003656D01*
X025605Y003656D01*
X025619Y003670D01*
X025671Y003794D01*
X025671Y003928D01*
X025619Y004053D01*
X025524Y004148D01*
X025400Y004199D01*
X025265Y004199D01*
X025141Y004148D01*
X025046Y004053D01*
X024994Y003928D01*
X024994Y003794D01*
X025046Y003670D01*
X025060Y003656D01*
X021471Y003656D01*
X021485Y003670D01*
X021537Y003794D01*
X021537Y003928D01*
X021485Y004053D01*
X021390Y004148D01*
X021266Y004199D01*
X021131Y004199D01*
X021007Y004148D01*
X020912Y004053D01*
X020861Y003928D01*
X020861Y003794D01*
X020912Y003670D01*
X020926Y003656D01*
X016250Y003656D01*
X016250Y003801D02*
X017167Y003801D01*
X017176Y003797D02*
X017568Y003797D01*
X017930Y003947D01*
X018207Y004224D01*
X018357Y004586D01*
X018357Y004978D01*
X018207Y005340D01*
X017930Y005617D01*
X017568Y005767D01*
X017176Y005767D01*
X016814Y005617D01*
X016537Y005340D01*
X016387Y004978D01*
X016387Y004586D01*
X016537Y004224D01*
X016814Y003947D01*
X017176Y003797D01*
X017577Y003801D02*
X020861Y003801D01*
X020874Y003960D02*
X017942Y003960D01*
X018101Y004118D02*
X020978Y004118D01*
X021420Y004118D02*
X025112Y004118D01*
X025007Y003960D02*
X021524Y003960D01*
X021537Y003801D02*
X024994Y003801D01*
X025554Y004118D02*
X033033Y004118D01*
X032987Y003960D02*
X025658Y003960D01*
X025671Y003801D02*
X033016Y003801D01*
X033254Y004277D02*
X018229Y004277D01*
X018294Y004435D02*
X044450Y004435D01*
X044387Y004586D02*
X044537Y004224D01*
X044814Y003947D01*
X045176Y003797D01*
X045568Y003797D01*
X045930Y003947D01*
X046207Y004224D01*
X046357Y004586D01*
X046357Y004978D01*
X046207Y005340D01*
X045930Y005617D01*
X045568Y005767D01*
X045176Y005767D01*
X044814Y005617D01*
X044537Y005340D01*
X044387Y004978D01*
X044387Y004586D01*
X044387Y004594D02*
X018357Y004594D01*
X018357Y004752D02*
X044387Y004752D01*
X044387Y004911D02*
X019656Y004911D01*
X019619Y004874D02*
X019714Y004969D01*
X019765Y005093D01*
X019765Y005228D01*
X044490Y005228D01*
X044425Y005069D02*
X019755Y005069D01*
X019765Y005228D02*
X019714Y005352D01*
X019619Y005447D01*
X019494Y005498D01*
X019360Y005498D01*
X019236Y005447D01*
X019140Y005352D01*
X019089Y005228D01*
X018254Y005228D01*
X018318Y005374D02*
X018413Y005279D01*
X018537Y005228D01*
X018672Y005228D01*
X018796Y005279D01*
X018891Y005374D01*
X018942Y005499D01*
X018942Y005633D01*
X018891Y005757D01*
X018796Y005852D01*
X018672Y005904D01*
X018537Y005904D01*
X018413Y005852D01*
X018318Y005757D01*
X018266Y005633D01*
X018266Y005499D01*
X018318Y005374D01*
X018313Y005386D02*
X018161Y005386D01*
X018266Y005545D02*
X018003Y005545D01*
X017723Y005703D02*
X018295Y005703D01*
X018435Y005862D02*
X016250Y005862D01*
X016250Y006020D02*
X027031Y006020D01*
X027054Y006076D02*
X027002Y005952D01*
X027002Y005817D01*
X027054Y005693D01*
X027149Y005598D01*
X027273Y005547D01*
X027408Y005547D01*
X027532Y005598D01*
X027627Y005693D01*
X027679Y005817D01*
X027679Y005952D01*
X027627Y006076D01*
X027532Y006171D01*
X027408Y006223D01*
X027273Y006223D01*
X027149Y006171D01*
X027054Y006076D01*
X027167Y006179D02*
X023010Y006179D01*
X023004Y006173D02*
X023100Y006268D01*
X023151Y006392D01*
X023151Y006527D01*
X023100Y006651D01*
X023004Y006746D01*
X022880Y006798D01*
X022746Y006798D01*
X022621Y006746D01*
X022526Y006651D01*
X022498Y006583D01*
X022470Y006651D01*
X022375Y006746D01*
X022250Y006798D01*
X022116Y006798D01*
X021991Y006746D01*
X021896Y006651D01*
X021845Y006527D01*
X021845Y006392D01*
X021896Y006268D01*
X021991Y006173D01*
X022116Y006121D01*
X022250Y006121D01*
X022375Y006173D01*
X022470Y006268D01*
X022498Y006336D01*
X022526Y006268D01*
X022621Y006173D01*
X022746Y006121D01*
X022880Y006121D01*
X023004Y006173D01*
X023128Y006337D02*
X039916Y006337D01*
X039916Y006329D02*
X039967Y006205D01*
X040062Y006110D01*
X040187Y006058D01*
X040321Y006058D01*
X040445Y006110D01*
X040540Y006205D01*
X040592Y006329D01*
X040592Y006464D01*
X040540Y006588D01*
X040445Y006683D01*
X040321Y006735D01*
X040187Y006735D01*
X040062Y006683D01*
X039967Y006588D01*
X039916Y006464D01*
X039916Y006329D01*
X039929Y006496D02*
X023151Y006496D01*
X023096Y006654D02*
X040033Y006654D01*
X040349Y006925D02*
X040444Y006830D01*
X040568Y006779D01*
X040703Y006779D01*
X040827Y006830D01*
X040922Y006925D01*
X040974Y007050D01*
X040974Y007184D01*
X040922Y007308D01*
X040827Y007404D01*
X040703Y007455D01*
X040568Y007455D01*
X040444Y007404D01*
X040349Y007308D01*
X040298Y007184D01*
X040298Y007050D01*
X040349Y006925D01*
X040330Y006971D02*
X029547Y006971D01*
X029568Y007022D02*
X029517Y006898D01*
X029422Y006803D01*
X029297Y006751D01*
X029163Y006751D01*
X029039Y006803D01*
X028944Y006898D01*
X028892Y007022D01*
X028892Y007157D01*
X028944Y007281D01*
X029039Y007376D01*
X029163Y007427D01*
X029297Y007427D01*
X029422Y007376D01*
X029517Y007281D01*
X029568Y007157D01*
X029568Y007022D01*
X029568Y007130D02*
X033121Y007130D01*
X033133Y007118D02*
X033257Y007066D01*
X033392Y007066D01*
X033516Y007118D01*
X033611Y007213D01*
X033663Y007337D01*
X033663Y007472D01*
X033611Y007596D01*
X033516Y007691D01*
X033392Y007742D01*
X033257Y007742D01*
X033133Y007691D01*
X033038Y007596D01*
X032987Y007472D01*
X032987Y007337D01*
X033038Y007213D01*
X033133Y007118D01*
X033007Y007288D02*
X029510Y007288D01*
X029432Y006813D02*
X040487Y006813D01*
X040474Y006654D02*
X057129Y006654D01*
X057129Y006496D02*
X055818Y006496D01*
X055772Y006541D02*
X055867Y006446D01*
X055919Y006322D01*
X055919Y006187D01*
X055867Y006063D01*
X055772Y005968D01*
X055648Y005917D01*
X055513Y005917D01*
X055389Y005968D01*
X055294Y006063D01*
X055243Y006187D01*
X055243Y006322D01*
X055294Y006446D01*
X055389Y006541D01*
X055513Y006593D01*
X055648Y006593D01*
X055772Y006541D01*
X055912Y006337D02*
X057129Y006337D01*
X057129Y006179D02*
X055915Y006179D01*
X055824Y006020D02*
X057129Y006020D01*
X057129Y005862D02*
X037818Y005862D01*
X037836Y005818D02*
X037785Y005942D01*
X037689Y006037D01*
X037565Y006089D01*
X037431Y006089D01*
X037306Y006037D01*
X037211Y005942D01*
X037160Y005818D01*
X037160Y005684D01*
X037211Y005559D01*
X037306Y005464D01*
X037431Y005413D01*
X037565Y005413D01*
X037689Y005464D01*
X037785Y005559D01*
X037836Y005684D01*
X037836Y005818D01*
X037836Y005703D02*
X045021Y005703D01*
X044741Y005545D02*
X037770Y005545D01*
X037707Y006020D02*
X053762Y006020D01*
X053719Y006063D02*
X053814Y005968D01*
X053939Y005917D01*
X054073Y005917D01*
X054197Y005968D01*
X054292Y006063D01*
X054344Y006187D01*
X054344Y006322D01*
X054292Y006446D01*
X054197Y006541D01*
X054073Y006593D01*
X053939Y006593D01*
X053814Y006541D01*
X053719Y006446D01*
X053668Y006322D01*
X053668Y006187D01*
X053719Y006063D01*
X053671Y006179D02*
X040514Y006179D01*
X040592Y006337D02*
X053674Y006337D01*
X053769Y006496D02*
X040579Y006496D01*
X040785Y006813D02*
X052970Y006813D01*
X052932Y006851D02*
X053027Y006755D01*
X053151Y006704D01*
X053286Y006704D01*
X053410Y006755D01*
X053505Y006851D01*
X053557Y006975D01*
X053557Y007109D01*
X053505Y007234D01*
X053410Y007329D01*
X053286Y007380D01*
X053151Y007380D01*
X053027Y007329D01*
X052932Y007234D01*
X052880Y007109D01*
X052880Y006975D01*
X052932Y006851D01*
X052882Y006971D02*
X043763Y006971D01*
X043796Y007004D02*
X043848Y007128D01*
X043848Y007263D01*
X043796Y007387D01*
X043701Y007482D01*
X043577Y007534D01*
X043443Y007534D01*
X043318Y007482D01*
X043223Y007387D01*
X043172Y007263D01*
X043172Y007128D01*
X043223Y007004D01*
X043318Y006909D01*
X043443Y006858D01*
X043577Y006858D01*
X043701Y006909D01*
X043796Y007004D01*
X043848Y007130D02*
X052889Y007130D01*
X052986Y007288D02*
X043837Y007288D01*
X043737Y007447D02*
X057129Y007447D01*
X057129Y007605D02*
X040718Y007605D01*
X040749Y007618D02*
X040844Y007713D01*
X040895Y007837D01*
X040895Y007972D01*
X040844Y008096D01*
X040749Y008191D01*
X040624Y008242D01*
X040490Y008242D01*
X040365Y008191D01*
X040270Y008096D01*
X040219Y007972D01*
X040219Y007837D01*
X040270Y007713D01*
X040365Y007618D01*
X040490Y007566D01*
X040624Y007566D01*
X040749Y007618D01*
X040723Y007447D02*
X043283Y007447D01*
X043182Y007288D02*
X040931Y007288D01*
X040974Y007130D02*
X043172Y007130D01*
X043256Y006971D02*
X040941Y006971D01*
X040548Y007447D02*
X038570Y007447D01*
X038556Y007433D02*
X038651Y007528D01*
X038702Y007652D01*
X038702Y007787D01*
X038651Y007911D01*
X038556Y008006D01*
X038431Y008057D01*
X038297Y008057D01*
X038173Y008006D01*
X038077Y007911D01*
X038026Y007787D01*
X038026Y007652D01*
X038077Y007528D01*
X038173Y007433D01*
X038297Y007381D01*
X038431Y007381D01*
X038556Y007433D01*
X038683Y007605D02*
X040396Y007605D01*
X040249Y007764D02*
X038702Y007764D01*
X038639Y007922D02*
X040219Y007922D01*
X040264Y008081D02*
X036369Y008081D01*
X036351Y008063D02*
X036446Y008158D01*
X036497Y008282D01*
X036497Y008416D01*
X036446Y008541D01*
X036351Y008636D01*
X036227Y008687D01*
X036092Y008687D01*
X035968Y008636D01*
X035873Y008541D01*
X035861Y008512D01*
X035816Y008619D01*
X035721Y008715D01*
X036579Y008715D01*
X036581Y008709D02*
X036677Y008614D01*
X036801Y008562D01*
X036935Y008562D01*
X037060Y008614D01*
X037155Y008709D01*
X037206Y008833D01*
X037206Y008968D01*
X037155Y009092D01*
X037060Y009187D01*
X036935Y009239D01*
X036801Y009239D01*
X036677Y009187D01*
X036581Y009092D01*
X036530Y008968D01*
X036530Y008833D01*
X036581Y008709D01*
X036530Y008873D02*
X033224Y008873D01*
X033212Y008861D02*
X033296Y008945D01*
X033348Y009069D01*
X033348Y009204D01*
X033296Y009328D01*
X033212Y009412D01*
X033296Y009496D01*
X033348Y009621D01*
X033348Y009755D01*
X033296Y009879D01*
X033212Y009963D01*
X033296Y010047D01*
X033348Y010172D01*
X033348Y010306D01*
X033296Y010431D01*
X033212Y010515D01*
X033296Y010599D01*
X033348Y010723D01*
X033348Y010857D01*
X033296Y010982D01*
X033212Y011066D01*
X033296Y011150D01*
X033348Y011274D01*
X033348Y011409D01*
X038057Y011409D01*
X038015Y011392D02*
X037920Y011297D01*
X037869Y011172D01*
X037869Y011038D01*
X037920Y010914D01*
X038015Y010818D01*
X038139Y010767D01*
X038274Y010767D01*
X038398Y010818D01*
X038493Y010914D01*
X038545Y011038D01*
X038545Y011172D01*
X038493Y011297D01*
X038398Y011392D01*
X038274Y011443D01*
X038139Y011443D01*
X038015Y011392D01*
X037901Y011251D02*
X033338Y011251D01*
X033348Y011409D02*
X033296Y011533D01*
X033212Y011617D01*
X033296Y011701D01*
X033348Y011825D01*
X033348Y011960D01*
X033296Y012084D01*
X033212Y012168D01*
X033296Y012252D01*
X033348Y012376D01*
X033348Y012511D01*
X033296Y012635D01*
X033201Y012730D01*
X033077Y012782D01*
X032943Y012782D01*
X032818Y012730D01*
X032723Y012635D01*
X032672Y012511D01*
X032672Y012376D01*
X032723Y012252D01*
X032807Y012168D01*
X032723Y012084D01*
X032672Y011960D01*
X032672Y011825D01*
X032723Y011701D01*
X032807Y011617D01*
X032723Y011533D01*
X032672Y011409D01*
X032591Y011409D01*
X032565Y011420D02*
X032431Y011420D01*
X032306Y011368D01*
X032211Y011273D01*
X032160Y011149D01*
X032160Y011014D01*
X032211Y010890D01*
X032306Y010795D01*
X032431Y010743D01*
X032565Y010743D01*
X032672Y010787D01*
X032672Y010723D01*
X032723Y010599D01*
X032807Y010515D01*
X032723Y010431D01*
X032672Y010306D01*
X032672Y010172D01*
X032723Y010047D01*
X032807Y009963D01*
X032723Y009879D01*
X032672Y009755D01*
X032672Y009621D01*
X032723Y009496D01*
X032807Y009412D01*
X032723Y009328D01*
X032672Y009204D01*
X032672Y009069D01*
X032723Y008945D01*
X032807Y008861D01*
X032723Y008777D01*
X032672Y008653D01*
X032672Y008518D01*
X032723Y008394D01*
X032818Y008299D01*
X032943Y008247D01*
X033077Y008247D01*
X033201Y008299D01*
X033296Y008394D01*
X033348Y008518D01*
X033348Y008653D01*
X033296Y008777D01*
X033212Y008861D01*
X033322Y008715D02*
X035338Y008715D01*
X035243Y008619D01*
X035191Y008495D01*
X035191Y008361D01*
X035243Y008236D01*
X035338Y008141D01*
X035462Y008090D01*
X035597Y008090D01*
X035721Y008141D01*
X035816Y008236D01*
X035828Y008265D01*
X035873Y008158D01*
X035968Y008063D01*
X036092Y008011D01*
X036227Y008011D01*
X036351Y008063D01*
X036480Y008239D02*
X040482Y008239D01*
X040632Y008239D02*
X042933Y008239D01*
X042908Y008264D02*
X043003Y008169D01*
X043128Y008117D01*
X043262Y008117D01*
X043386Y008169D01*
X043481Y008264D01*
X043533Y008388D01*
X043533Y008523D01*
X043481Y008647D01*
X043386Y008742D01*
X043262Y008794D01*
X043128Y008794D01*
X043003Y008742D01*
X042908Y008647D01*
X042857Y008523D01*
X042857Y008388D01*
X042908Y008264D01*
X042857Y008398D02*
X039757Y008398D01*
X039737Y008378D02*
X039832Y008473D01*
X039883Y008597D01*
X039883Y008731D01*
X039832Y008856D01*
X039737Y008951D01*
X039612Y009002D01*
X039478Y009002D01*
X039354Y008951D01*
X039259Y008856D01*
X039207Y008731D01*
X039207Y008597D01*
X039259Y008473D01*
X039354Y008378D01*
X039478Y008326D01*
X039612Y008326D01*
X039737Y008378D01*
X039866Y008556D02*
X042871Y008556D01*
X042976Y008715D02*
X039883Y008715D01*
X039814Y008873D02*
X042305Y008873D01*
X042295Y008878D02*
X042419Y008826D01*
X042553Y008826D01*
X042678Y008878D01*
X042773Y008973D01*
X042824Y009097D01*
X042824Y009231D01*
X042773Y009356D01*
X042678Y009451D01*
X042553Y009502D01*
X042419Y009502D01*
X042352Y009475D01*
X042391Y009569D01*
X042391Y009704D01*
X042340Y009828D01*
X042245Y009923D01*
X042120Y009975D01*
X041986Y009975D01*
X041862Y009923D01*
X041766Y009828D01*
X041715Y009704D01*
X041715Y009569D01*
X041766Y009445D01*
X041862Y009350D01*
X041986Y009299D01*
X042120Y009299D01*
X042187Y009326D01*
X042148Y009231D01*
X042148Y009097D01*
X042200Y008973D01*
X042295Y008878D01*
X042175Y009032D02*
X037915Y009032D01*
X037915Y008991D02*
X037863Y008866D01*
X037768Y008771D01*
X037644Y008720D01*
X037509Y008720D01*
X037385Y008771D01*
X037290Y008866D01*
X037239Y008991D01*
X037239Y009125D01*
X037290Y009249D01*
X037385Y009345D01*
X037509Y009396D01*
X037644Y009396D01*
X037768Y009345D01*
X037863Y009249D01*
X037915Y009125D01*
X037915Y008991D01*
X037866Y008873D02*
X039276Y008873D01*
X039207Y008715D02*
X037157Y008715D01*
X037206Y008873D02*
X037287Y008873D01*
X037239Y009032D02*
X037180Y009032D01*
X037265Y009190D02*
X037052Y009190D01*
X036684Y009190D02*
X033348Y009190D01*
X033332Y009032D02*
X036556Y009032D01*
X036431Y008556D02*
X039224Y008556D01*
X039334Y008398D02*
X036497Y008398D01*
X035888Y008556D02*
X035842Y008556D01*
X035721Y008715D02*
X035597Y008766D01*
X035462Y008766D01*
X035338Y008715D01*
X035217Y008556D02*
X033348Y008556D01*
X033298Y008398D02*
X035191Y008398D01*
X035242Y008239D02*
X018698Y008239D01*
X018698Y008178D02*
X018647Y008054D01*
X018552Y007959D01*
X018427Y007907D01*
X018293Y007907D01*
X018168Y007959D01*
X018073Y008054D01*
X018022Y008178D01*
X018022Y008313D01*
X018073Y008437D01*
X018168Y008532D01*
X018293Y008584D01*
X018427Y008584D01*
X018552Y008532D01*
X018647Y008437D01*
X018698Y008313D01*
X018698Y008178D01*
X018658Y008081D02*
X020917Y008081D01*
X020928Y008092D02*
X020833Y007997D01*
X020782Y007873D01*
X020782Y007738D01*
X020833Y007614D01*
X020928Y007519D01*
X021053Y007467D01*
X021182Y007467D01*
X021182Y007338D01*
X021233Y007214D01*
X021328Y007119D01*
X021453Y007067D01*
X021587Y007067D01*
X021712Y007119D01*
X021807Y007214D01*
X021858Y007338D01*
X021858Y007473D01*
X021807Y007597D01*
X021712Y007692D01*
X021587Y007744D01*
X021458Y007744D01*
X021458Y007873D01*
X021407Y007997D01*
X021312Y008092D01*
X021187Y008144D01*
X021053Y008144D01*
X020928Y008092D01*
X020802Y007922D02*
X018463Y007922D01*
X018257Y007922D02*
X016250Y007922D01*
X016250Y007764D02*
X020782Y007764D01*
X020842Y007605D02*
X016250Y007605D01*
X016250Y007447D02*
X021182Y007447D01*
X021203Y007288D02*
X016250Y007288D01*
X016250Y007130D02*
X021318Y007130D01*
X021722Y007130D02*
X028892Y007130D01*
X028913Y006971D02*
X016250Y006971D01*
X016250Y006813D02*
X029029Y006813D01*
X028951Y007288D02*
X021837Y007288D01*
X021858Y007447D02*
X032987Y007447D01*
X033047Y007605D02*
X021799Y007605D01*
X021458Y007764D02*
X038026Y007764D01*
X038045Y007605D02*
X033602Y007605D01*
X033663Y007447D02*
X038159Y007447D01*
X038089Y007922D02*
X021438Y007922D01*
X021323Y008081D02*
X035950Y008081D01*
X035839Y008239D02*
X035817Y008239D01*
X037395Y009349D02*
X033276Y009349D01*
X033301Y009507D02*
X041741Y009507D01*
X041715Y009666D02*
X033348Y009666D01*
X033319Y009824D02*
X041765Y009824D01*
X041865Y009349D02*
X037758Y009349D01*
X037888Y009190D02*
X042148Y009190D01*
X042365Y009507D02*
X045130Y009507D01*
X045187Y009484D02*
X045321Y009484D01*
X045445Y009535D01*
X045540Y009630D01*
X045592Y009754D01*
X045592Y009889D01*
X045540Y010013D01*
X045445Y010108D01*
X045321Y010160D01*
X045187Y010160D01*
X045062Y010108D01*
X044967Y010013D01*
X044916Y009889D01*
X044916Y009754D01*
X044967Y009630D01*
X045062Y009535D01*
X045187Y009484D01*
X045378Y009507D02*
X057129Y009507D01*
X057129Y009349D02*
X054861Y009349D01*
X054860Y009349D02*
X054726Y009349D01*
X054602Y009297D01*
X054507Y009202D01*
X054455Y009078D01*
X054455Y008943D01*
X054507Y008819D01*
X054602Y008724D01*
X054726Y008673D01*
X054860Y008673D01*
X054985Y008724D01*
X055080Y008819D01*
X055131Y008943D01*
X055131Y009078D01*
X055080Y009202D01*
X054985Y009297D01*
X054860Y009349D01*
X054726Y009349D02*
X042776Y009349D01*
X042824Y009190D02*
X054502Y009190D01*
X054455Y009032D02*
X042797Y009032D01*
X042667Y008873D02*
X054484Y008873D01*
X054624Y008715D02*
X043414Y008715D01*
X043519Y008556D02*
X057129Y008556D01*
X057129Y008398D02*
X043533Y008398D01*
X043457Y008239D02*
X057129Y008239D01*
X057129Y008081D02*
X040850Y008081D01*
X040895Y007922D02*
X057129Y007922D01*
X057129Y007764D02*
X040865Y007764D01*
X040341Y007288D02*
X033643Y007288D01*
X033528Y007130D02*
X040298Y007130D01*
X039994Y006179D02*
X030980Y006179D01*
X031036Y006156D02*
X030912Y006207D01*
X030777Y006207D01*
X030653Y006156D01*
X030558Y006060D01*
X030506Y005936D01*
X030506Y005802D01*
X030558Y005677D01*
X030653Y005582D01*
X030777Y005531D01*
X030912Y005531D01*
X031036Y005582D01*
X031131Y005677D01*
X031183Y005802D01*
X031183Y005936D01*
X031131Y006060D01*
X031036Y006156D01*
X031148Y006020D02*
X037289Y006020D01*
X037178Y005862D02*
X031183Y005862D01*
X031142Y005703D02*
X037160Y005703D01*
X037226Y005545D02*
X030945Y005545D01*
X030744Y005545D02*
X018942Y005545D01*
X018913Y005703D02*
X027050Y005703D01*
X027002Y005862D02*
X018774Y005862D01*
X018896Y005386D02*
X019175Y005386D01*
X019089Y005228D02*
X019089Y005093D01*
X019140Y004969D01*
X019236Y004874D01*
X019360Y004822D01*
X019494Y004822D01*
X019619Y004874D01*
X019199Y004911D02*
X018357Y004911D01*
X018319Y005069D02*
X019099Y005069D01*
X019679Y005386D02*
X044583Y005386D01*
X045723Y005703D02*
X053763Y005703D01*
X053719Y005659D02*
X053814Y005754D01*
X053939Y005805D01*
X054073Y005805D01*
X054197Y005754D01*
X054292Y005659D01*
X054344Y005535D01*
X054344Y005400D01*
X054292Y005276D01*
X054197Y005181D01*
X054073Y005129D01*
X053939Y005129D01*
X053814Y005181D01*
X053719Y005276D01*
X053668Y005400D01*
X053668Y005535D01*
X053719Y005659D01*
X053672Y005545D02*
X046003Y005545D01*
X046161Y005386D02*
X053674Y005386D01*
X053767Y005228D02*
X046254Y005228D01*
X046319Y005069D02*
X057129Y005069D01*
X057129Y004911D02*
X056616Y004911D01*
X056655Y004871D02*
X056560Y004967D01*
X056435Y005018D01*
X056301Y005018D01*
X056177Y004967D01*
X056081Y004871D01*
X056030Y004747D01*
X056030Y004613D01*
X056081Y004488D01*
X056177Y004393D01*
X056301Y004342D01*
X056435Y004342D01*
X056560Y004393D01*
X056655Y004488D01*
X056706Y004613D01*
X056706Y004747D01*
X056655Y004871D01*
X056704Y004752D02*
X057129Y004752D01*
X057129Y004594D02*
X056698Y004594D01*
X056601Y004435D02*
X057129Y004435D01*
X057129Y004277D02*
X046229Y004277D01*
X046294Y004435D02*
X052985Y004435D01*
X053027Y004393D02*
X053151Y004342D01*
X053286Y004342D01*
X053410Y004393D01*
X053505Y004488D01*
X053557Y004613D01*
X053557Y004747D01*
X053505Y004871D01*
X053410Y004967D01*
X053286Y005018D01*
X053151Y005018D01*
X053027Y004967D01*
X052932Y004871D01*
X052880Y004747D01*
X052880Y004613D01*
X052932Y004488D01*
X053027Y004393D01*
X052888Y004594D02*
X046357Y004594D01*
X046357Y004752D02*
X052882Y004752D01*
X052971Y004911D02*
X046357Y004911D01*
X046101Y004118D02*
X057129Y004118D01*
X057129Y003960D02*
X045942Y003960D01*
X045577Y003801D02*
X057129Y003801D01*
X056135Y004435D02*
X055064Y004435D01*
X055037Y004408D02*
X055132Y004503D01*
X055184Y004627D01*
X055184Y004762D01*
X055132Y004886D01*
X055037Y004981D01*
X054913Y005033D01*
X054779Y005033D01*
X054654Y004981D01*
X054559Y004886D01*
X054508Y004762D01*
X054508Y004627D01*
X054559Y004503D01*
X054654Y004408D01*
X054779Y004357D01*
X054913Y004357D01*
X055037Y004408D01*
X055170Y004594D02*
X056038Y004594D01*
X056032Y004752D02*
X055184Y004752D01*
X055108Y004911D02*
X056121Y004911D01*
X055819Y005228D02*
X057129Y005228D01*
X057129Y005386D02*
X055913Y005386D01*
X055919Y005400D02*
X055867Y005276D01*
X055772Y005181D01*
X055648Y005129D01*
X055513Y005129D01*
X055389Y005181D01*
X055294Y005276D01*
X055243Y005400D01*
X055243Y005535D01*
X055294Y005659D01*
X055389Y005754D01*
X055513Y005805D01*
X055648Y005805D01*
X055772Y005754D01*
X055867Y005659D01*
X055919Y005535D01*
X055919Y005400D01*
X055915Y005545D02*
X057129Y005545D01*
X057129Y005703D02*
X055823Y005703D01*
X055338Y005703D02*
X054248Y005703D01*
X054340Y005545D02*
X055247Y005545D01*
X055248Y005386D02*
X054338Y005386D01*
X054244Y005228D02*
X055342Y005228D01*
X054584Y004911D02*
X053466Y004911D01*
X053554Y004752D02*
X054508Y004752D01*
X054522Y004594D02*
X053549Y004594D01*
X053452Y004435D02*
X054627Y004435D01*
X054249Y006020D02*
X055337Y006020D01*
X055246Y006179D02*
X054340Y006179D01*
X054338Y006337D02*
X055249Y006337D01*
X055343Y006496D02*
X054243Y006496D01*
X054530Y006813D02*
X053467Y006813D01*
X053555Y006971D02*
X054468Y006971D01*
X054468Y006947D02*
X054519Y006823D01*
X054614Y006728D01*
X054739Y006677D01*
X054873Y006677D01*
X054997Y006728D01*
X055092Y006823D01*
X055144Y006947D01*
X055144Y007082D01*
X055092Y007206D01*
X054997Y007301D01*
X054873Y007353D01*
X054739Y007353D01*
X054614Y007301D01*
X054519Y007206D01*
X054468Y007082D01*
X054468Y006947D01*
X054487Y007130D02*
X053548Y007130D01*
X053451Y007288D02*
X054601Y007288D01*
X055011Y007288D02*
X056136Y007288D01*
X056177Y007329D02*
X056081Y007234D01*
X056030Y007109D01*
X056030Y006975D01*
X056081Y006851D01*
X056177Y006755D01*
X056301Y006704D01*
X056435Y006704D01*
X056560Y006755D01*
X056655Y006851D01*
X056706Y006975D01*
X056706Y007109D01*
X056655Y007234D01*
X056560Y007329D01*
X056435Y007380D01*
X056301Y007380D01*
X056177Y007329D01*
X056038Y007130D02*
X055124Y007130D01*
X055144Y006971D02*
X056031Y006971D01*
X056119Y006813D02*
X055082Y006813D01*
X056617Y006813D02*
X057129Y006813D01*
X057129Y006971D02*
X056705Y006971D01*
X056698Y007130D02*
X057129Y007130D01*
X057129Y007288D02*
X056600Y007288D01*
X057129Y008715D02*
X054962Y008715D01*
X055102Y008873D02*
X057129Y008873D01*
X057129Y009032D02*
X055131Y009032D01*
X055085Y009190D02*
X057129Y009190D01*
X057129Y009666D02*
X045555Y009666D01*
X045592Y009824D02*
X057129Y009824D01*
X057129Y009983D02*
X045553Y009983D01*
X045366Y010141D02*
X057129Y010141D01*
X057129Y010300D02*
X037319Y010300D01*
X037312Y010284D02*
X037364Y010408D01*
X037364Y010542D01*
X037312Y010667D01*
X037217Y010762D01*
X037093Y010813D01*
X036958Y010813D01*
X036834Y010762D01*
X036739Y010667D01*
X036687Y010542D01*
X036687Y010408D01*
X036739Y010284D01*
X036834Y010189D01*
X036958Y010137D01*
X037093Y010137D01*
X037217Y010189D01*
X037312Y010284D01*
X037364Y010458D02*
X057129Y010458D01*
X057129Y010617D02*
X037333Y010617D01*
X037185Y010775D02*
X038120Y010775D01*
X038293Y010775D02*
X057129Y010775D01*
X057129Y010934D02*
X038502Y010934D01*
X038545Y011092D02*
X057129Y011092D01*
X057129Y011251D02*
X047347Y011251D01*
X047301Y011232D02*
X047426Y011283D01*
X047521Y011378D01*
X047572Y011502D01*
X047572Y011637D01*
X047521Y011761D01*
X047426Y011856D01*
X047301Y011908D01*
X047167Y011908D01*
X047043Y011856D01*
X046948Y011761D01*
X046896Y011637D01*
X046896Y011502D01*
X046948Y011378D01*
X047043Y011283D01*
X047167Y011232D01*
X047301Y011232D01*
X047121Y011251D02*
X038512Y011251D01*
X038356Y011409D02*
X046935Y011409D01*
X046896Y011568D02*
X044108Y011568D01*
X044111Y011571D02*
X044163Y011695D01*
X044163Y011830D01*
X044111Y011954D01*
X044016Y012049D01*
X043892Y012101D01*
X043757Y012101D01*
X043633Y012049D01*
X043538Y011954D01*
X043487Y011830D01*
X043487Y011695D01*
X043538Y011571D01*
X043633Y011476D01*
X043757Y011424D01*
X043892Y011424D01*
X044016Y011476D01*
X044111Y011571D01*
X044163Y011726D02*
X046933Y011726D01*
X047111Y011885D02*
X044140Y011885D01*
X044022Y012043D02*
X052229Y012043D01*
X052239Y012053D02*
X052144Y011958D01*
X052093Y011834D01*
X052093Y011699D01*
X052144Y011575D01*
X052239Y011480D01*
X052364Y011428D01*
X052498Y011428D01*
X052623Y011480D01*
X052718Y011575D01*
X052769Y011699D01*
X052769Y011834D01*
X052718Y011958D01*
X052623Y012053D01*
X052498Y012105D01*
X052364Y012105D01*
X052239Y012053D01*
X052114Y011885D02*
X047357Y011885D01*
X047535Y011726D02*
X052093Y011726D01*
X052152Y011568D02*
X047572Y011568D01*
X047534Y011409D02*
X057129Y011409D01*
X057129Y011568D02*
X052710Y011568D01*
X052769Y011726D02*
X057129Y011726D01*
X057129Y011885D02*
X052748Y011885D01*
X052633Y012043D02*
X057129Y012043D01*
X057129Y012202D02*
X043352Y012202D01*
X043308Y012246D02*
X043183Y012298D01*
X043049Y012298D01*
X042925Y012246D01*
X042829Y012151D01*
X042778Y012027D01*
X042778Y011892D01*
X042829Y011768D01*
X042925Y011673D01*
X043049Y011621D01*
X043183Y011621D01*
X043308Y011673D01*
X043403Y011768D01*
X043454Y011892D01*
X043454Y012027D01*
X043403Y012151D01*
X043308Y012246D01*
X043447Y012043D02*
X043627Y012043D01*
X043509Y011885D02*
X043451Y011885D01*
X043487Y011726D02*
X043361Y011726D01*
X043542Y011568D02*
X033262Y011568D01*
X033307Y011726D02*
X042871Y011726D01*
X042781Y011885D02*
X033348Y011885D01*
X033313Y012043D02*
X035294Y012043D01*
X035338Y012000D02*
X035462Y011948D01*
X035597Y011948D01*
X035721Y012000D01*
X035816Y012095D01*
X035868Y012219D01*
X035868Y012353D01*
X035816Y012478D01*
X035721Y012573D01*
X035597Y012624D01*
X035462Y012624D01*
X035338Y012573D01*
X035243Y012478D01*
X035191Y012353D01*
X035191Y012219D01*
X035243Y012095D01*
X035338Y012000D01*
X035199Y012202D02*
X033246Y012202D01*
X033341Y012360D02*
X035194Y012360D01*
X035284Y012519D02*
X033345Y012519D01*
X033255Y012677D02*
X037840Y012677D01*
X037779Y012652D02*
X037684Y012556D01*
X037632Y012432D01*
X037632Y012298D01*
X037684Y012173D01*
X037779Y012078D01*
X037903Y012027D01*
X038038Y012027D01*
X038162Y012078D01*
X038257Y012173D01*
X038309Y012298D01*
X038309Y012432D01*
X038257Y012556D01*
X038162Y012652D01*
X038038Y012703D01*
X037903Y012703D01*
X037779Y012652D01*
X037668Y012519D02*
X035775Y012519D01*
X035865Y012360D02*
X037632Y012360D01*
X037672Y012202D02*
X035860Y012202D01*
X035764Y012043D02*
X037864Y012043D01*
X038077Y012043D02*
X042785Y012043D01*
X042880Y012202D02*
X038269Y012202D01*
X038309Y012360D02*
X057129Y012360D01*
X057129Y012519D02*
X038273Y012519D01*
X038100Y012677D02*
X057129Y012677D01*
X057129Y012836D02*
X029198Y012836D01*
X029202Y012832D02*
X029107Y012927D01*
X028983Y012979D01*
X028848Y012979D01*
X028724Y012927D01*
X028629Y012832D01*
X028577Y012708D01*
X028577Y012573D01*
X028629Y012449D01*
X028724Y012354D01*
X028848Y012302D01*
X028983Y012302D01*
X029107Y012354D01*
X029202Y012449D01*
X029253Y012573D01*
X029253Y012708D01*
X029202Y012832D01*
X029253Y012677D02*
X032765Y012677D01*
X032675Y012519D02*
X029231Y012519D01*
X029113Y012360D02*
X032678Y012360D01*
X032774Y012202D02*
X027875Y012202D01*
X027875Y012212D02*
X027824Y012336D01*
X027729Y012431D01*
X027605Y012483D01*
X027470Y012483D01*
X027346Y012431D01*
X027251Y012336D01*
X027199Y012212D01*
X027199Y012077D01*
X027251Y011953D01*
X027346Y011858D01*
X027386Y011841D01*
X027385Y011841D01*
X027357Y011812D01*
X027352Y011824D01*
X027256Y011919D01*
X027132Y011971D01*
X027102Y011971D01*
X027131Y012040D01*
X027131Y012175D01*
X027080Y012299D01*
X026985Y012394D01*
X026860Y012446D01*
X026726Y012446D01*
X026602Y012394D01*
X026506Y012299D01*
X026455Y012175D01*
X026455Y012040D01*
X026506Y011916D01*
X026602Y011821D01*
X026726Y011770D01*
X026756Y011770D01*
X026727Y011700D01*
X026727Y011565D01*
X026778Y011441D01*
X026873Y011346D01*
X026998Y011295D01*
X027132Y011295D01*
X027256Y011346D01*
X027285Y011375D01*
X027290Y011362D01*
X027385Y011267D01*
X027509Y011216D01*
X027644Y011216D01*
X027768Y011267D01*
X027863Y011362D01*
X027915Y011487D01*
X027915Y011621D01*
X027863Y011745D01*
X027768Y011841D01*
X027728Y011857D01*
X027729Y011858D01*
X027824Y011953D01*
X027875Y012077D01*
X027875Y012212D01*
X027800Y012360D02*
X028718Y012360D01*
X028600Y012519D02*
X016250Y012519D01*
X016250Y012677D02*
X025672Y012677D01*
X025614Y012701D02*
X025738Y012650D01*
X025872Y012650D01*
X025997Y012701D01*
X026092Y012796D01*
X026143Y012921D01*
X026143Y013055D01*
X026092Y013179D01*
X025997Y013275D01*
X025872Y013326D01*
X025738Y013326D01*
X025614Y013275D01*
X025518Y013179D01*
X025467Y013055D01*
X025467Y012921D01*
X025518Y012796D01*
X025614Y012701D01*
X025502Y012836D02*
X016250Y012836D01*
X016250Y012994D02*
X025467Y012994D01*
X025507Y013153D02*
X016250Y013153D01*
X016250Y013311D02*
X025702Y013311D01*
X025768Y013470D02*
X016250Y013470D01*
X016250Y013628D02*
X019291Y013628D01*
X019293Y013627D02*
X019427Y013627D01*
X019552Y013679D01*
X019647Y013774D01*
X019698Y013898D01*
X019698Y014033D01*
X019647Y014157D01*
X019552Y014252D01*
X019427Y014304D01*
X019293Y014304D01*
X019168Y014252D01*
X019073Y014157D01*
X019022Y014033D01*
X019022Y013898D01*
X019073Y013774D01*
X019168Y013679D01*
X019293Y013627D01*
X019429Y013628D02*
X020851Y013628D01*
X020853Y013627D02*
X020987Y013627D01*
X021112Y013679D01*
X021207Y013774D01*
X021258Y013898D01*
X021258Y014033D01*
X021207Y014157D01*
X021112Y014252D01*
X020987Y014304D01*
X020853Y014304D01*
X020728Y014252D01*
X020633Y014157D01*
X020582Y014033D01*
X020582Y013898D01*
X020633Y013774D01*
X020728Y013679D01*
X020853Y013627D01*
X020989Y013628D02*
X021651Y013628D01*
X021653Y013627D02*
X021787Y013627D01*
X021912Y013679D01*
X022007Y013774D01*
X022058Y013898D01*
X022058Y014033D01*
X022007Y014157D01*
X021912Y014252D01*
X021787Y014304D01*
X021653Y014304D01*
X021528Y014252D01*
X021433Y014157D01*
X021382Y014033D01*
X021382Y013898D01*
X021433Y013774D01*
X021528Y013679D01*
X021653Y013627D01*
X021789Y013628D02*
X025548Y013628D01*
X025553Y013614D02*
X025648Y013519D01*
X025773Y013467D01*
X025907Y013467D01*
X026032Y013519D01*
X026127Y013614D01*
X026178Y013738D01*
X026178Y013873D01*
X026127Y013997D01*
X026032Y014092D01*
X025907Y014144D01*
X025773Y014144D01*
X025648Y014092D01*
X025553Y013997D01*
X025502Y013873D01*
X025502Y013738D01*
X025553Y013614D01*
X025502Y013787D02*
X022012Y013787D01*
X022058Y013945D02*
X025532Y013945D01*
X025676Y014104D02*
X022029Y014104D01*
X021888Y014262D02*
X025625Y014262D01*
X025648Y014239D02*
X025773Y014187D01*
X025907Y014187D01*
X026032Y014239D01*
X026127Y014334D01*
X026178Y014458D01*
X026178Y014593D01*
X026127Y014717D01*
X026032Y014812D01*
X025907Y014864D01*
X025773Y014864D01*
X025648Y014812D01*
X025553Y014717D01*
X025502Y014593D01*
X025502Y014458D01*
X025553Y014334D01*
X025648Y014239D01*
X025518Y014421D02*
X018938Y014421D01*
X018938Y014378D02*
X018887Y014254D01*
X018792Y014159D01*
X018667Y014107D01*
X018533Y014107D01*
X018408Y014159D01*
X018313Y014254D01*
X018262Y014378D01*
X018262Y014513D01*
X018313Y014637D01*
X018408Y014732D01*
X018533Y014784D01*
X018667Y014784D01*
X018792Y014732D01*
X018887Y014637D01*
X018938Y014513D01*
X018938Y014378D01*
X018890Y014262D02*
X019192Y014262D01*
X019051Y014104D02*
X016250Y014104D01*
X016250Y014262D02*
X018310Y014262D01*
X018262Y014421D02*
X016250Y014421D01*
X016250Y014579D02*
X018289Y014579D01*
X018421Y014738D02*
X016250Y014738D01*
X016250Y014896D02*
X057129Y014896D01*
X057129Y014738D02*
X026106Y014738D01*
X026178Y014579D02*
X057129Y014579D01*
X057129Y014421D02*
X026162Y014421D01*
X026055Y014262D02*
X057129Y014262D01*
X057129Y014104D02*
X026004Y014104D01*
X026148Y013945D02*
X029305Y013945D01*
X029270Y013911D02*
X029219Y013787D01*
X026178Y013787D01*
X026288Y013692D02*
X026193Y013597D01*
X026142Y013473D01*
X026142Y013338D01*
X026193Y013214D01*
X026288Y013119D01*
X026413Y013067D01*
X026547Y013067D01*
X026672Y013119D01*
X026767Y013214D01*
X026818Y013338D01*
X026818Y013473D01*
X026767Y013597D01*
X026672Y013692D01*
X026547Y013744D01*
X026413Y013744D01*
X026288Y013692D01*
X026224Y013628D02*
X026132Y013628D01*
X026142Y013470D02*
X025912Y013470D01*
X025908Y013311D02*
X026153Y013311D01*
X026103Y013153D02*
X026255Y013153D01*
X026143Y012994D02*
X040071Y012994D01*
X040074Y012988D02*
X040169Y012893D01*
X040293Y012842D01*
X040427Y012842D01*
X040552Y012893D01*
X040647Y012988D01*
X040698Y013113D01*
X040698Y013247D01*
X040647Y013371D01*
X040552Y013467D01*
X040427Y013518D01*
X040293Y013518D01*
X040169Y013467D01*
X040074Y013371D01*
X040022Y013247D01*
X040022Y013113D01*
X040074Y012988D01*
X040022Y013153D02*
X026705Y013153D01*
X026807Y013311D02*
X040049Y013311D01*
X040176Y013470D02*
X029785Y013470D01*
X029749Y013433D02*
X029844Y013528D01*
X029895Y013652D01*
X029895Y013787D01*
X057129Y013787D01*
X057129Y013945D02*
X029809Y013945D01*
X029844Y013911D02*
X029749Y014006D01*
X029624Y014057D01*
X029490Y014057D01*
X029365Y014006D01*
X029270Y013911D01*
X029219Y013787D02*
X029219Y013652D01*
X029270Y013528D01*
X029365Y013433D01*
X029490Y013381D01*
X029624Y013381D01*
X029749Y013433D01*
X029885Y013628D02*
X057129Y013628D01*
X057129Y013470D02*
X040544Y013470D01*
X040672Y013311D02*
X057129Y013311D01*
X057129Y013153D02*
X040698Y013153D01*
X040649Y012994D02*
X057129Y012994D01*
X057129Y015055D02*
X016250Y015055D01*
X016250Y015213D02*
X057129Y015213D01*
X057129Y015372D02*
X056450Y015372D01*
X056435Y015365D02*
X056560Y015417D01*
X056655Y015512D01*
X056706Y015636D01*
X056706Y015771D01*
X056655Y015895D01*
X056560Y015990D01*
X056435Y016042D01*
X056301Y016042D01*
X056177Y015990D01*
X056081Y015895D01*
X056030Y015771D01*
X056030Y015636D01*
X056081Y015512D01*
X056177Y015417D01*
X056301Y015365D01*
X056435Y015365D01*
X056286Y015372D02*
X029205Y015372D01*
X029152Y015350D02*
X029276Y015401D01*
X029371Y015496D01*
X029423Y015621D01*
X029423Y015755D01*
X029371Y015879D01*
X029276Y015974D01*
X029152Y016026D01*
X029017Y016026D01*
X028893Y015974D01*
X028798Y015879D01*
X028746Y015755D01*
X028746Y015621D01*
X028798Y015496D01*
X028893Y015401D01*
X029017Y015350D01*
X029152Y015350D01*
X028964Y015372D02*
X017204Y015372D01*
X017247Y015414D02*
X017298Y015538D01*
X017298Y015673D01*
X017247Y015797D01*
X017152Y015892D01*
X017027Y015944D01*
X016893Y015944D01*
X016768Y015892D01*
X016673Y015797D01*
X016622Y015673D01*
X016622Y015538D01*
X016673Y015414D01*
X016768Y015319D01*
X016893Y015267D01*
X017027Y015267D01*
X017152Y015319D01*
X017247Y015414D01*
X017295Y015530D02*
X028784Y015530D01*
X028746Y015689D02*
X017292Y015689D01*
X017197Y015847D02*
X028785Y015847D01*
X028968Y016006D02*
X016250Y016006D01*
X016250Y016164D02*
X016723Y016164D01*
X016768Y016119D02*
X016893Y016067D01*
X017027Y016067D01*
X017152Y016119D01*
X017247Y016214D01*
X017298Y016338D01*
X017298Y016473D01*
X017247Y016597D01*
X017152Y016692D01*
X017027Y016744D01*
X016893Y016744D01*
X016768Y016692D01*
X016673Y016597D01*
X016622Y016473D01*
X016622Y016338D01*
X016673Y016214D01*
X016768Y016119D01*
X016628Y016323D02*
X016250Y016323D01*
X016250Y016481D02*
X016625Y016481D01*
X016716Y016640D02*
X016250Y016640D01*
X016250Y016798D02*
X027380Y016798D01*
X027381Y016795D02*
X027419Y016757D01*
X027369Y016706D01*
X027317Y016582D01*
X027317Y016447D01*
X027369Y016323D01*
X027464Y016228D01*
X027588Y016176D01*
X027723Y016176D01*
X027847Y016228D01*
X027942Y016323D01*
X027994Y016447D01*
X027994Y016582D01*
X027942Y016706D01*
X027903Y016745D01*
X027954Y016795D01*
X028005Y016920D01*
X028005Y017054D01*
X027954Y017179D01*
X027909Y017223D01*
X027954Y017268D01*
X028005Y017392D01*
X028005Y017527D01*
X027954Y017651D01*
X027859Y017746D01*
X027734Y017798D01*
X027600Y017798D01*
X027476Y017746D01*
X027381Y017651D01*
X027329Y017527D01*
X027329Y017392D01*
X027381Y017268D01*
X027425Y017223D01*
X027381Y017179D01*
X027329Y017054D01*
X027329Y016920D01*
X027381Y016795D01*
X027341Y016640D02*
X017204Y016640D01*
X017295Y016481D02*
X027317Y016481D01*
X027369Y016323D02*
X017292Y016323D01*
X017197Y016164D02*
X052543Y016164D01*
X052527Y016125D02*
X052527Y015990D01*
X052578Y015866D01*
X052673Y015771D01*
X052797Y015719D01*
X052932Y015719D01*
X053056Y015771D01*
X053151Y015866D01*
X053203Y015990D01*
X053203Y016125D01*
X053151Y016249D01*
X053056Y016344D01*
X052932Y016395D01*
X052797Y016395D01*
X052673Y016344D01*
X052578Y016249D01*
X052527Y016125D01*
X052527Y016006D02*
X029201Y016006D01*
X029385Y015847D02*
X052597Y015847D01*
X052652Y016323D02*
X031485Y016323D01*
X031537Y016447D01*
X031537Y016582D01*
X031485Y016706D01*
X031447Y016745D01*
X031497Y016795D01*
X031549Y016920D01*
X031549Y017054D01*
X031497Y017179D01*
X031452Y017223D01*
X031497Y017268D01*
X031549Y017392D01*
X031549Y017527D01*
X031497Y017651D01*
X031402Y017746D01*
X031278Y017798D01*
X031143Y017798D01*
X031019Y017746D01*
X030924Y017651D01*
X030872Y017527D01*
X030872Y017392D01*
X030924Y017268D01*
X030969Y017223D01*
X030924Y017179D01*
X030872Y017054D01*
X030872Y016920D01*
X030924Y016795D01*
X030963Y016757D01*
X030912Y016706D01*
X030861Y016582D01*
X030861Y016447D01*
X030912Y016323D01*
X031007Y016228D01*
X031131Y016176D01*
X031266Y016176D01*
X031390Y016228D01*
X031485Y016323D01*
X031537Y016481D02*
X057129Y016481D01*
X057129Y016323D02*
X053078Y016323D01*
X053186Y016164D02*
X057129Y016164D01*
X057129Y016006D02*
X056522Y016006D01*
X056675Y015847D02*
X057129Y015847D01*
X057129Y015689D02*
X056706Y015689D01*
X056662Y015530D02*
X057129Y015530D01*
X056214Y016006D02*
X053203Y016006D01*
X053133Y015847D02*
X056062Y015847D01*
X056030Y015689D02*
X029423Y015689D01*
X029385Y015530D02*
X056074Y015530D01*
X056042Y016547D02*
X056166Y016598D01*
X056261Y016693D01*
X056312Y016817D01*
X056312Y016952D01*
X056261Y017076D01*
X056166Y017171D01*
X056042Y017223D01*
X055907Y017223D01*
X055783Y017171D01*
X055688Y017076D01*
X055636Y016952D01*
X055636Y016817D01*
X055688Y016693D01*
X055783Y016598D01*
X055907Y016547D01*
X056042Y016547D01*
X056207Y016640D02*
X057129Y016640D01*
X057129Y016798D02*
X056304Y016798D01*
X056310Y016957D02*
X057129Y016957D01*
X057129Y017115D02*
X056222Y017115D01*
X055727Y017115D02*
X043171Y017115D01*
X043171Y017093D02*
X043119Y016969D01*
X043024Y016874D01*
X042900Y016822D01*
X042765Y016822D01*
X042641Y016874D01*
X042546Y016969D01*
X042494Y017093D01*
X042494Y017228D01*
X042546Y017352D01*
X042641Y017447D01*
X042765Y017498D01*
X042900Y017498D01*
X043024Y017447D01*
X043119Y017352D01*
X043171Y017228D01*
X043171Y017093D01*
X043107Y016957D02*
X055638Y016957D01*
X055644Y016798D02*
X031498Y016798D01*
X031513Y016640D02*
X055741Y016640D01*
X057129Y017274D02*
X043152Y017274D01*
X043039Y017432D02*
X057129Y017432D01*
X057129Y017591D02*
X031522Y017591D01*
X031549Y017432D02*
X036489Y017432D01*
X036448Y017391D02*
X036396Y017267D01*
X036396Y017132D01*
X036448Y017008D01*
X036543Y016913D01*
X036667Y016862D01*
X036801Y016862D01*
X036926Y016913D01*
X037021Y017008D01*
X037072Y017132D01*
X037072Y017267D01*
X037021Y017391D01*
X036926Y017486D01*
X036801Y017538D01*
X036667Y017538D01*
X036543Y017486D01*
X036448Y017391D01*
X036399Y017274D02*
X031500Y017274D01*
X031523Y017115D02*
X036403Y017115D01*
X036499Y016957D02*
X031549Y016957D01*
X030923Y016798D02*
X027955Y016798D01*
X027970Y016640D02*
X030885Y016640D01*
X030861Y016481D02*
X027994Y016481D01*
X027942Y016323D02*
X030913Y016323D01*
X030872Y016957D02*
X028005Y016957D01*
X027980Y017115D02*
X030898Y017115D01*
X030922Y017274D02*
X027956Y017274D01*
X028005Y017432D02*
X030872Y017432D01*
X030899Y017591D02*
X029751Y017591D01*
X029788Y017606D02*
X029883Y017701D01*
X029934Y017825D01*
X029934Y017960D01*
X029883Y018084D01*
X029788Y018179D01*
X029664Y018231D01*
X029529Y018231D01*
X029405Y018179D01*
X029310Y018084D01*
X029258Y017960D01*
X029258Y017825D01*
X029310Y017701D01*
X029405Y017606D01*
X029529Y017554D01*
X029664Y017554D01*
X029788Y017606D01*
X029903Y017749D02*
X031026Y017749D01*
X031395Y017749D02*
X057129Y017749D01*
X057129Y017908D02*
X031831Y017908D01*
X031863Y017921D02*
X031958Y018016D01*
X032009Y018140D01*
X032009Y018275D01*
X031958Y018399D01*
X031863Y018494D01*
X031738Y018546D01*
X031604Y018546D01*
X031480Y018494D01*
X031385Y018399D01*
X031333Y018275D01*
X031333Y018140D01*
X031385Y018016D01*
X031480Y017921D01*
X031604Y017869D01*
X031738Y017869D01*
X031863Y017921D01*
X031979Y018066D02*
X057129Y018066D01*
X057129Y018225D02*
X032505Y018225D01*
X032532Y018236D02*
X032408Y018184D01*
X032273Y018184D01*
X032149Y018236D01*
X032054Y018331D01*
X032002Y018455D01*
X032002Y018590D01*
X032054Y018714D01*
X032149Y018809D01*
X032273Y018861D01*
X032408Y018861D01*
X032532Y018809D01*
X032627Y018714D01*
X032679Y018590D01*
X032679Y018455D01*
X032627Y018331D01*
X032532Y018236D01*
X032649Y018383D02*
X057129Y018383D01*
X057129Y018542D02*
X032679Y018542D01*
X032633Y018700D02*
X057129Y018700D01*
X057129Y018859D02*
X032412Y018859D01*
X032269Y018859D02*
X032138Y018859D01*
X032115Y018803D02*
X032167Y018928D01*
X032167Y019062D01*
X032115Y019186D01*
X032020Y019282D01*
X031896Y019333D01*
X031761Y019333D01*
X031637Y019282D01*
X031542Y019186D01*
X031491Y019062D01*
X031491Y018928D01*
X031542Y018803D01*
X031637Y018708D01*
X031761Y018657D01*
X031896Y018657D01*
X032020Y018708D01*
X032115Y018803D01*
X032048Y018700D02*
X032001Y018700D01*
X032002Y018542D02*
X031748Y018542D01*
X031594Y018542D02*
X030576Y018542D01*
X030569Y018539D02*
X030693Y018590D01*
X030789Y018685D01*
X030840Y018810D01*
X030840Y018944D01*
X030789Y019068D01*
X030693Y019163D01*
X030569Y019215D01*
X030435Y019215D01*
X030310Y019163D01*
X030215Y019068D01*
X030164Y018944D01*
X030164Y018810D01*
X030215Y018685D01*
X030310Y018590D01*
X030435Y018539D01*
X030569Y018539D01*
X030428Y018542D02*
X028702Y018542D01*
X028702Y018553D02*
X028651Y018677D01*
X028599Y018729D01*
X028657Y018787D01*
X028709Y018911D01*
X028709Y019045D01*
X028657Y019170D01*
X028612Y019214D01*
X028677Y019279D01*
X028729Y019403D01*
X028729Y019538D01*
X028677Y019662D01*
X028632Y019707D01*
X028677Y019751D01*
X028729Y019876D01*
X028729Y020010D01*
X028677Y020134D01*
X028582Y020230D01*
X028458Y020281D01*
X028323Y020281D01*
X028199Y020230D01*
X028104Y020134D01*
X028052Y020010D01*
X028052Y019876D01*
X028104Y019751D01*
X028149Y019707D01*
X028104Y019662D01*
X028052Y019538D01*
X028052Y019403D01*
X028104Y019279D01*
X028149Y019234D01*
X028084Y019170D01*
X028032Y019045D01*
X028032Y018911D01*
X028084Y018787D01*
X028135Y018735D01*
X028078Y018677D01*
X028026Y018553D01*
X028026Y018418D01*
X028078Y018294D01*
X028173Y018199D01*
X028297Y018147D01*
X028432Y018147D01*
X028556Y018199D01*
X028651Y018294D01*
X028702Y018418D01*
X028702Y018553D01*
X028628Y018700D02*
X030209Y018700D01*
X030164Y018859D02*
X028687Y018859D01*
X028709Y019017D02*
X030194Y019017D01*
X030340Y019176D02*
X028651Y019176D01*
X028700Y019334D02*
X032384Y019334D01*
X032408Y019276D02*
X032503Y019181D01*
X032628Y019129D01*
X032762Y019129D01*
X032886Y019181D01*
X032981Y019276D01*
X033033Y019400D01*
X033033Y019535D01*
X033021Y019564D01*
X033116Y019564D01*
X033241Y019616D01*
X033336Y019711D01*
X033387Y019835D01*
X033387Y019970D01*
X033336Y020094D01*
X033241Y020189D01*
X033116Y020240D01*
X032982Y020240D01*
X032858Y020189D01*
X032762Y020094D01*
X032711Y019970D01*
X032711Y019835D01*
X032723Y019805D01*
X032628Y019805D01*
X032503Y019754D01*
X032408Y019659D01*
X032357Y019535D01*
X032357Y019400D01*
X032408Y019276D01*
X032516Y019176D02*
X032120Y019176D01*
X032167Y019017D02*
X057129Y019017D01*
X057129Y019176D02*
X032874Y019176D01*
X033006Y019334D02*
X057129Y019334D01*
X057129Y019493D02*
X033033Y019493D01*
X033276Y019651D02*
X057129Y019651D01*
X057130Y019810D02*
X033377Y019810D01*
X033387Y019968D02*
X057130Y019968D01*
X057130Y020127D02*
X033303Y020127D01*
X032795Y020127D02*
X030249Y020127D01*
X030249Y020165D02*
X030198Y020289D01*
X030103Y020384D01*
X029979Y020435D01*
X029844Y020435D01*
X029720Y020384D01*
X029625Y020289D01*
X029596Y020220D01*
X029568Y020289D01*
X029473Y020384D01*
X029349Y020435D01*
X029214Y020435D01*
X029090Y020384D01*
X028995Y020289D01*
X028943Y020165D01*
X028943Y020030D01*
X028995Y019906D01*
X029090Y019811D01*
X029214Y019759D01*
X029349Y019759D01*
X029473Y019811D01*
X029568Y019906D01*
X029596Y019974D01*
X029625Y019906D01*
X029720Y019811D01*
X029844Y019759D01*
X029979Y019759D01*
X030103Y019811D01*
X030198Y019906D01*
X030249Y020030D01*
X030249Y020165D01*
X030199Y020285D02*
X057130Y020285D01*
X057130Y020444D02*
X031169Y020444D01*
X031166Y020441D02*
X031261Y020536D01*
X031312Y020660D01*
X031312Y020794D01*
X031261Y020919D01*
X031166Y021014D01*
X031042Y021065D01*
X030907Y021065D01*
X030783Y021014D01*
X030688Y020919D01*
X016250Y020919D01*
X016250Y020761D02*
X026997Y020761D01*
X026953Y020717D02*
X026902Y020593D01*
X026902Y020458D01*
X026953Y020334D01*
X027048Y020239D01*
X027173Y020187D01*
X027307Y020187D01*
X027432Y020239D01*
X027490Y020298D01*
X027559Y020229D01*
X027683Y020177D01*
X027818Y020177D01*
X027942Y020229D01*
X028037Y020324D01*
X028089Y020448D01*
X028089Y020583D01*
X028037Y020707D01*
X027942Y020802D01*
X027818Y020853D01*
X027683Y020853D01*
X027559Y020802D01*
X027500Y020743D01*
X027432Y020812D01*
X027307Y020864D01*
X027173Y020864D01*
X027048Y020812D01*
X026953Y020717D01*
X026906Y020602D02*
X016250Y020602D01*
X016250Y020444D02*
X026908Y020444D01*
X027002Y020285D02*
X016250Y020285D01*
X016250Y020127D02*
X028101Y020127D01*
X028052Y019968D02*
X016250Y019968D01*
X016250Y019810D02*
X028080Y019810D01*
X028099Y019651D02*
X016250Y019651D01*
X016250Y019493D02*
X026929Y019493D01*
X026913Y019477D02*
X026862Y019353D01*
X026862Y019218D01*
X026913Y019094D01*
X027008Y018999D01*
X027133Y018947D01*
X027267Y018947D01*
X027392Y018999D01*
X027487Y019094D01*
X027538Y019218D01*
X027538Y019353D01*
X027487Y019477D01*
X027392Y019572D01*
X027267Y019624D01*
X027133Y019624D01*
X027008Y019572D01*
X026913Y019477D01*
X026862Y019334D02*
X016250Y019334D01*
X016250Y019176D02*
X026880Y019176D01*
X026990Y019017D02*
X016250Y019017D01*
X016250Y018859D02*
X028054Y018859D01*
X028032Y019017D02*
X027410Y019017D01*
X027520Y019176D02*
X028090Y019176D01*
X028081Y019334D02*
X027538Y019334D01*
X027471Y019493D02*
X028052Y019493D01*
X028682Y019651D02*
X032405Y019651D01*
X032357Y019493D02*
X028729Y019493D01*
X028701Y019810D02*
X029092Y019810D01*
X028969Y019968D02*
X028729Y019968D01*
X028680Y020127D02*
X028943Y020127D01*
X028993Y020285D02*
X027998Y020285D01*
X028087Y020444D02*
X030780Y020444D01*
X030783Y020441D02*
X030907Y020389D01*
X031042Y020389D01*
X031166Y020441D01*
X031289Y020602D02*
X057130Y020602D01*
X057130Y020761D02*
X040332Y020761D01*
X040327Y020755D02*
X040422Y020851D01*
X040474Y020975D01*
X040474Y021109D01*
X040422Y021234D01*
X040327Y021329D01*
X040203Y021380D01*
X040068Y021380D01*
X039944Y021329D01*
X039849Y021234D01*
X039798Y021109D01*
X039798Y020975D01*
X039849Y020851D01*
X039944Y020755D01*
X040068Y020704D01*
X040203Y020704D01*
X040327Y020755D01*
X040451Y020919D02*
X057130Y020919D01*
X057130Y021078D02*
X040474Y021078D01*
X040420Y021236D02*
X057130Y021236D01*
X057130Y021395D02*
X016250Y021395D01*
X016250Y021553D02*
X027379Y021553D01*
X027434Y021498D02*
X027311Y021622D01*
X027244Y021783D01*
X027244Y021958D01*
X027311Y022120D01*
X027434Y022244D01*
X027596Y022311D01*
X027771Y022311D01*
X027933Y022244D01*
X028057Y022120D01*
X028124Y021958D01*
X028124Y021783D01*
X028057Y021622D01*
X027933Y021498D01*
X027771Y021431D01*
X027596Y021431D01*
X027434Y021498D01*
X027273Y021712D02*
X016250Y021712D01*
X016250Y021870D02*
X027244Y021870D01*
X027273Y022029D02*
X016250Y022029D01*
X016680Y022187D02*
X027378Y022187D01*
X027990Y022187D02*
X029150Y022187D01*
X029090Y022212D02*
X029214Y022161D01*
X029349Y022161D01*
X029473Y022212D01*
X029568Y022307D01*
X029620Y022432D01*
X029620Y022566D01*
X029568Y022690D01*
X029473Y022785D01*
X029349Y022837D01*
X029214Y022837D01*
X029090Y022785D01*
X028995Y022690D01*
X028943Y022566D01*
X028943Y022432D01*
X028995Y022307D01*
X029090Y022212D01*
X028979Y022346D02*
X016773Y022346D01*
X016773Y022504D02*
X028943Y022504D01*
X028983Y022663D02*
X016681Y022663D01*
X016250Y022821D02*
X029176Y022821D01*
X029387Y022821D02*
X052568Y022821D01*
X052578Y022796D02*
X052673Y022701D01*
X052797Y022650D01*
X052932Y022650D01*
X053056Y022701D01*
X053151Y022796D01*
X053203Y022920D01*
X053203Y023055D01*
X053151Y023179D01*
X053056Y023274D01*
X052932Y023326D01*
X052797Y023326D01*
X052673Y023274D01*
X052578Y023179D01*
X052527Y023055D01*
X052527Y022920D01*
X052578Y022796D01*
X052527Y022980D02*
X016250Y022980D01*
X016250Y023138D02*
X052561Y023138D01*
X052727Y023297D02*
X016250Y023297D01*
X016250Y023455D02*
X052953Y023455D01*
X052920Y023488D02*
X053015Y023393D01*
X053139Y023342D01*
X053274Y023342D01*
X053398Y023393D01*
X053493Y023488D01*
X053545Y023613D01*
X053545Y023747D01*
X053493Y023871D01*
X053398Y023967D01*
X053274Y024018D01*
X053139Y024018D01*
X053015Y023967D01*
X052920Y023871D01*
X052869Y023747D01*
X052869Y023613D01*
X052920Y023488D01*
X052869Y023614D02*
X041606Y023614D01*
X041603Y023607D02*
X041655Y023731D01*
X041655Y023865D01*
X041603Y023990D01*
X041508Y024085D01*
X041384Y024136D01*
X041250Y024136D01*
X041125Y024085D01*
X041030Y023990D01*
X040979Y023865D01*
X040979Y023731D01*
X041030Y023607D01*
X041125Y023511D01*
X041250Y023460D01*
X041384Y023460D01*
X041508Y023511D01*
X041603Y023607D01*
X041655Y023772D02*
X052879Y023772D01*
X052979Y023931D02*
X041628Y023931D01*
X041498Y024089D02*
X057130Y024089D01*
X057130Y023931D02*
X053434Y023931D01*
X053534Y023772D02*
X057130Y023772D01*
X057130Y023614D02*
X053545Y023614D01*
X053460Y023455D02*
X057130Y023455D01*
X057130Y023297D02*
X053002Y023297D01*
X053168Y023138D02*
X057130Y023138D01*
X057130Y022980D02*
X053203Y022980D01*
X053162Y022821D02*
X057130Y022821D01*
X057130Y022663D02*
X052964Y022663D01*
X052766Y022663D02*
X029580Y022663D01*
X029620Y022504D02*
X057130Y022504D01*
X057130Y022346D02*
X029584Y022346D01*
X029412Y022187D02*
X031287Y022187D01*
X031295Y022195D02*
X031200Y022100D01*
X031148Y021976D01*
X031148Y021841D01*
X031200Y021717D01*
X031295Y021622D01*
X031419Y021570D01*
X031553Y021570D01*
X031678Y021622D01*
X031773Y021717D01*
X031824Y021841D01*
X031824Y021976D01*
X031773Y022100D01*
X031678Y022195D01*
X031553Y022246D01*
X031419Y022246D01*
X031295Y022195D01*
X031170Y022029D02*
X028095Y022029D01*
X028124Y021870D02*
X031148Y021870D01*
X031205Y021712D02*
X028094Y021712D01*
X027988Y021553D02*
X054540Y021553D01*
X054534Y021559D02*
X054629Y021464D01*
X054754Y021413D01*
X054888Y021413D01*
X055012Y021464D01*
X055107Y021559D01*
X055159Y021684D01*
X055159Y021818D01*
X055107Y021942D01*
X055012Y022037D01*
X054888Y022089D01*
X054754Y022089D01*
X054629Y022037D01*
X054534Y021942D01*
X054483Y021818D01*
X054483Y021684D01*
X054534Y021559D01*
X054483Y021712D02*
X031768Y021712D01*
X031824Y021870D02*
X054504Y021870D01*
X054620Y022029D02*
X031802Y022029D01*
X031685Y022187D02*
X057130Y022187D01*
X057130Y022029D02*
X055021Y022029D01*
X055137Y021870D02*
X057130Y021870D01*
X057130Y021712D02*
X055159Y021712D01*
X055101Y021553D02*
X057130Y021553D01*
X057130Y024248D02*
X016250Y024248D01*
X016250Y024089D02*
X034443Y024089D01*
X034432Y024085D02*
X034337Y023990D01*
X034286Y023865D01*
X034286Y023731D01*
X034337Y023607D01*
X034432Y023511D01*
X034557Y023460D01*
X034691Y023460D01*
X034815Y023511D01*
X034911Y023607D01*
X034962Y023731D01*
X034962Y023865D01*
X034911Y023990D01*
X034815Y024085D01*
X034691Y024136D01*
X034557Y024136D01*
X034432Y024085D01*
X034313Y023931D02*
X016250Y023931D01*
X016250Y023772D02*
X034286Y023772D01*
X034334Y023614D02*
X016250Y023614D01*
X016679Y024406D02*
X027061Y024406D01*
X027002Y024565D02*
X016772Y024565D01*
X016774Y024723D02*
X027023Y024723D01*
X027657Y024723D02*
X057130Y024723D01*
X057130Y024565D02*
X027678Y024565D01*
X027619Y024406D02*
X057130Y024406D01*
X057130Y024882D02*
X044203Y024882D01*
X044203Y025040D02*
X057130Y025040D01*
X057130Y025199D02*
X044203Y025199D01*
X044203Y025357D02*
X057130Y025357D01*
X057130Y025516D02*
X044203Y025516D01*
X044203Y025674D02*
X057130Y025674D01*
X057130Y025833D02*
X044203Y025833D01*
X044203Y025991D02*
X057130Y025991D01*
X057130Y026150D02*
X044203Y026150D01*
X044203Y026308D02*
X045762Y026308D01*
X045832Y026279D02*
X046224Y026279D01*
X046586Y026429D01*
X046863Y026706D01*
X047013Y027068D01*
X047013Y027460D01*
X046863Y027822D01*
X046586Y028099D01*
X046224Y028249D01*
X045832Y028249D01*
X045470Y028099D01*
X045193Y027822D01*
X045043Y027460D01*
X045043Y027068D01*
X045193Y026706D01*
X045470Y026429D01*
X045832Y026279D01*
X045433Y026467D02*
X044203Y026467D01*
X044203Y026625D02*
X045274Y026625D01*
X045161Y026784D02*
X044203Y026784D01*
X044203Y026942D02*
X045095Y026942D01*
X045043Y027101D02*
X044203Y027101D01*
X044203Y027259D02*
X045043Y027259D01*
X045043Y027418D02*
X044203Y027418D01*
X044203Y027576D02*
X045092Y027576D01*
X045157Y027735D02*
X044203Y027735D01*
X044203Y027893D02*
X045265Y027893D01*
X045423Y028052D02*
X044203Y028052D01*
X044203Y028210D02*
X045739Y028210D01*
X046318Y028210D02*
X057130Y028210D01*
X057130Y028052D02*
X046634Y028052D01*
X046792Y027893D02*
X057130Y027893D01*
X057130Y027735D02*
X046900Y027735D01*
X046965Y027576D02*
X057130Y027576D01*
X057130Y027418D02*
X047013Y027418D01*
X047013Y027259D02*
X057130Y027259D01*
X057130Y027101D02*
X047013Y027101D01*
X046961Y026942D02*
X057130Y026942D01*
X057130Y026784D02*
X046896Y026784D01*
X046783Y026625D02*
X057130Y026625D01*
X057130Y026467D02*
X046624Y026467D01*
X046295Y026308D02*
X057130Y026308D01*
X057130Y028369D02*
X044203Y028369D01*
X041136Y024089D02*
X034805Y024089D01*
X034935Y023931D02*
X041006Y023931D01*
X040979Y023772D02*
X034962Y023772D01*
X034914Y023614D02*
X041027Y023614D01*
X039852Y021236D02*
X035696Y021236D01*
X035698Y021234D02*
X035603Y021329D01*
X035479Y021380D01*
X035344Y021380D01*
X035220Y021329D01*
X035125Y021234D01*
X035073Y021109D01*
X035073Y020975D01*
X035125Y020851D01*
X035220Y020755D01*
X035344Y020704D01*
X035479Y020704D01*
X035603Y020755D01*
X035698Y020851D01*
X035749Y020975D01*
X035749Y021109D01*
X035698Y021234D01*
X035749Y021078D02*
X039798Y021078D01*
X039821Y020919D02*
X035726Y020919D01*
X035608Y020761D02*
X039939Y020761D01*
X035215Y020761D02*
X033246Y020761D01*
X033241Y020755D02*
X033336Y020851D01*
X033387Y020975D01*
X033387Y021109D01*
X033336Y021234D01*
X033241Y021329D01*
X033116Y021380D01*
X032982Y021380D01*
X032858Y021329D01*
X032762Y021234D01*
X032711Y021109D01*
X032711Y020975D01*
X032762Y020851D01*
X032858Y020755D01*
X032982Y020704D01*
X033116Y020704D01*
X033241Y020755D01*
X033364Y020919D02*
X035096Y020919D01*
X035073Y021078D02*
X033387Y021078D01*
X033333Y021236D02*
X035127Y021236D01*
X032852Y020761D02*
X032458Y020761D01*
X032453Y020755D02*
X032548Y020851D01*
X032600Y020975D01*
X032600Y021109D01*
X032548Y021234D01*
X032453Y021329D01*
X032329Y021380D01*
X032194Y021380D01*
X032070Y021329D01*
X031975Y021234D01*
X031924Y021109D01*
X031924Y020975D01*
X031975Y020851D01*
X032070Y020755D01*
X032194Y020704D01*
X032329Y020704D01*
X032453Y020755D01*
X032577Y020919D02*
X032734Y020919D01*
X032711Y021078D02*
X032600Y021078D01*
X032546Y021236D02*
X032765Y021236D01*
X031978Y021236D02*
X016250Y021236D01*
X016250Y021078D02*
X031924Y021078D01*
X031947Y020919D02*
X031261Y020919D01*
X031312Y020761D02*
X032065Y020761D01*
X032711Y019968D02*
X030224Y019968D01*
X030100Y019810D02*
X032722Y019810D01*
X031538Y019176D02*
X030664Y019176D01*
X030810Y019017D02*
X031491Y019017D01*
X031519Y018859D02*
X030840Y018859D01*
X030795Y018700D02*
X031657Y018700D01*
X031378Y018383D02*
X028688Y018383D01*
X028581Y018225D02*
X029515Y018225D01*
X029678Y018225D02*
X031333Y018225D01*
X031364Y018066D02*
X029890Y018066D01*
X029934Y017908D02*
X031512Y017908D01*
X032009Y018225D02*
X032176Y018225D01*
X032032Y018383D02*
X031964Y018383D01*
X029722Y019810D02*
X029471Y019810D01*
X029594Y019968D02*
X029599Y019968D01*
X029623Y020285D02*
X029570Y020285D01*
X030636Y020660D02*
X030636Y020794D01*
X030688Y020919D01*
X030636Y020761D02*
X027983Y020761D01*
X028081Y020602D02*
X030660Y020602D01*
X030636Y020660D02*
X030688Y020536D01*
X030783Y020441D01*
X028101Y018700D02*
X016250Y018700D01*
X016250Y018542D02*
X028026Y018542D01*
X028041Y018383D02*
X016250Y018383D01*
X016250Y018225D02*
X028147Y018225D01*
X027851Y017749D02*
X029290Y017749D01*
X029258Y017908D02*
X016250Y017908D01*
X016250Y018066D02*
X029302Y018066D01*
X029442Y017591D02*
X027979Y017591D01*
X027483Y017749D02*
X016250Y017749D01*
X016250Y017591D02*
X027356Y017591D01*
X027329Y017432D02*
X017172Y017432D01*
X017152Y017452D02*
X017027Y017504D01*
X016893Y017504D01*
X016768Y017452D01*
X016673Y017357D01*
X016622Y017233D01*
X016622Y017098D01*
X016673Y016974D01*
X016768Y016879D01*
X016893Y016827D01*
X017027Y016827D01*
X017152Y016879D01*
X017247Y016974D01*
X017298Y017098D01*
X017298Y017233D01*
X017247Y017357D01*
X017152Y017452D01*
X017281Y017274D02*
X027378Y017274D01*
X027354Y017115D02*
X017298Y017115D01*
X017229Y016957D02*
X027329Y016957D01*
X025574Y014738D02*
X018779Y014738D01*
X018911Y014579D02*
X025502Y014579D01*
X026736Y013628D02*
X029229Y013628D01*
X029329Y013470D02*
X026818Y013470D01*
X026108Y012836D02*
X028632Y012836D01*
X028577Y012677D02*
X025938Y012677D01*
X026567Y012360D02*
X016250Y012360D01*
X016250Y012202D02*
X026466Y012202D01*
X026455Y012043D02*
X016250Y012043D01*
X016250Y011885D02*
X026538Y011885D01*
X026738Y011726D02*
X016250Y011726D01*
X016250Y011568D02*
X026727Y011568D01*
X026810Y011409D02*
X024992Y011409D01*
X024989Y011415D02*
X024894Y011510D01*
X024770Y011561D01*
X024635Y011561D01*
X024511Y011510D01*
X024416Y011415D01*
X024365Y011290D01*
X024365Y011156D01*
X024416Y011032D01*
X024511Y010937D01*
X024635Y010885D01*
X024770Y010885D01*
X024894Y010937D01*
X024989Y011032D01*
X025041Y011156D01*
X025041Y011290D01*
X024989Y011415D01*
X025041Y011251D02*
X027425Y011251D01*
X027681Y011092D02*
X026312Y011092D01*
X026328Y011076D02*
X026233Y011171D01*
X026109Y011223D01*
X025974Y011223D01*
X025850Y011171D01*
X025755Y011076D01*
X025703Y010952D01*
X025703Y010830D01*
X025623Y010830D01*
X025499Y010778D01*
X025403Y010683D01*
X025352Y010559D01*
X025352Y010424D01*
X025403Y010300D01*
X025499Y010205D01*
X025623Y010153D01*
X025757Y010153D01*
X025882Y010205D01*
X025977Y010300D01*
X026028Y010424D01*
X026028Y010547D01*
X026109Y010547D01*
X026233Y010598D01*
X026328Y010693D01*
X026379Y010817D01*
X026379Y010952D01*
X026328Y011076D01*
X026379Y010934D02*
X027672Y010934D01*
X027672Y010936D02*
X027723Y010811D01*
X027818Y010716D01*
X027943Y010665D01*
X028077Y010665D01*
X028201Y010716D01*
X028296Y010811D01*
X028348Y010936D01*
X028348Y011070D01*
X028296Y011194D01*
X028201Y011289D01*
X028077Y011341D01*
X027943Y011341D01*
X027818Y011289D01*
X027723Y011194D01*
X027672Y011070D01*
X027672Y010936D01*
X027759Y010775D02*
X026362Y010775D01*
X026251Y010617D02*
X030918Y010617D01*
X030900Y010660D02*
X030951Y010536D01*
X031047Y010441D01*
X031171Y010389D01*
X031243Y010389D01*
X031215Y010322D01*
X031215Y010187D01*
X031266Y010063D01*
X031362Y009968D01*
X031486Y009917D01*
X031564Y009917D01*
X031503Y009856D01*
X031451Y009731D01*
X031451Y009597D01*
X031503Y009473D01*
X031598Y009378D01*
X031722Y009326D01*
X031857Y009326D01*
X031981Y009378D01*
X032076Y009473D01*
X032127Y009597D01*
X032127Y009731D01*
X032076Y009856D01*
X031981Y009951D01*
X031857Y010002D01*
X031779Y010002D01*
X031840Y010063D01*
X031891Y010187D01*
X031891Y010322D01*
X031840Y010446D01*
X031745Y010541D01*
X031620Y010593D01*
X031548Y010593D01*
X031576Y010660D01*
X031576Y010794D01*
X031525Y010919D01*
X031430Y011014D01*
X031305Y011065D01*
X031171Y011065D01*
X031047Y011014D01*
X030951Y010919D01*
X030900Y010794D01*
X030900Y010660D01*
X030900Y010775D02*
X029125Y010775D01*
X029123Y010772D02*
X029175Y010896D01*
X029175Y011031D01*
X029123Y011155D01*
X029028Y011250D01*
X028904Y011302D01*
X028769Y011302D01*
X028645Y011250D01*
X028550Y011155D01*
X028498Y011031D01*
X028498Y010896D01*
X028550Y010772D01*
X028645Y010677D01*
X028769Y010625D01*
X028904Y010625D01*
X029028Y010677D01*
X029123Y010772D01*
X029175Y010934D02*
X030966Y010934D01*
X031013Y011255D02*
X031148Y011255D01*
X031272Y011307D01*
X031367Y011402D01*
X031419Y011526D01*
X031419Y011661D01*
X031367Y011785D01*
X031272Y011880D01*
X031148Y011931D01*
X031013Y011931D01*
X030889Y011880D01*
X030794Y011785D01*
X030743Y011661D01*
X030743Y011526D01*
X030794Y011402D01*
X030889Y011307D01*
X031013Y011255D01*
X030791Y011409D02*
X027883Y011409D01*
X027915Y011568D02*
X030743Y011568D01*
X030770Y011726D02*
X027871Y011726D01*
X027756Y011885D02*
X030900Y011885D01*
X031261Y011885D02*
X032672Y011885D01*
X032706Y012043D02*
X027861Y012043D01*
X027319Y011885D02*
X027291Y011885D01*
X027213Y012043D02*
X027131Y012043D01*
X027120Y012202D02*
X027199Y012202D01*
X027275Y012360D02*
X027019Y012360D01*
X027728Y011251D02*
X027779Y011251D01*
X028240Y011251D02*
X028646Y011251D01*
X028524Y011092D02*
X028339Y011092D01*
X028347Y010934D02*
X028498Y010934D01*
X028549Y010775D02*
X028260Y010775D01*
X028234Y010593D02*
X028100Y010593D01*
X027976Y010541D01*
X027881Y010446D01*
X027829Y010322D01*
X027829Y010284D01*
X027808Y010305D01*
X027683Y010357D01*
X027549Y010357D01*
X027425Y010305D01*
X027329Y010210D01*
X027278Y010086D01*
X027278Y009951D01*
X027329Y009827D01*
X027425Y009732D01*
X027549Y009680D01*
X027683Y009680D01*
X027808Y009732D01*
X027903Y009827D01*
X027954Y009951D01*
X027954Y009990D01*
X027976Y009968D01*
X028100Y009917D01*
X028234Y009917D01*
X028359Y009968D01*
X028454Y010063D01*
X028505Y010187D01*
X028505Y010322D01*
X028454Y010446D01*
X028359Y010541D01*
X028234Y010593D01*
X028442Y010458D02*
X031029Y010458D01*
X031215Y010300D02*
X028505Y010300D01*
X028486Y010141D02*
X031234Y010141D01*
X031347Y009983D02*
X028373Y009983D01*
X028645Y009793D02*
X028550Y009698D01*
X028498Y009574D01*
X028498Y009439D01*
X028550Y009315D01*
X028645Y009220D01*
X028769Y009169D01*
X028904Y009169D01*
X029028Y009220D01*
X029123Y009315D01*
X029175Y009439D01*
X029175Y009574D01*
X029123Y009698D01*
X029028Y009793D01*
X028904Y009845D01*
X028769Y009845D01*
X028645Y009793D01*
X028719Y009824D02*
X027900Y009824D01*
X027954Y009983D02*
X027961Y009983D01*
X027829Y010300D02*
X027813Y010300D01*
X027892Y010458D02*
X026028Y010458D01*
X025976Y010300D02*
X027419Y010300D01*
X027301Y010141D02*
X019578Y010141D01*
X019556Y010194D02*
X019608Y010070D01*
X019608Y009936D01*
X019556Y009811D01*
X019461Y009716D01*
X019337Y009665D01*
X019202Y009665D01*
X019078Y009716D01*
X018983Y009811D01*
X018931Y009936D01*
X018931Y010070D01*
X018983Y010194D01*
X019078Y010289D01*
X019202Y010341D01*
X019337Y010341D01*
X019461Y010289D01*
X019556Y010194D01*
X019436Y010300D02*
X025404Y010300D01*
X025352Y010458D02*
X016250Y010458D01*
X016250Y010300D02*
X019103Y010300D01*
X018961Y010141D02*
X016250Y010141D01*
X016250Y009983D02*
X018931Y009983D01*
X018978Y009824D02*
X016250Y009824D01*
X016250Y009666D02*
X019200Y009666D01*
X019339Y009666D02*
X028536Y009666D01*
X028498Y009507D02*
X017992Y009507D01*
X018004Y009502D02*
X017880Y009553D01*
X017746Y009553D01*
X017621Y009502D01*
X017526Y009407D01*
X017475Y009283D01*
X017475Y009148D01*
X017526Y009024D01*
X017621Y008929D01*
X017746Y008877D01*
X017880Y008877D01*
X018004Y008929D01*
X018100Y009024D01*
X018151Y009148D01*
X018151Y009283D01*
X018100Y009407D01*
X018004Y009502D01*
X018124Y009349D02*
X028536Y009349D01*
X028717Y009190D02*
X018151Y009190D01*
X018103Y009032D02*
X030410Y009032D01*
X030388Y009085D02*
X030440Y008961D01*
X030535Y008866D01*
X030659Y008814D01*
X030794Y008814D01*
X030918Y008866D01*
X031013Y008961D01*
X031064Y009085D01*
X031064Y009220D01*
X031013Y009344D01*
X030918Y009439D01*
X030794Y009490D01*
X030659Y009490D01*
X030535Y009439D01*
X030440Y009344D01*
X030388Y009220D01*
X030388Y009085D01*
X030388Y009190D02*
X028956Y009190D01*
X029137Y009349D02*
X030444Y009349D01*
X031008Y009349D02*
X031668Y009349D01*
X031488Y009507D02*
X029175Y009507D01*
X029137Y009666D02*
X031451Y009666D01*
X031490Y009824D02*
X028954Y009824D01*
X027332Y009824D02*
X019562Y009824D01*
X019608Y009983D02*
X027278Y009983D01*
X025703Y010934D02*
X024887Y010934D01*
X025014Y011092D02*
X025771Y011092D01*
X025495Y010775D02*
X016250Y010775D01*
X016250Y010617D02*
X025376Y010617D01*
X024518Y010934D02*
X022052Y010934D01*
X022060Y010937D02*
X022155Y011032D01*
X022206Y011156D01*
X022206Y011290D01*
X022155Y011415D01*
X022060Y011510D01*
X021935Y011561D01*
X021801Y011561D01*
X021677Y011510D01*
X021581Y011415D01*
X021530Y011290D01*
X021530Y011156D01*
X021581Y011032D01*
X021677Y010937D01*
X021801Y010885D01*
X021935Y010885D01*
X022060Y010937D01*
X022180Y011092D02*
X024391Y011092D01*
X024365Y011251D02*
X022206Y011251D01*
X022157Y011409D02*
X024414Y011409D01*
X021684Y010934D02*
X016250Y010934D01*
X016250Y011092D02*
X021556Y011092D01*
X021530Y011251D02*
X016250Y011251D01*
X016250Y011409D02*
X021579Y011409D01*
X021428Y013787D02*
X021212Y013787D01*
X021258Y013945D02*
X021382Y013945D01*
X021411Y014104D02*
X021229Y014104D01*
X021088Y014262D02*
X021552Y014262D01*
X020752Y014262D02*
X019528Y014262D01*
X019669Y014104D02*
X020611Y014104D01*
X020582Y013945D02*
X019698Y013945D01*
X019652Y013787D02*
X020628Y013787D01*
X019068Y013787D02*
X016250Y013787D01*
X016250Y013945D02*
X019022Y013945D01*
X016716Y015372D02*
X016250Y015372D01*
X016250Y015530D02*
X016625Y015530D01*
X016628Y015689D02*
X016250Y015689D01*
X016250Y015847D02*
X016723Y015847D01*
X016691Y016957D02*
X016250Y016957D01*
X016250Y017115D02*
X016622Y017115D01*
X016639Y017274D02*
X016250Y017274D01*
X016250Y017432D02*
X016748Y017432D01*
X016250Y009507D02*
X017634Y009507D01*
X017502Y009349D02*
X016250Y009349D01*
X016250Y009190D02*
X017475Y009190D01*
X017523Y009032D02*
X016250Y009032D01*
X016250Y008873D02*
X030527Y008873D01*
X030925Y008873D02*
X032795Y008873D01*
X032697Y008715D02*
X016250Y008715D01*
X016250Y008556D02*
X018226Y008556D01*
X018057Y008398D02*
X016250Y008398D01*
X016250Y008239D02*
X018022Y008239D01*
X018062Y008081D02*
X016250Y008081D01*
X016250Y006654D02*
X021899Y006654D01*
X021845Y006496D02*
X016250Y006496D01*
X016250Y006337D02*
X021868Y006337D01*
X021986Y006179D02*
X016250Y006179D01*
X016250Y005703D02*
X017021Y005703D01*
X016741Y005545D02*
X016250Y005545D01*
X016250Y005386D02*
X016583Y005386D01*
X016490Y005228D02*
X016250Y005228D01*
X016250Y005069D02*
X016425Y005069D01*
X016387Y004911D02*
X016250Y004911D01*
X016250Y004752D02*
X016387Y004752D01*
X016387Y004594D02*
X016250Y004594D01*
X016250Y004435D02*
X016450Y004435D01*
X016515Y004277D02*
X016250Y004277D01*
X016250Y004118D02*
X016643Y004118D01*
X016802Y003960D02*
X016250Y003960D01*
X018663Y008398D02*
X032722Y008398D01*
X032672Y008556D02*
X018494Y008556D01*
X022467Y006654D02*
X022529Y006654D01*
X022616Y006179D02*
X022380Y006179D01*
X027514Y006179D02*
X030709Y006179D01*
X030541Y006020D02*
X027650Y006020D01*
X027679Y005862D02*
X030506Y005862D01*
X030547Y005703D02*
X027631Y005703D01*
X031042Y009032D02*
X032687Y009032D01*
X032672Y009190D02*
X031064Y009190D01*
X031911Y009349D02*
X032744Y009349D01*
X032719Y009507D02*
X032090Y009507D01*
X032127Y009666D02*
X032672Y009666D01*
X032700Y009824D02*
X032089Y009824D01*
X031904Y009983D02*
X032788Y009983D01*
X032684Y010141D02*
X031872Y010141D01*
X031891Y010300D02*
X032672Y010300D01*
X032751Y010458D02*
X031828Y010458D01*
X031558Y010617D02*
X032716Y010617D01*
X032672Y010775D02*
X032642Y010775D01*
X032354Y010775D02*
X031576Y010775D01*
X031510Y010934D02*
X032193Y010934D01*
X032160Y011092D02*
X029149Y011092D01*
X029027Y011251D02*
X032202Y011251D01*
X032405Y011409D02*
X031370Y011409D01*
X031419Y011568D02*
X032758Y011568D01*
X032713Y011726D02*
X031392Y011726D01*
X032565Y011420D02*
X032672Y011376D01*
X032672Y011409D01*
X033239Y011092D02*
X037869Y011092D01*
X037912Y010934D02*
X033316Y010934D01*
X033348Y010775D02*
X035921Y010775D01*
X035889Y010762D02*
X035794Y010667D01*
X035743Y010542D01*
X035743Y010408D01*
X035794Y010284D01*
X035889Y010189D01*
X036013Y010137D01*
X036148Y010137D01*
X036272Y010189D01*
X036367Y010284D01*
X036419Y010408D01*
X036419Y010542D01*
X036367Y010667D01*
X036272Y010762D01*
X036148Y010813D01*
X036013Y010813D01*
X035889Y010762D01*
X035773Y010617D02*
X033304Y010617D01*
X033269Y010458D02*
X035743Y010458D01*
X035787Y010300D02*
X033348Y010300D01*
X033335Y010141D02*
X036004Y010141D01*
X036158Y010141D02*
X036949Y010141D01*
X037102Y010141D02*
X045142Y010141D01*
X044955Y009983D02*
X033232Y009983D01*
X036240Y010775D02*
X036866Y010775D01*
X036718Y010617D02*
X036388Y010617D01*
X036419Y010458D02*
X036687Y010458D01*
X036732Y010300D02*
X036374Y010300D01*
X042341Y009824D02*
X044916Y009824D01*
X044953Y009666D02*
X042391Y009666D01*
X044515Y004277D02*
X033395Y004277D01*
X033617Y004118D02*
X034955Y004118D01*
X034850Y003960D02*
X033663Y003960D01*
X033633Y003801D02*
X034836Y003801D01*
X035394Y004118D02*
X035702Y004118D01*
X035598Y003960D02*
X035499Y003960D01*
X035513Y003801D02*
X035585Y003801D01*
X036144Y004118D02*
X036332Y004118D01*
X036774Y004118D02*
X037119Y004118D01*
X037015Y003960D02*
X036878Y003960D01*
X036891Y003801D02*
X037002Y003801D01*
X037562Y004118D02*
X037908Y004118D01*
X037803Y003960D02*
X037666Y003960D01*
X037679Y003801D02*
X037790Y003801D01*
X038348Y004118D02*
X044643Y004118D01*
X044802Y003960D02*
X038452Y003960D01*
X038466Y003801D02*
X045167Y003801D01*
X029895Y013787D02*
X029844Y013911D01*
X036969Y016957D02*
X042558Y016957D01*
X042494Y017115D02*
X037065Y017115D01*
X037069Y017274D02*
X042514Y017274D01*
X042626Y017432D02*
X036980Y017432D01*
X027503Y020285D02*
X027478Y020285D01*
X027483Y020761D02*
X027518Y020761D01*
M02*
