G75*
G70*
%OFA0B0*%
%FSLAX24Y24*%
%IPPOS*%
%LPD*%
%AMOC8*
5,1,8,0,0,1.08239X$1,22.5*
%
%ADD10C,0.0600*%
%ADD11C,0.0160*%
%ADD12C,0.0396*%
D10*
X027684Y021871D03*
D11*
X016250Y023838D02*
X016250Y003656D01*
X035650Y003656D01*
X035637Y003670D01*
X035585Y003794D01*
X035585Y003928D01*
X035637Y004053D01*
X035732Y004148D01*
X035856Y004199D01*
X035990Y004199D01*
X036115Y004148D01*
X036210Y004053D01*
X036261Y003928D01*
X036261Y003794D01*
X036210Y003670D01*
X036196Y003656D01*
X037068Y003656D01*
X037054Y003670D01*
X037002Y003794D01*
X037002Y003928D01*
X037054Y004053D01*
X037149Y004148D01*
X037273Y004199D01*
X037408Y004199D01*
X037532Y004148D01*
X037627Y004053D01*
X037679Y003928D01*
X037679Y003794D01*
X037627Y003670D01*
X037613Y003656D01*
X057129Y003656D01*
X057130Y028496D01*
X048561Y028496D01*
X044203Y028482D01*
X044203Y024779D01*
X016250Y024779D01*
X016250Y024413D01*
X016373Y024464D01*
X016507Y024464D01*
X016632Y024412D01*
X016727Y024317D01*
X016778Y024193D01*
X016778Y024058D01*
X016727Y023934D01*
X016632Y023839D01*
X016507Y023787D01*
X016373Y023787D01*
X016250Y023838D01*
X016250Y023772D02*
X030794Y023772D01*
X030794Y023788D02*
X030794Y023654D01*
X030845Y023530D01*
X030940Y023435D01*
X031065Y023383D01*
X031199Y023383D01*
X031323Y023435D01*
X031418Y023530D01*
X031470Y023654D01*
X031470Y023788D01*
X031418Y023913D01*
X031323Y024008D01*
X031199Y024059D01*
X031065Y024059D01*
X030940Y024008D01*
X030845Y023913D01*
X030794Y023788D01*
X030863Y023931D02*
X016723Y023931D01*
X016778Y024089D02*
X034443Y024089D01*
X034432Y024085D02*
X034337Y023990D01*
X034286Y023865D01*
X034286Y023731D01*
X034337Y023607D01*
X034432Y023511D01*
X034557Y023460D01*
X034691Y023460D01*
X034815Y023511D01*
X034911Y023607D01*
X034962Y023731D01*
X034962Y023865D01*
X034911Y023990D01*
X034815Y024085D01*
X034691Y024136D01*
X034557Y024136D01*
X034432Y024085D01*
X034313Y023931D02*
X031401Y023931D01*
X031470Y023772D02*
X034286Y023772D01*
X034334Y023614D02*
X031453Y023614D01*
X031344Y023455D02*
X052953Y023455D01*
X052920Y023488D02*
X053015Y023393D01*
X053139Y023342D01*
X053274Y023342D01*
X053398Y023393D01*
X053493Y023488D01*
X053545Y023613D01*
X053545Y023747D01*
X053493Y023871D01*
X053398Y023967D01*
X053274Y024018D01*
X053139Y024018D01*
X053015Y023967D01*
X052920Y023871D01*
X052869Y023747D01*
X052869Y023613D01*
X052920Y023488D01*
X052869Y023614D02*
X041606Y023614D01*
X041603Y023607D02*
X041655Y023731D01*
X041655Y023865D01*
X041603Y023990D01*
X041508Y024085D01*
X041384Y024136D01*
X041250Y024136D01*
X041125Y024085D01*
X041030Y023990D01*
X040979Y023865D01*
X040979Y023731D01*
X041030Y023607D01*
X041125Y023511D01*
X041250Y023460D01*
X041384Y023460D01*
X041508Y023511D01*
X041603Y023607D01*
X041655Y023772D02*
X052879Y023772D01*
X052979Y023931D02*
X041628Y023931D01*
X041498Y024089D02*
X057130Y024089D01*
X057130Y023931D02*
X053434Y023931D01*
X053534Y023772D02*
X057130Y023772D01*
X057130Y023614D02*
X053545Y023614D01*
X053460Y023455D02*
X057130Y023455D01*
X057130Y023297D02*
X016250Y023297D01*
X016250Y023455D02*
X030920Y023455D01*
X030810Y023614D02*
X016250Y023614D01*
X016755Y024248D02*
X057130Y024248D01*
X057130Y024406D02*
X016638Y024406D01*
X016250Y024565D02*
X057130Y024565D01*
X057130Y024723D02*
X016250Y024723D01*
X016250Y023138D02*
X057130Y023138D01*
X057130Y022980D02*
X016250Y022980D01*
X016250Y022821D02*
X057130Y022821D01*
X057130Y022663D02*
X016250Y022663D01*
X016250Y022504D02*
X057130Y022504D01*
X057130Y022346D02*
X016250Y022346D01*
X016250Y022187D02*
X027378Y022187D01*
X027434Y022244D02*
X027311Y022120D01*
X027244Y021958D01*
X027244Y021783D01*
X027311Y021622D01*
X027434Y021498D01*
X027596Y021431D01*
X027771Y021431D01*
X027933Y021498D01*
X028057Y021622D01*
X028124Y021783D01*
X028124Y021958D01*
X028057Y022120D01*
X027933Y022244D01*
X027771Y022311D01*
X027596Y022311D01*
X027434Y022244D01*
X027273Y022029D02*
X016250Y022029D01*
X016250Y021870D02*
X027244Y021870D01*
X027273Y021712D02*
X016250Y021712D01*
X016250Y021553D02*
X027379Y021553D01*
X027988Y021553D02*
X028160Y021553D01*
X028156Y021542D02*
X028156Y021408D01*
X028207Y021284D01*
X028302Y021189D01*
X028427Y021137D01*
X028561Y021137D01*
X028686Y021189D01*
X028781Y021284D01*
X028832Y021408D01*
X028832Y021542D01*
X028781Y021667D01*
X028686Y021762D01*
X028561Y021813D01*
X028427Y021813D01*
X028302Y021762D01*
X028207Y021667D01*
X028156Y021542D01*
X028161Y021395D02*
X016250Y021395D01*
X016250Y021236D02*
X028255Y021236D01*
X028252Y021712D02*
X028094Y021712D01*
X028124Y021870D02*
X031148Y021870D01*
X031148Y021841D02*
X031200Y021717D01*
X031295Y021622D01*
X031419Y021570D01*
X031553Y021570D01*
X031678Y021622D01*
X031773Y021717D01*
X031824Y021841D01*
X031824Y021976D01*
X031773Y022100D01*
X031678Y022195D01*
X031553Y022246D01*
X031419Y022246D01*
X031295Y022195D01*
X031200Y022100D01*
X031148Y021976D01*
X031148Y021841D01*
X031205Y021712D02*
X028736Y021712D01*
X028828Y021553D02*
X054540Y021553D01*
X054534Y021559D02*
X054629Y021464D01*
X054754Y021413D01*
X054888Y021413D01*
X055012Y021464D01*
X055107Y021559D01*
X055159Y021684D01*
X055159Y021818D01*
X055107Y021942D01*
X055012Y022037D01*
X054888Y022089D01*
X054754Y022089D01*
X054629Y022037D01*
X054534Y021942D01*
X054483Y021818D01*
X054483Y021684D01*
X054534Y021559D01*
X054483Y021712D02*
X031768Y021712D01*
X031824Y021870D02*
X054504Y021870D01*
X054620Y022029D02*
X031802Y022029D01*
X031685Y022187D02*
X057130Y022187D01*
X057130Y022029D02*
X055021Y022029D01*
X055137Y021870D02*
X057130Y021870D01*
X057130Y021712D02*
X055159Y021712D01*
X055101Y021553D02*
X057130Y021553D01*
X057130Y021395D02*
X028827Y021395D01*
X028733Y021236D02*
X031978Y021236D01*
X031975Y021234D02*
X031924Y021109D01*
X031924Y020975D01*
X031975Y020851D01*
X032070Y020755D01*
X032194Y020704D01*
X032329Y020704D01*
X032453Y020755D01*
X032548Y020851D01*
X032600Y020975D01*
X032600Y021109D01*
X032548Y021234D01*
X032453Y021329D01*
X032329Y021380D01*
X032194Y021380D01*
X032070Y021329D01*
X031975Y021234D01*
X031924Y021078D02*
X016250Y021078D01*
X016250Y020919D02*
X031947Y020919D01*
X032065Y020761D02*
X027983Y020761D01*
X027942Y020802D02*
X027818Y020853D01*
X027683Y020853D01*
X027559Y020802D01*
X027500Y020743D01*
X027432Y020812D01*
X027307Y020864D01*
X027173Y020864D01*
X027048Y020812D01*
X026953Y020717D01*
X026902Y020593D01*
X026902Y020458D01*
X026953Y020334D01*
X027048Y020239D01*
X027173Y020187D01*
X027307Y020187D01*
X027432Y020239D01*
X027490Y020298D01*
X027559Y020229D01*
X027683Y020177D01*
X027818Y020177D01*
X027942Y020229D01*
X028037Y020324D01*
X028089Y020448D01*
X028089Y020583D01*
X028037Y020707D01*
X027942Y020802D01*
X028081Y020602D02*
X057130Y020602D01*
X057130Y020444D02*
X028087Y020444D01*
X027998Y020285D02*
X057130Y020285D01*
X057130Y020127D02*
X033303Y020127D01*
X033336Y020094D02*
X033241Y020189D01*
X033116Y020240D01*
X032982Y020240D01*
X032858Y020189D01*
X032762Y020094D01*
X032711Y019970D01*
X032711Y019835D01*
X032723Y019805D01*
X032628Y019805D01*
X032503Y019754D01*
X032408Y019659D01*
X032357Y019535D01*
X032357Y019400D01*
X032408Y019276D01*
X032503Y019181D01*
X032628Y019129D01*
X032762Y019129D01*
X032886Y019181D01*
X032981Y019276D01*
X033033Y019400D01*
X033033Y019535D01*
X033021Y019564D01*
X033116Y019564D01*
X033241Y019616D01*
X033336Y019711D01*
X033387Y019835D01*
X033387Y019970D01*
X033336Y020094D01*
X033387Y019968D02*
X057130Y019968D01*
X057130Y019810D02*
X033377Y019810D01*
X033276Y019651D02*
X057129Y019651D01*
X057129Y019493D02*
X033033Y019493D01*
X033006Y019334D02*
X057129Y019334D01*
X057129Y019176D02*
X032874Y019176D01*
X032516Y019176D02*
X032120Y019176D01*
X032115Y019186D02*
X032020Y019282D01*
X031896Y019333D01*
X031761Y019333D01*
X031637Y019282D01*
X031542Y019186D01*
X031491Y019062D01*
X031491Y018928D01*
X031542Y018803D01*
X031637Y018708D01*
X031761Y018657D01*
X031896Y018657D01*
X032020Y018708D01*
X032115Y018803D01*
X032167Y018928D01*
X032167Y019062D01*
X032115Y019186D01*
X032167Y019017D02*
X057129Y019017D01*
X057129Y018859D02*
X032412Y018859D01*
X032408Y018861D02*
X032273Y018861D01*
X032149Y018809D01*
X032054Y018714D01*
X032002Y018590D01*
X032002Y018455D01*
X032054Y018331D01*
X032149Y018236D01*
X032273Y018184D01*
X032408Y018184D01*
X032532Y018236D01*
X032627Y018331D01*
X032679Y018455D01*
X032679Y018590D01*
X032627Y018714D01*
X032532Y018809D01*
X032408Y018861D01*
X032269Y018859D02*
X032138Y018859D01*
X032048Y018700D02*
X032001Y018700D01*
X032002Y018542D02*
X031748Y018542D01*
X031738Y018546D02*
X031604Y018546D01*
X031480Y018494D01*
X031385Y018399D01*
X031333Y018275D01*
X031333Y018140D01*
X031385Y018016D01*
X031480Y017921D01*
X031604Y017869D01*
X031738Y017869D01*
X031863Y017921D01*
X031958Y018016D01*
X032009Y018140D01*
X032009Y018275D01*
X031958Y018399D01*
X031863Y018494D01*
X031738Y018546D01*
X031594Y018542D02*
X030576Y018542D01*
X030569Y018539D02*
X030693Y018590D01*
X030789Y018685D01*
X030840Y018810D01*
X030840Y018944D01*
X030789Y019068D01*
X030693Y019163D01*
X030569Y019215D01*
X030435Y019215D01*
X030310Y019163D01*
X030215Y019068D01*
X030164Y018944D01*
X030164Y018810D01*
X030215Y018685D01*
X030310Y018590D01*
X030435Y018539D01*
X030569Y018539D01*
X030428Y018542D02*
X028702Y018542D01*
X028702Y018553D02*
X028651Y018677D01*
X028599Y018729D01*
X028657Y018787D01*
X028709Y018911D01*
X028709Y019045D01*
X028657Y019170D01*
X028612Y019214D01*
X028677Y019279D01*
X028729Y019403D01*
X028729Y019538D01*
X028677Y019662D01*
X028632Y019707D01*
X028677Y019751D01*
X028729Y019876D01*
X028729Y020010D01*
X028677Y020134D01*
X028582Y020230D01*
X028458Y020281D01*
X028323Y020281D01*
X028199Y020230D01*
X028104Y020134D01*
X028052Y020010D01*
X028052Y019876D01*
X028104Y019751D01*
X028149Y019707D01*
X028104Y019662D01*
X028052Y019538D01*
X028052Y019403D01*
X028104Y019279D01*
X028149Y019234D01*
X028084Y019170D01*
X028032Y019045D01*
X028032Y018911D01*
X028084Y018787D01*
X028135Y018735D01*
X028078Y018677D01*
X028026Y018553D01*
X028026Y018418D01*
X028078Y018294D01*
X028173Y018199D01*
X028297Y018147D01*
X028428Y018147D01*
X028365Y018084D01*
X028313Y017960D01*
X028313Y017825D01*
X028365Y017701D01*
X028460Y017606D01*
X028584Y017554D01*
X028719Y017554D01*
X028843Y017606D01*
X028938Y017701D01*
X028990Y017825D01*
X028990Y017960D01*
X028938Y018084D01*
X028843Y018179D01*
X028719Y018231D01*
X028587Y018231D01*
X028651Y018294D01*
X028702Y018418D01*
X028702Y018553D01*
X028628Y018700D02*
X030209Y018700D01*
X030164Y018859D02*
X028687Y018859D01*
X028709Y019017D02*
X030194Y019017D01*
X030340Y019176D02*
X028651Y019176D01*
X028700Y019334D02*
X032384Y019334D01*
X032357Y019493D02*
X028729Y019493D01*
X028682Y019651D02*
X032405Y019651D01*
X032722Y019810D02*
X028701Y019810D01*
X028729Y019968D02*
X032711Y019968D01*
X032795Y020127D02*
X028680Y020127D01*
X028101Y020127D02*
X017217Y020127D01*
X017247Y020097D02*
X017152Y020192D01*
X017027Y020244D01*
X016893Y020244D01*
X016768Y020192D01*
X016673Y020097D01*
X016622Y019973D01*
X016622Y019838D01*
X016673Y019714D01*
X016768Y019619D01*
X016893Y019567D01*
X017027Y019567D01*
X017152Y019619D01*
X017247Y019714D01*
X017298Y019838D01*
X017298Y019973D01*
X017247Y020097D01*
X017298Y019968D02*
X028052Y019968D01*
X028080Y019810D02*
X017286Y019810D01*
X017184Y019651D02*
X028099Y019651D01*
X028052Y019493D02*
X027471Y019493D01*
X027487Y019477D02*
X027392Y019572D01*
X027267Y019624D01*
X027133Y019624D01*
X027008Y019572D01*
X026913Y019477D01*
X026862Y019353D01*
X026862Y019218D01*
X026913Y019094D01*
X027008Y018999D01*
X027133Y018947D01*
X027267Y018947D01*
X027392Y018999D01*
X027487Y019094D01*
X027538Y019218D01*
X027538Y019353D01*
X027487Y019477D01*
X027538Y019334D02*
X028081Y019334D01*
X028090Y019176D02*
X027520Y019176D01*
X027410Y019017D02*
X028032Y019017D01*
X028054Y018859D02*
X016250Y018859D01*
X016250Y019017D02*
X026990Y019017D01*
X026880Y019176D02*
X016250Y019176D01*
X016250Y019334D02*
X026862Y019334D01*
X026929Y019493D02*
X016250Y019493D01*
X016250Y019651D02*
X016736Y019651D01*
X016634Y019810D02*
X016250Y019810D01*
X016250Y019968D02*
X016622Y019968D01*
X016703Y020127D02*
X016250Y020127D01*
X016250Y020285D02*
X027002Y020285D01*
X026908Y020444D02*
X016250Y020444D01*
X016250Y020602D02*
X026906Y020602D01*
X026997Y020761D02*
X016250Y020761D01*
X016250Y018700D02*
X028101Y018700D01*
X028026Y018542D02*
X016250Y018542D01*
X016250Y018383D02*
X028041Y018383D01*
X028147Y018225D02*
X016250Y018225D01*
X016250Y018066D02*
X028357Y018066D01*
X028313Y017908D02*
X016250Y017908D01*
X016250Y017749D02*
X027483Y017749D01*
X027476Y017746D02*
X027381Y017651D01*
X027329Y017527D01*
X027329Y017392D01*
X027381Y017268D01*
X027425Y017223D01*
X027381Y017179D01*
X027329Y017054D01*
X027329Y016920D01*
X027381Y016795D01*
X027419Y016757D01*
X027369Y016706D01*
X027317Y016582D01*
X027317Y016447D01*
X027369Y016323D01*
X027464Y016228D01*
X027588Y016176D01*
X027723Y016176D01*
X027847Y016228D01*
X027942Y016323D01*
X027994Y016447D01*
X027994Y016582D01*
X027942Y016706D01*
X027903Y016745D01*
X027954Y016795D01*
X028005Y016920D01*
X028005Y017054D01*
X027954Y017179D01*
X027909Y017223D01*
X027954Y017268D01*
X028005Y017392D01*
X028005Y017527D01*
X027954Y017651D01*
X027859Y017746D01*
X027734Y017798D01*
X027600Y017798D01*
X027476Y017746D01*
X027356Y017591D02*
X016250Y017591D01*
X016250Y017432D02*
X027329Y017432D01*
X027378Y017274D02*
X016250Y017274D01*
X016250Y017115D02*
X027354Y017115D01*
X027329Y016957D02*
X016250Y016957D01*
X016250Y016798D02*
X027380Y016798D01*
X027341Y016640D02*
X017204Y016640D01*
X017247Y016597D02*
X017152Y016692D01*
X017027Y016744D01*
X016893Y016744D01*
X016768Y016692D01*
X016673Y016597D01*
X016622Y016473D01*
X016622Y016338D01*
X016673Y016214D01*
X016768Y016119D01*
X016893Y016067D01*
X017027Y016067D01*
X017152Y016119D01*
X017247Y016214D01*
X017298Y016338D01*
X017298Y016473D01*
X017247Y016597D01*
X017295Y016481D02*
X027317Y016481D01*
X027369Y016323D02*
X017292Y016323D01*
X017197Y016164D02*
X057129Y016164D01*
X057129Y016006D02*
X016250Y016006D01*
X016250Y016164D02*
X016723Y016164D01*
X016628Y016323D02*
X016250Y016323D01*
X016250Y016481D02*
X016625Y016481D01*
X016716Y016640D02*
X016250Y016640D01*
X016250Y015847D02*
X057129Y015847D01*
X057129Y015689D02*
X016250Y015689D01*
X016250Y015530D02*
X057129Y015530D01*
X057129Y015372D02*
X016250Y015372D01*
X016250Y015213D02*
X057129Y015213D01*
X057129Y015055D02*
X016250Y015055D01*
X016250Y014896D02*
X057129Y014896D01*
X057129Y014738D02*
X018779Y014738D01*
X018792Y014732D02*
X018667Y014784D01*
X018533Y014784D01*
X018408Y014732D01*
X018313Y014637D01*
X018262Y014513D01*
X018262Y014378D01*
X018313Y014254D01*
X018408Y014159D01*
X018533Y014107D01*
X018667Y014107D01*
X018792Y014159D01*
X018887Y014254D01*
X018938Y014378D01*
X018938Y014513D01*
X018887Y014637D01*
X018792Y014732D01*
X018911Y014579D02*
X057129Y014579D01*
X057129Y014421D02*
X018938Y014421D01*
X018890Y014262D02*
X019192Y014262D01*
X019168Y014252D02*
X019073Y014157D01*
X019022Y014033D01*
X019022Y013898D01*
X019073Y013774D01*
X019168Y013679D01*
X019293Y013627D01*
X019427Y013627D01*
X019552Y013679D01*
X019647Y013774D01*
X019698Y013898D01*
X019698Y014033D01*
X019647Y014157D01*
X019552Y014252D01*
X019427Y014304D01*
X019293Y014304D01*
X019168Y014252D01*
X019051Y014104D02*
X016250Y014104D01*
X016250Y014262D02*
X018310Y014262D01*
X018262Y014421D02*
X016250Y014421D01*
X016250Y014579D02*
X018289Y014579D01*
X018421Y014738D02*
X016250Y014738D01*
X016250Y013945D02*
X019022Y013945D01*
X019068Y013787D02*
X016250Y013787D01*
X016250Y013628D02*
X019291Y013628D01*
X019429Y013628D02*
X020851Y013628D01*
X020853Y013627D02*
X020987Y013627D01*
X021112Y013679D01*
X021207Y013774D01*
X021258Y013898D01*
X021258Y014033D01*
X021207Y014157D01*
X021112Y014252D01*
X020987Y014304D01*
X020853Y014304D01*
X020728Y014252D01*
X020633Y014157D01*
X020582Y014033D01*
X020582Y013898D01*
X020633Y013774D01*
X020728Y013679D01*
X020853Y013627D01*
X020989Y013628D02*
X021651Y013628D01*
X021653Y013627D02*
X021787Y013627D01*
X021912Y013679D01*
X022007Y013774D01*
X022058Y013898D01*
X022058Y014033D01*
X022007Y014157D01*
X021912Y014252D01*
X021787Y014304D01*
X021653Y014304D01*
X021528Y014252D01*
X021433Y014157D01*
X021382Y014033D01*
X021382Y013898D01*
X021433Y013774D01*
X021528Y013679D01*
X021653Y013627D01*
X021789Y013628D02*
X025548Y013628D01*
X025553Y013614D02*
X025648Y013519D01*
X025773Y013467D01*
X025907Y013467D01*
X026032Y013519D01*
X026127Y013614D01*
X026178Y013738D01*
X026178Y013873D01*
X026127Y013997D01*
X026032Y014092D01*
X025907Y014144D01*
X025773Y014144D01*
X025648Y014092D01*
X025553Y013997D01*
X025502Y013873D01*
X025502Y013738D01*
X025553Y013614D01*
X025502Y013787D02*
X022012Y013787D01*
X022058Y013945D02*
X025532Y013945D01*
X025676Y014104D02*
X022029Y014104D01*
X021888Y014262D02*
X057129Y014262D01*
X057129Y014104D02*
X026004Y014104D01*
X026148Y013945D02*
X028832Y013945D01*
X028798Y013911D02*
X028746Y013787D01*
X026178Y013787D01*
X026288Y013692D02*
X026193Y013597D01*
X026142Y013473D01*
X026142Y013338D01*
X026193Y013214D01*
X026288Y013119D01*
X026413Y013067D01*
X026547Y013067D01*
X026672Y013119D01*
X026767Y013214D01*
X026818Y013338D01*
X026818Y013473D01*
X026767Y013597D01*
X026672Y013692D01*
X026547Y013744D01*
X026413Y013744D01*
X026288Y013692D01*
X026224Y013628D02*
X026132Y013628D01*
X026142Y013470D02*
X025912Y013470D01*
X025768Y013470D02*
X016250Y013470D01*
X016250Y013311D02*
X024972Y013311D01*
X024913Y013287D02*
X025037Y013338D01*
X025172Y013338D01*
X025296Y013287D01*
X025391Y013191D01*
X025443Y013067D01*
X025443Y012933D01*
X025391Y012808D01*
X025296Y012713D01*
X025172Y012662D01*
X025037Y012662D01*
X024913Y012713D01*
X024818Y012808D01*
X024766Y012933D01*
X024766Y013067D01*
X024818Y013191D01*
X024913Y013287D01*
X024802Y013153D02*
X016250Y013153D01*
X016250Y012994D02*
X024766Y012994D01*
X024807Y012836D02*
X016250Y012836D01*
X016250Y012677D02*
X025000Y012677D01*
X025209Y012677D02*
X029442Y012677D01*
X029455Y012646D02*
X029551Y012551D01*
X029675Y012499D01*
X029809Y012499D01*
X029934Y012551D01*
X030029Y012646D01*
X030080Y012770D01*
X030080Y012905D01*
X030029Y013029D01*
X029934Y013124D01*
X029809Y013176D01*
X029675Y013176D01*
X029551Y013124D01*
X029455Y013029D01*
X029404Y012905D01*
X029404Y012770D01*
X029455Y012646D01*
X029404Y012836D02*
X025402Y012836D01*
X025443Y012994D02*
X029441Y012994D01*
X029619Y013153D02*
X026705Y013153D01*
X026807Y013311D02*
X057129Y013311D01*
X057129Y013153D02*
X029865Y013153D01*
X030043Y012994D02*
X057129Y012994D01*
X057129Y012836D02*
X030080Y012836D01*
X030042Y012677D02*
X032765Y012677D01*
X032723Y012635D02*
X032672Y012511D01*
X032672Y012376D01*
X032723Y012252D01*
X032807Y012168D01*
X032723Y012084D01*
X032672Y011960D01*
X032672Y011825D01*
X032723Y011701D01*
X032807Y011617D01*
X032723Y011533D01*
X032672Y011409D01*
X032591Y011409D01*
X032565Y011420D02*
X032431Y011420D01*
X032306Y011368D01*
X032211Y011273D01*
X032160Y011149D01*
X032160Y011014D01*
X032211Y010890D01*
X032306Y010795D01*
X032431Y010743D01*
X032565Y010743D01*
X032672Y010787D01*
X032672Y010723D01*
X032723Y010599D01*
X032807Y010515D01*
X032723Y010431D01*
X032672Y010306D01*
X032672Y010172D01*
X032723Y010047D01*
X032807Y009963D01*
X032723Y009879D01*
X032672Y009755D01*
X032672Y009621D01*
X032723Y009496D01*
X032818Y009401D01*
X032943Y009350D01*
X033077Y009350D01*
X033201Y009401D01*
X033296Y009496D01*
X033348Y009621D01*
X033348Y009755D01*
X033296Y009879D01*
X033212Y009963D01*
X033296Y010047D01*
X033348Y010172D01*
X033348Y010306D01*
X033296Y010431D01*
X033212Y010515D01*
X033296Y010599D01*
X033348Y010723D01*
X033348Y010857D01*
X033296Y010982D01*
X033212Y011066D01*
X033296Y011150D01*
X033348Y011274D01*
X033348Y011409D01*
X038057Y011409D01*
X038015Y011392D02*
X037920Y011297D01*
X037869Y011172D01*
X037869Y011038D01*
X037920Y010914D01*
X038015Y010818D01*
X038139Y010767D01*
X038274Y010767D01*
X038398Y010818D01*
X038493Y010914D01*
X038545Y011038D01*
X038545Y011172D01*
X038493Y011297D01*
X038398Y011392D01*
X038274Y011443D01*
X038139Y011443D01*
X038015Y011392D01*
X038038Y011476D02*
X038162Y011527D01*
X038257Y011622D01*
X038309Y011747D01*
X038309Y011881D01*
X038257Y012005D01*
X038162Y012100D01*
X038038Y012152D01*
X037903Y012152D01*
X037779Y012100D01*
X037684Y012005D01*
X037632Y011881D01*
X037632Y011747D01*
X037684Y011622D01*
X037779Y011527D01*
X037903Y011476D01*
X038038Y011476D01*
X038202Y011568D02*
X040825Y011568D01*
X040850Y011543D02*
X040974Y011491D01*
X041109Y011491D01*
X041233Y011543D01*
X041328Y011638D01*
X041379Y011762D01*
X041379Y011897D01*
X041328Y012021D01*
X041233Y012116D01*
X041109Y012168D01*
X040974Y012168D01*
X040850Y012116D01*
X040755Y012021D01*
X040703Y011897D01*
X040703Y011762D01*
X040755Y011638D01*
X040850Y011543D01*
X040718Y011726D02*
X038300Y011726D01*
X038307Y011885D02*
X040703Y011885D01*
X040777Y012043D02*
X038219Y012043D01*
X037722Y012043D02*
X035314Y012043D01*
X035316Y012039D02*
X035265Y012163D01*
X035170Y012258D01*
X035046Y012309D01*
X034911Y012309D01*
X034787Y012258D01*
X034692Y012163D01*
X034640Y012039D01*
X034640Y011904D01*
X034692Y011780D01*
X034787Y011685D01*
X034911Y011633D01*
X035046Y011633D01*
X035170Y011685D01*
X035265Y011780D01*
X035316Y011904D01*
X035316Y012039D01*
X035308Y011885D02*
X037634Y011885D01*
X037641Y011726D02*
X035211Y011726D01*
X034745Y011726D02*
X033307Y011726D01*
X033296Y011701D02*
X033348Y011825D01*
X033348Y011960D01*
X033296Y012084D01*
X033212Y012168D01*
X033296Y012252D01*
X033348Y012376D01*
X033348Y012511D01*
X033296Y012635D01*
X033201Y012730D01*
X033077Y012782D01*
X032943Y012782D01*
X032818Y012730D01*
X032723Y012635D01*
X032675Y012519D02*
X029856Y012519D01*
X029628Y012519D02*
X016250Y012519D01*
X016250Y012360D02*
X026567Y012360D01*
X026602Y012394D02*
X026506Y012299D01*
X026455Y012175D01*
X026455Y012040D01*
X026506Y011916D01*
X026602Y011821D01*
X026726Y011770D01*
X026756Y011770D01*
X026727Y011700D01*
X026727Y011565D01*
X026778Y011441D01*
X026873Y011346D01*
X026998Y011295D01*
X027132Y011295D01*
X027256Y011346D01*
X027285Y011375D01*
X027290Y011362D01*
X027385Y011267D01*
X027509Y011216D01*
X027644Y011216D01*
X027768Y011267D01*
X027863Y011362D01*
X027915Y011487D01*
X027915Y011621D01*
X027863Y011745D01*
X027768Y011841D01*
X027728Y011857D01*
X027729Y011858D01*
X027824Y011953D01*
X027875Y012077D01*
X027875Y012212D01*
X027824Y012336D01*
X027729Y012431D01*
X027605Y012483D01*
X027470Y012483D01*
X027346Y012431D01*
X027251Y012336D01*
X027199Y012212D01*
X027199Y012077D01*
X027251Y011953D01*
X027346Y011858D01*
X027386Y011841D01*
X027385Y011841D01*
X027357Y011812D01*
X027352Y011824D01*
X027256Y011919D01*
X027132Y011971D01*
X027102Y011971D01*
X027131Y012040D01*
X027131Y012175D01*
X027080Y012299D01*
X026985Y012394D01*
X026860Y012446D01*
X026726Y012446D01*
X026602Y012394D01*
X026466Y012202D02*
X016250Y012202D01*
X016250Y012043D02*
X019809Y012043D01*
X019810Y012045D02*
X019758Y011920D01*
X019758Y011786D01*
X019810Y011662D01*
X019905Y011567D01*
X020029Y011515D01*
X020164Y011515D01*
X020288Y011567D01*
X020383Y011662D01*
X020434Y011786D01*
X020434Y011920D01*
X020383Y012045D01*
X020288Y012140D01*
X020164Y012191D01*
X020029Y012191D01*
X019905Y012140D01*
X019810Y012045D01*
X019758Y011885D02*
X016250Y011885D01*
X016250Y011726D02*
X019783Y011726D01*
X019904Y011568D02*
X016250Y011568D01*
X016250Y011409D02*
X026810Y011409D01*
X026727Y011568D02*
X020289Y011568D01*
X020410Y011726D02*
X026738Y011726D01*
X026538Y011885D02*
X020434Y011885D01*
X020384Y012043D02*
X026455Y012043D01*
X027019Y012360D02*
X027275Y012360D01*
X027199Y012202D02*
X027120Y012202D01*
X027131Y012043D02*
X027213Y012043D01*
X027291Y011885D02*
X027319Y011885D01*
X027756Y011885D02*
X030900Y011885D01*
X030889Y011880D02*
X030794Y011785D01*
X030743Y011661D01*
X030743Y011526D01*
X030794Y011402D01*
X030889Y011307D01*
X031013Y011255D01*
X031148Y011255D01*
X031272Y011307D01*
X031367Y011402D01*
X031419Y011526D01*
X031419Y011661D01*
X031367Y011785D01*
X031272Y011880D01*
X031148Y011931D01*
X031013Y011931D01*
X030889Y011880D01*
X030770Y011726D02*
X027871Y011726D01*
X027915Y011568D02*
X030743Y011568D01*
X030791Y011409D02*
X027883Y011409D01*
X027943Y011341D02*
X027818Y011289D01*
X027723Y011194D01*
X027672Y011070D01*
X027672Y010936D01*
X027723Y010811D01*
X027818Y010716D01*
X027943Y010665D01*
X028077Y010665D01*
X028201Y010716D01*
X028296Y010811D01*
X028348Y010936D01*
X028348Y011070D01*
X028296Y011194D01*
X028201Y011289D01*
X028077Y011341D01*
X027943Y011341D01*
X027779Y011251D02*
X027728Y011251D01*
X027681Y011092D02*
X026312Y011092D01*
X026328Y011076D02*
X026233Y011171D01*
X026109Y011223D01*
X025974Y011223D01*
X025850Y011171D01*
X025755Y011076D01*
X025703Y010952D01*
X025703Y010830D01*
X025623Y010830D01*
X025499Y010778D01*
X025403Y010683D01*
X025352Y010559D01*
X025352Y010424D01*
X025403Y010300D01*
X025499Y010205D01*
X025623Y010153D01*
X025757Y010153D01*
X025882Y010205D01*
X025977Y010300D01*
X026028Y010424D01*
X026028Y010547D01*
X026109Y010547D01*
X026233Y010598D01*
X026328Y010693D01*
X026379Y010817D01*
X026379Y010952D01*
X026328Y011076D01*
X026379Y010934D02*
X027672Y010934D01*
X027759Y010775D02*
X026362Y010775D01*
X026251Y010617D02*
X030918Y010617D01*
X030900Y010660D02*
X030951Y010536D01*
X031047Y010441D01*
X031171Y010389D01*
X031243Y010389D01*
X031215Y010322D01*
X031215Y010187D01*
X031266Y010063D01*
X031362Y009968D01*
X031486Y009917D01*
X031564Y009917D01*
X031503Y009856D01*
X031451Y009731D01*
X031451Y009597D01*
X031503Y009473D01*
X031598Y009378D01*
X031722Y009326D01*
X031857Y009326D01*
X031981Y009378D01*
X032076Y009473D01*
X032127Y009597D01*
X032127Y009731D01*
X032076Y009856D01*
X031981Y009951D01*
X031857Y010002D01*
X031779Y010002D01*
X031840Y010063D01*
X031891Y010187D01*
X031891Y010322D01*
X031840Y010446D01*
X031745Y010541D01*
X031620Y010593D01*
X031548Y010593D01*
X031576Y010660D01*
X031576Y010794D01*
X031525Y010919D01*
X031430Y011014D01*
X031305Y011065D01*
X031171Y011065D01*
X031047Y011014D01*
X030951Y010919D01*
X030900Y010794D01*
X030900Y010660D01*
X030900Y010775D02*
X029125Y010775D01*
X029123Y010772D02*
X029175Y010896D01*
X029175Y011031D01*
X029123Y011155D01*
X029028Y011250D01*
X028904Y011302D01*
X028769Y011302D01*
X028645Y011250D01*
X028550Y011155D01*
X028498Y011031D01*
X028498Y010896D01*
X028550Y010772D01*
X028645Y010677D01*
X028769Y010625D01*
X028904Y010625D01*
X029028Y010677D01*
X029123Y010772D01*
X029175Y010934D02*
X030966Y010934D01*
X031029Y010458D02*
X028442Y010458D01*
X028454Y010446D02*
X028359Y010541D01*
X028234Y010593D01*
X028100Y010593D01*
X027976Y010541D01*
X027881Y010446D01*
X027829Y010322D01*
X027829Y010284D01*
X027808Y010305D01*
X027683Y010357D01*
X027549Y010357D01*
X027425Y010305D01*
X027329Y010210D01*
X027278Y010086D01*
X027278Y009951D01*
X027329Y009827D01*
X027425Y009732D01*
X027549Y009680D01*
X027683Y009680D01*
X027808Y009732D01*
X027903Y009827D01*
X027954Y009951D01*
X027954Y009990D01*
X027976Y009968D01*
X028100Y009917D01*
X028234Y009917D01*
X028359Y009968D01*
X028454Y010063D01*
X028505Y010187D01*
X028505Y010322D01*
X028454Y010446D01*
X028505Y010300D02*
X031215Y010300D01*
X031234Y010141D02*
X028486Y010141D01*
X028373Y009983D02*
X031347Y009983D01*
X031490Y009824D02*
X028954Y009824D01*
X028904Y009845D02*
X028769Y009845D01*
X028645Y009793D01*
X028550Y009698D01*
X028498Y009574D01*
X028498Y009439D01*
X028550Y009315D01*
X028645Y009220D01*
X028769Y009169D01*
X028904Y009169D01*
X029028Y009220D01*
X029123Y009315D01*
X029175Y009439D01*
X029175Y009574D01*
X029123Y009698D01*
X029028Y009793D01*
X028904Y009845D01*
X028719Y009824D02*
X027900Y009824D01*
X027954Y009983D02*
X027961Y009983D01*
X027829Y010300D02*
X027813Y010300D01*
X027892Y010458D02*
X026028Y010458D01*
X025976Y010300D02*
X027419Y010300D01*
X027301Y010141D02*
X019578Y010141D01*
X019556Y010194D02*
X019608Y010070D01*
X019608Y009936D01*
X019556Y009811D01*
X019461Y009716D01*
X019337Y009665D01*
X019202Y009665D01*
X019078Y009716D01*
X018983Y009811D01*
X018931Y009936D01*
X018931Y010070D01*
X018983Y010194D01*
X019078Y010289D01*
X019202Y010341D01*
X019337Y010341D01*
X019461Y010289D01*
X019556Y010194D01*
X019436Y010300D02*
X025404Y010300D01*
X025352Y010458D02*
X016250Y010458D01*
X016250Y010300D02*
X019103Y010300D01*
X018961Y010141D02*
X016250Y010141D01*
X016250Y009983D02*
X018931Y009983D01*
X018978Y009824D02*
X016250Y009824D01*
X016250Y009666D02*
X019200Y009666D01*
X019339Y009666D02*
X028536Y009666D01*
X028498Y009507D02*
X016250Y009507D01*
X016250Y009349D02*
X028536Y009349D01*
X028717Y009190D02*
X016250Y009190D01*
X016250Y009032D02*
X030410Y009032D01*
X030388Y009085D02*
X030440Y008961D01*
X030535Y008866D01*
X030659Y008814D01*
X030794Y008814D01*
X030918Y008866D01*
X031013Y008961D01*
X031064Y009085D01*
X031064Y009220D01*
X031013Y009344D01*
X030918Y009439D01*
X030794Y009490D01*
X030659Y009490D01*
X030535Y009439D01*
X030440Y009344D01*
X030388Y009220D01*
X030388Y009085D01*
X030388Y009190D02*
X028956Y009190D01*
X029137Y009349D02*
X030444Y009349D01*
X031008Y009349D02*
X031668Y009349D01*
X031488Y009507D02*
X029175Y009507D01*
X029137Y009666D02*
X031451Y009666D01*
X031904Y009983D02*
X032788Y009983D01*
X032700Y009824D02*
X032089Y009824D01*
X032127Y009666D02*
X032672Y009666D01*
X032719Y009507D02*
X032090Y009507D01*
X031911Y009349D02*
X035191Y009349D01*
X035191Y009361D02*
X035191Y009227D01*
X035243Y009103D01*
X035338Y009007D01*
X035462Y008956D01*
X035597Y008956D01*
X035721Y009007D01*
X035816Y009103D01*
X035868Y009227D01*
X035868Y009361D01*
X035816Y009486D01*
X035721Y009581D01*
X035597Y009632D01*
X035462Y009632D01*
X035338Y009581D01*
X035243Y009486D01*
X035191Y009361D01*
X035264Y009507D02*
X033301Y009507D01*
X033348Y009666D02*
X044953Y009666D01*
X044967Y009630D02*
X045062Y009535D01*
X045187Y009484D01*
X045321Y009484D01*
X045445Y009535D01*
X045540Y009630D01*
X045592Y009754D01*
X045592Y009889D01*
X045540Y010013D01*
X045445Y010108D01*
X045321Y010160D01*
X045187Y010160D01*
X045062Y010108D01*
X044967Y010013D01*
X044916Y009889D01*
X044916Y009754D01*
X044967Y009630D01*
X044916Y009824D02*
X033319Y009824D01*
X033232Y009983D02*
X044955Y009983D01*
X045142Y010141D02*
X033335Y010141D01*
X033348Y010300D02*
X057129Y010300D01*
X057129Y010458D02*
X033269Y010458D01*
X033304Y010617D02*
X046764Y010617D01*
X046767Y010614D02*
X046891Y010562D01*
X047026Y010562D01*
X047150Y010614D01*
X047234Y010698D01*
X047318Y010614D01*
X047443Y010562D01*
X047577Y010562D01*
X047701Y010614D01*
X047766Y010678D01*
X047830Y010614D01*
X047954Y010562D01*
X048089Y010562D01*
X048213Y010614D01*
X048308Y010709D01*
X048360Y010833D01*
X048360Y010968D01*
X048308Y011092D01*
X057129Y011092D01*
X057129Y010934D02*
X048360Y010934D01*
X048336Y010775D02*
X057129Y010775D01*
X057129Y010617D02*
X048216Y010617D01*
X047827Y010617D02*
X047704Y010617D01*
X047315Y010617D02*
X047153Y010617D01*
X046767Y010614D02*
X046672Y010709D01*
X046620Y010833D01*
X046620Y010968D01*
X046672Y011092D01*
X046767Y011187D01*
X046891Y011239D01*
X047026Y011239D01*
X047150Y011187D01*
X047234Y011103D01*
X047318Y011187D01*
X047443Y011239D01*
X047577Y011239D01*
X047701Y011187D01*
X047766Y011123D01*
X047830Y011187D01*
X047954Y011239D01*
X048089Y011239D01*
X048213Y011187D01*
X048308Y011092D01*
X046672Y011092D02*
X038545Y011092D01*
X038512Y011251D02*
X057129Y011251D01*
X057129Y011409D02*
X038356Y011409D01*
X037901Y011251D02*
X033338Y011251D01*
X033348Y011409D02*
X033296Y011533D01*
X033212Y011617D01*
X033296Y011701D01*
X033262Y011568D02*
X037738Y011568D01*
X037869Y011092D02*
X033239Y011092D01*
X033316Y010934D02*
X037912Y010934D01*
X038120Y010775D02*
X033348Y010775D01*
X032716Y010617D02*
X031558Y010617D01*
X031576Y010775D02*
X032354Y010775D01*
X032193Y010934D02*
X031510Y010934D01*
X031828Y010458D02*
X032751Y010458D01*
X032672Y010300D02*
X031891Y010300D01*
X031872Y010141D02*
X032684Y010141D01*
X032672Y010775D02*
X032642Y010775D01*
X032160Y011092D02*
X029149Y011092D01*
X029027Y011251D02*
X032202Y011251D01*
X032405Y011409D02*
X031370Y011409D01*
X031419Y011568D02*
X032758Y011568D01*
X032713Y011726D02*
X031392Y011726D01*
X031261Y011885D02*
X032672Y011885D01*
X032706Y012043D02*
X027861Y012043D01*
X027875Y012202D02*
X032774Y012202D01*
X032678Y012360D02*
X027800Y012360D01*
X028893Y013433D02*
X029017Y013381D01*
X029152Y013381D01*
X029276Y013433D01*
X029321Y013477D01*
X029365Y013433D01*
X029490Y013381D01*
X029624Y013381D01*
X029749Y013433D01*
X029844Y013528D01*
X029895Y013652D01*
X029895Y013787D01*
X057129Y013787D01*
X057129Y013945D02*
X029809Y013945D01*
X029844Y013911D02*
X029749Y014006D01*
X029624Y014057D01*
X029490Y014057D01*
X029365Y014006D01*
X029321Y013961D01*
X029276Y014006D01*
X029152Y014057D01*
X029017Y014057D01*
X028893Y014006D01*
X028798Y013911D01*
X028746Y013787D02*
X028746Y013652D01*
X028798Y013528D01*
X028893Y013433D01*
X028856Y013470D02*
X026818Y013470D01*
X026736Y013628D02*
X028756Y013628D01*
X029313Y013470D02*
X029329Y013470D01*
X029785Y013470D02*
X057129Y013470D01*
X057129Y013628D02*
X029885Y013628D01*
X029895Y013787D02*
X029844Y013911D01*
X031007Y016228D02*
X031131Y016176D01*
X031266Y016176D01*
X031390Y016228D01*
X031485Y016323D01*
X031537Y016447D01*
X031537Y016582D01*
X031485Y016706D01*
X031447Y016745D01*
X031497Y016795D01*
X031549Y016920D01*
X031549Y017054D01*
X031497Y017179D01*
X031452Y017223D01*
X031497Y017268D01*
X031549Y017392D01*
X031549Y017527D01*
X031497Y017651D01*
X031402Y017746D01*
X031278Y017798D01*
X031143Y017798D01*
X031019Y017746D01*
X030924Y017651D01*
X030872Y017527D01*
X030872Y017392D01*
X030924Y017268D01*
X030969Y017223D01*
X030924Y017179D01*
X030872Y017054D01*
X030872Y016920D01*
X030924Y016795D01*
X030963Y016757D01*
X030912Y016706D01*
X030861Y016582D01*
X030861Y016447D01*
X030912Y016323D01*
X031007Y016228D01*
X030913Y016323D02*
X027942Y016323D01*
X027994Y016481D02*
X030861Y016481D01*
X030885Y016640D02*
X027970Y016640D01*
X027955Y016798D02*
X030923Y016798D01*
X030872Y016957D02*
X028005Y016957D01*
X027980Y017115D02*
X030898Y017115D01*
X030922Y017274D02*
X027956Y017274D01*
X028005Y017432D02*
X030872Y017432D01*
X030899Y017591D02*
X028806Y017591D01*
X028958Y017749D02*
X031026Y017749D01*
X031395Y017749D02*
X034402Y017749D01*
X034462Y017774D02*
X034338Y017722D01*
X034243Y017627D01*
X034191Y017503D01*
X034191Y017369D01*
X034243Y017244D01*
X034338Y017149D01*
X034462Y017098D01*
X034597Y017098D01*
X034721Y017149D01*
X034816Y017244D01*
X034868Y017369D01*
X034868Y017503D01*
X034816Y017627D01*
X034721Y017722D01*
X034597Y017774D01*
X034462Y017774D01*
X034657Y017749D02*
X057129Y017749D01*
X057129Y017591D02*
X040912Y017591D01*
X040915Y017588D02*
X040819Y017683D01*
X040695Y017735D01*
X040561Y017735D01*
X040436Y017683D01*
X040341Y017588D01*
X040290Y017464D01*
X040290Y017329D01*
X040341Y017205D01*
X040436Y017110D01*
X040561Y017058D01*
X040695Y017058D01*
X040819Y017110D01*
X040915Y017205D01*
X040966Y017329D01*
X040966Y017464D01*
X040915Y017588D01*
X040966Y017432D02*
X043650Y017432D01*
X043665Y017447D02*
X043570Y017352D01*
X043518Y017228D01*
X043518Y017093D01*
X043570Y016969D01*
X043665Y016874D01*
X043789Y016822D01*
X043923Y016822D01*
X044048Y016874D01*
X044143Y016969D01*
X044194Y017093D01*
X044194Y017228D01*
X044143Y017352D01*
X044048Y017447D01*
X043923Y017498D01*
X043789Y017498D01*
X043665Y017447D01*
X043537Y017274D02*
X040943Y017274D01*
X040825Y017115D02*
X043518Y017115D01*
X043582Y016957D02*
X037993Y016957D01*
X037949Y016913D02*
X038044Y017008D01*
X038096Y017132D01*
X038096Y017267D01*
X038044Y017391D01*
X037949Y017486D01*
X037825Y017538D01*
X037691Y017538D01*
X037566Y017486D01*
X037471Y017391D01*
X037420Y017267D01*
X037420Y017132D01*
X037471Y017008D01*
X037566Y016913D01*
X037691Y016862D01*
X037825Y016862D01*
X037949Y016913D01*
X038089Y017115D02*
X040431Y017115D01*
X040313Y017274D02*
X038093Y017274D01*
X038003Y017432D02*
X040290Y017432D01*
X040344Y017591D02*
X034831Y017591D01*
X034868Y017432D02*
X037512Y017432D01*
X037422Y017274D02*
X034828Y017274D01*
X034639Y017115D02*
X037427Y017115D01*
X037523Y016957D02*
X031549Y016957D01*
X031523Y017115D02*
X034420Y017115D01*
X034231Y017274D02*
X031500Y017274D01*
X031549Y017432D02*
X034191Y017432D01*
X034228Y017591D02*
X031522Y017591D01*
X031512Y017908D02*
X028990Y017908D01*
X028946Y018066D02*
X031364Y018066D01*
X031333Y018225D02*
X028733Y018225D01*
X028688Y018383D02*
X031378Y018383D01*
X031657Y018700D02*
X030795Y018700D01*
X030840Y018859D02*
X031519Y018859D01*
X031491Y019017D02*
X030810Y019017D01*
X030664Y019176D02*
X031538Y019176D01*
X031964Y018383D02*
X032032Y018383D01*
X032009Y018225D02*
X032176Y018225D01*
X031979Y018066D02*
X057129Y018066D01*
X057129Y017908D02*
X031831Y017908D01*
X032505Y018225D02*
X057129Y018225D01*
X057129Y018383D02*
X032649Y018383D01*
X032679Y018542D02*
X057129Y018542D01*
X057129Y018700D02*
X032633Y018700D01*
X032982Y020704D02*
X033116Y020704D01*
X033241Y020755D01*
X033336Y020851D01*
X033387Y020975D01*
X033387Y021109D01*
X033336Y021234D01*
X033241Y021329D01*
X033116Y021380D01*
X032982Y021380D01*
X032858Y021329D01*
X032762Y021234D01*
X032711Y021109D01*
X032711Y020975D01*
X032762Y020851D01*
X032858Y020755D01*
X032982Y020704D01*
X032852Y020761D02*
X032458Y020761D01*
X032577Y020919D02*
X032734Y020919D01*
X032711Y021078D02*
X032600Y021078D01*
X032546Y021236D02*
X032765Y021236D01*
X033333Y021236D02*
X035127Y021236D01*
X035125Y021234D02*
X035073Y021109D01*
X035073Y020975D01*
X035125Y020851D01*
X035220Y020755D01*
X035344Y020704D01*
X035479Y020704D01*
X035603Y020755D01*
X035698Y020851D01*
X035749Y020975D01*
X035749Y021109D01*
X035698Y021234D01*
X035603Y021329D01*
X035479Y021380D01*
X035344Y021380D01*
X035220Y021329D01*
X035125Y021234D01*
X035073Y021078D02*
X033387Y021078D01*
X033364Y020919D02*
X035096Y020919D01*
X035215Y020761D02*
X033246Y020761D01*
X035608Y020761D02*
X039939Y020761D01*
X039944Y020755D02*
X040068Y020704D01*
X040203Y020704D01*
X040327Y020755D01*
X040422Y020851D01*
X040474Y020975D01*
X040474Y021109D01*
X040422Y021234D01*
X040327Y021329D01*
X040203Y021380D01*
X040068Y021380D01*
X039944Y021329D01*
X039849Y021234D01*
X039798Y021109D01*
X039798Y020975D01*
X039849Y020851D01*
X039944Y020755D01*
X039821Y020919D02*
X035726Y020919D01*
X035749Y021078D02*
X039798Y021078D01*
X039852Y021236D02*
X035696Y021236D01*
X034914Y023614D02*
X041027Y023614D01*
X040979Y023772D02*
X034962Y023772D01*
X034935Y023931D02*
X041006Y023931D01*
X041136Y024089D02*
X034805Y024089D01*
X031287Y022187D02*
X027990Y022187D01*
X028095Y022029D02*
X031170Y022029D01*
X027518Y020761D02*
X027483Y020761D01*
X027478Y020285D02*
X027503Y020285D01*
X027851Y017749D02*
X028345Y017749D01*
X028497Y017591D02*
X027979Y017591D01*
X031498Y016798D02*
X057129Y016798D01*
X057129Y016640D02*
X031513Y016640D01*
X031537Y016481D02*
X057129Y016481D01*
X057129Y016323D02*
X031485Y016323D01*
X033255Y012677D02*
X057129Y012677D01*
X057129Y012519D02*
X033345Y012519D01*
X033341Y012360D02*
X057129Y012360D01*
X057129Y012202D02*
X043352Y012202D01*
X043308Y012246D02*
X043183Y012298D01*
X043049Y012298D01*
X042925Y012246D01*
X042829Y012151D01*
X042778Y012027D01*
X042778Y011892D01*
X042829Y011768D01*
X042925Y011673D01*
X043049Y011621D01*
X043183Y011621D01*
X043308Y011673D01*
X043403Y011768D01*
X043454Y011892D01*
X043454Y012027D01*
X043403Y012151D01*
X043308Y012246D01*
X043447Y012043D02*
X057129Y012043D01*
X057129Y011885D02*
X043451Y011885D01*
X043361Y011726D02*
X057129Y011726D01*
X057129Y011568D02*
X041257Y011568D01*
X041364Y011726D02*
X042871Y011726D01*
X042781Y011885D02*
X041379Y011885D01*
X041306Y012043D02*
X042785Y012043D01*
X042880Y012202D02*
X035226Y012202D01*
X034730Y012202D02*
X033246Y012202D01*
X033313Y012043D02*
X034642Y012043D01*
X034648Y011885D02*
X033348Y011885D01*
X032672Y011409D02*
X032672Y011376D01*
X032565Y011420D01*
X035795Y009507D02*
X045130Y009507D01*
X045378Y009507D02*
X057129Y009507D01*
X057129Y009349D02*
X035868Y009349D01*
X035852Y009190D02*
X057129Y009190D01*
X057129Y009032D02*
X035745Y009032D01*
X035314Y009032D02*
X031042Y009032D01*
X031064Y009190D02*
X035207Y009190D01*
X034652Y007191D02*
X034517Y007191D01*
X034393Y007140D01*
X034298Y007045D01*
X034246Y006920D01*
X034246Y006786D01*
X034298Y006662D01*
X034393Y006567D01*
X034517Y006515D01*
X034652Y006515D01*
X034776Y006567D01*
X034871Y006662D01*
X034923Y006786D01*
X034923Y006920D01*
X034871Y007045D01*
X034776Y007140D01*
X034652Y007191D01*
X034786Y007130D02*
X037732Y007130D01*
X037711Y007078D02*
X037711Y006943D01*
X037762Y006819D01*
X037858Y006724D01*
X037982Y006673D01*
X038116Y006673D01*
X038241Y006724D01*
X038336Y006819D01*
X038387Y006943D01*
X038387Y007078D01*
X038336Y007202D01*
X038241Y007297D01*
X038116Y007349D01*
X037982Y007349D01*
X037858Y007297D01*
X037762Y007202D01*
X037711Y007078D01*
X037711Y006971D02*
X034902Y006971D01*
X034923Y006813D02*
X037769Y006813D01*
X037848Y007288D02*
X021837Y007288D01*
X021858Y007338D02*
X021807Y007214D01*
X021712Y007119D01*
X021587Y007067D01*
X021453Y007067D01*
X021328Y007119D01*
X021233Y007214D01*
X021182Y007338D01*
X021182Y007467D01*
X021053Y007467D01*
X020928Y007519D01*
X020833Y007614D01*
X020782Y007738D01*
X020782Y007873D01*
X020833Y007997D01*
X020928Y008092D01*
X021053Y008144D01*
X021187Y008144D01*
X021312Y008092D01*
X021407Y007997D01*
X021458Y007873D01*
X021458Y007744D01*
X021587Y007744D01*
X021712Y007692D01*
X021807Y007597D01*
X021858Y007473D01*
X021858Y007338D01*
X021858Y007447D02*
X038159Y007447D01*
X038173Y007433D02*
X038297Y007381D01*
X038431Y007381D01*
X038556Y007433D01*
X038651Y007528D01*
X038702Y007652D01*
X038702Y007787D01*
X038651Y007911D01*
X038556Y008006D01*
X038431Y008057D01*
X038297Y008057D01*
X038173Y008006D01*
X038077Y007911D01*
X038026Y007787D01*
X038026Y007652D01*
X038077Y007528D01*
X038173Y007433D01*
X038250Y007288D02*
X057129Y007288D01*
X057129Y007130D02*
X038366Y007130D01*
X038387Y006971D02*
X057129Y006971D01*
X057129Y006813D02*
X038329Y006813D01*
X038570Y007447D02*
X057129Y007447D01*
X057129Y007605D02*
X038683Y007605D01*
X038702Y007764D02*
X057129Y007764D01*
X057129Y007922D02*
X038639Y007922D01*
X038769Y008326D02*
X038904Y008326D01*
X039028Y008378D01*
X039123Y008473D01*
X039175Y008597D01*
X039175Y008731D01*
X039123Y008856D01*
X039028Y008951D01*
X038904Y009002D01*
X038769Y009002D01*
X038645Y008951D01*
X038550Y008856D01*
X038498Y008731D01*
X038498Y008597D01*
X038550Y008473D01*
X038645Y008378D01*
X038769Y008326D01*
X038625Y008398D02*
X018663Y008398D01*
X018647Y008437D02*
X018552Y008532D01*
X018427Y008584D01*
X018293Y008584D01*
X018168Y008532D01*
X018073Y008437D01*
X018022Y008313D01*
X018022Y008178D01*
X018073Y008054D01*
X018168Y007959D01*
X018293Y007907D01*
X018427Y007907D01*
X018552Y007959D01*
X018647Y008054D01*
X018698Y008178D01*
X018698Y008313D01*
X018647Y008437D01*
X018494Y008556D02*
X038515Y008556D01*
X038498Y008715D02*
X016250Y008715D01*
X016250Y008873D02*
X030527Y008873D01*
X030925Y008873D02*
X038567Y008873D01*
X039106Y008873D02*
X057129Y008873D01*
X057129Y008715D02*
X043414Y008715D01*
X043386Y008742D02*
X043262Y008794D01*
X043128Y008794D01*
X043003Y008742D01*
X042908Y008647D01*
X042857Y008523D01*
X042857Y008388D01*
X042908Y008264D01*
X043003Y008169D01*
X043128Y008117D01*
X043262Y008117D01*
X043386Y008169D01*
X043481Y008264D01*
X043533Y008388D01*
X043533Y008523D01*
X043481Y008647D01*
X043386Y008742D01*
X043519Y008556D02*
X057129Y008556D01*
X057129Y008398D02*
X043533Y008398D01*
X043457Y008239D02*
X057129Y008239D01*
X057129Y008081D02*
X021323Y008081D01*
X021438Y007922D02*
X038089Y007922D01*
X038026Y007764D02*
X021458Y007764D01*
X021799Y007605D02*
X038045Y007605D01*
X039048Y008398D02*
X042857Y008398D01*
X042871Y008556D02*
X039158Y008556D01*
X039175Y008715D02*
X042976Y008715D01*
X042933Y008239D02*
X018698Y008239D01*
X018658Y008081D02*
X020917Y008081D01*
X020802Y007922D02*
X018463Y007922D01*
X018257Y007922D02*
X016250Y007922D01*
X016250Y007764D02*
X020782Y007764D01*
X020842Y007605D02*
X016250Y007605D01*
X016250Y007447D02*
X017535Y007447D01*
X017526Y007438D02*
X017475Y007314D01*
X017475Y007180D01*
X017526Y007055D01*
X017621Y006960D01*
X017746Y006909D01*
X017880Y006909D01*
X018004Y006960D01*
X018100Y007055D01*
X018151Y007180D01*
X018151Y007314D01*
X018100Y007438D01*
X018004Y007533D01*
X017880Y007585D01*
X017746Y007585D01*
X017621Y007533D01*
X017526Y007438D01*
X017475Y007288D02*
X016250Y007288D01*
X016250Y007130D02*
X017496Y007130D01*
X017611Y006971D02*
X016250Y006971D01*
X016250Y006813D02*
X034246Y006813D01*
X034267Y006971D02*
X018015Y006971D01*
X018130Y007130D02*
X021318Y007130D01*
X021203Y007288D02*
X018151Y007288D01*
X018091Y007447D02*
X021182Y007447D01*
X021722Y007130D02*
X034383Y007130D01*
X034305Y006654D02*
X022467Y006654D01*
X022470Y006651D02*
X022375Y006746D01*
X022250Y006798D01*
X022116Y006798D01*
X021991Y006746D01*
X021896Y006651D01*
X021845Y006527D01*
X021845Y006392D01*
X021896Y006268D01*
X021991Y006173D01*
X022116Y006121D01*
X022250Y006121D01*
X022375Y006173D01*
X022470Y006268D01*
X022521Y006392D01*
X022521Y006527D01*
X022470Y006651D01*
X022521Y006496D02*
X032961Y006496D01*
X032959Y006494D02*
X032908Y006369D01*
X032908Y006235D01*
X032959Y006110D01*
X033054Y006015D01*
X033179Y005964D01*
X033313Y005964D01*
X033438Y006015D01*
X033533Y006110D01*
X033584Y006235D01*
X033584Y006369D01*
X033533Y006494D01*
X033438Y006589D01*
X033313Y006640D01*
X033179Y006640D01*
X033054Y006589D01*
X032959Y006494D01*
X032908Y006337D02*
X022498Y006337D01*
X022380Y006179D02*
X027167Y006179D01*
X027149Y006171D02*
X027054Y006076D01*
X027002Y005952D01*
X027002Y005817D01*
X027054Y005693D01*
X027149Y005598D01*
X027273Y005547D01*
X027408Y005547D01*
X027532Y005598D01*
X027627Y005693D01*
X027679Y005817D01*
X027679Y005952D01*
X027627Y006076D01*
X027532Y006171D01*
X027408Y006223D01*
X027273Y006223D01*
X027149Y006171D01*
X027031Y006020D02*
X020951Y006020D01*
X020934Y006060D02*
X020839Y006156D01*
X020715Y006207D01*
X020580Y006207D01*
X020456Y006156D01*
X020361Y006060D01*
X020309Y005936D01*
X020309Y005802D01*
X020361Y005677D01*
X020456Y005582D01*
X020580Y005531D01*
X020715Y005531D01*
X020839Y005582D01*
X020934Y005677D01*
X020986Y005802D01*
X020986Y005936D01*
X020934Y006060D01*
X020783Y006179D02*
X021986Y006179D01*
X021868Y006337D02*
X016250Y006337D01*
X016250Y006179D02*
X020512Y006179D01*
X020344Y006020D02*
X016250Y006020D01*
X016250Y005862D02*
X020309Y005862D01*
X020350Y005703D02*
X017723Y005703D01*
X017568Y005767D02*
X017176Y005767D01*
X016814Y005617D01*
X016537Y005340D01*
X016387Y004978D01*
X016387Y004586D01*
X016537Y004224D01*
X016814Y003947D01*
X017176Y003797D01*
X017568Y003797D01*
X017930Y003947D01*
X018207Y004224D01*
X018357Y004586D01*
X018357Y004978D01*
X018207Y005340D01*
X017930Y005617D01*
X017568Y005767D01*
X018003Y005545D02*
X020547Y005545D01*
X020748Y005545D02*
X029051Y005545D01*
X029084Y005531D02*
X029219Y005531D01*
X029343Y005582D01*
X029438Y005677D01*
X029490Y005802D01*
X029490Y005936D01*
X029438Y006060D01*
X029343Y006156D01*
X029219Y006207D01*
X029084Y006207D01*
X028960Y006156D01*
X028865Y006060D01*
X028813Y005936D01*
X028813Y005802D01*
X028865Y005677D01*
X028960Y005582D01*
X029084Y005531D01*
X029252Y005545D02*
X044741Y005545D01*
X044814Y005617D02*
X044537Y005340D01*
X044387Y004978D01*
X044387Y004586D01*
X044537Y004224D01*
X044814Y003947D01*
X045176Y003797D01*
X045568Y003797D01*
X045930Y003947D01*
X046207Y004224D01*
X046357Y004586D01*
X046357Y004978D01*
X046207Y005340D01*
X045930Y005617D01*
X045568Y005767D01*
X045176Y005767D01*
X044814Y005617D01*
X045021Y005703D02*
X029449Y005703D01*
X029490Y005862D02*
X057129Y005862D01*
X057129Y006020D02*
X033442Y006020D01*
X033561Y006179D02*
X039994Y006179D01*
X039967Y006205D02*
X040062Y006110D01*
X040187Y006058D01*
X040321Y006058D01*
X040445Y006110D01*
X040540Y006205D01*
X040592Y006329D01*
X040592Y006464D01*
X040540Y006588D01*
X040445Y006683D01*
X040321Y006735D01*
X040187Y006735D01*
X040062Y006683D01*
X039967Y006588D01*
X039916Y006464D01*
X039916Y006329D01*
X039967Y006205D01*
X039916Y006337D02*
X033584Y006337D01*
X033531Y006496D02*
X039929Y006496D01*
X040033Y006654D02*
X034864Y006654D01*
X033050Y006020D02*
X029455Y006020D01*
X029287Y006179D02*
X032931Y006179D01*
X035702Y004118D02*
X018101Y004118D01*
X018229Y004277D02*
X044515Y004277D01*
X044450Y004435D02*
X018294Y004435D01*
X018357Y004594D02*
X044387Y004594D01*
X044387Y004752D02*
X018357Y004752D01*
X018357Y004911D02*
X044387Y004911D01*
X044425Y005069D02*
X018319Y005069D01*
X018254Y005228D02*
X044490Y005228D01*
X044583Y005386D02*
X018161Y005386D01*
X017021Y005703D02*
X016250Y005703D01*
X016250Y005545D02*
X016741Y005545D01*
X016583Y005386D02*
X016250Y005386D01*
X016250Y005228D02*
X016490Y005228D01*
X016425Y005069D02*
X016250Y005069D01*
X016250Y004911D02*
X016387Y004911D01*
X016387Y004752D02*
X016250Y004752D01*
X016250Y004594D02*
X016387Y004594D01*
X016450Y004435D02*
X016250Y004435D01*
X016250Y004277D02*
X016515Y004277D01*
X016643Y004118D02*
X016250Y004118D01*
X016250Y003960D02*
X016802Y003960D01*
X017167Y003801D02*
X016250Y003801D01*
X017577Y003801D02*
X035585Y003801D01*
X035598Y003960D02*
X017942Y003960D01*
X016250Y006496D02*
X021845Y006496D01*
X021899Y006654D02*
X016250Y006654D01*
X016250Y008081D02*
X018062Y008081D01*
X018022Y008239D02*
X016250Y008239D01*
X016250Y008398D02*
X018057Y008398D01*
X018226Y008556D02*
X016250Y008556D01*
X016250Y010617D02*
X025376Y010617D01*
X025495Y010775D02*
X016250Y010775D01*
X016250Y010934D02*
X025703Y010934D01*
X025771Y011092D02*
X016250Y011092D01*
X016250Y011251D02*
X027425Y011251D01*
X028240Y011251D02*
X028646Y011251D01*
X028524Y011092D02*
X028339Y011092D01*
X028347Y010934D02*
X028498Y010934D01*
X028549Y010775D02*
X028260Y010775D01*
X027278Y009983D02*
X019608Y009983D01*
X019562Y009824D02*
X027332Y009824D01*
X026255Y013153D02*
X025407Y013153D01*
X025237Y013311D02*
X026153Y013311D01*
X021552Y014262D02*
X021088Y014262D01*
X021229Y014104D02*
X021411Y014104D01*
X021382Y013945D02*
X021258Y013945D01*
X021212Y013787D02*
X021428Y013787D01*
X020628Y013787D02*
X019652Y013787D01*
X019698Y013945D02*
X020582Y013945D01*
X020611Y014104D02*
X019669Y014104D01*
X019528Y014262D02*
X020752Y014262D01*
X027514Y006179D02*
X029016Y006179D01*
X028848Y006020D02*
X027650Y006020D01*
X027679Y005862D02*
X028813Y005862D01*
X028854Y005703D02*
X027631Y005703D01*
X027050Y005703D02*
X020945Y005703D01*
X020986Y005862D02*
X027002Y005862D01*
X036144Y004118D02*
X037119Y004118D01*
X037015Y003960D02*
X036248Y003960D01*
X036261Y003801D02*
X037002Y003801D01*
X037562Y004118D02*
X044643Y004118D01*
X044802Y003960D02*
X037666Y003960D01*
X037679Y003801D02*
X045167Y003801D01*
X045577Y003801D02*
X057129Y003801D01*
X057129Y003960D02*
X045942Y003960D01*
X046101Y004118D02*
X057129Y004118D01*
X057129Y004277D02*
X046229Y004277D01*
X046294Y004435D02*
X057129Y004435D01*
X057129Y004594D02*
X046357Y004594D01*
X046357Y004752D02*
X057129Y004752D01*
X057129Y004911D02*
X046357Y004911D01*
X046319Y005069D02*
X057129Y005069D01*
X057129Y005228D02*
X046254Y005228D01*
X046161Y005386D02*
X057129Y005386D01*
X057129Y005545D02*
X046003Y005545D01*
X045723Y005703D02*
X057129Y005703D01*
X057129Y006179D02*
X040514Y006179D01*
X040592Y006337D02*
X057129Y006337D01*
X057129Y006496D02*
X040579Y006496D01*
X040474Y006654D02*
X057129Y006654D01*
X057129Y009666D02*
X045555Y009666D01*
X045592Y009824D02*
X057129Y009824D01*
X057129Y009983D02*
X045553Y009983D01*
X045366Y010141D02*
X057129Y010141D01*
X057129Y016957D02*
X044131Y016957D01*
X044194Y017115D02*
X057129Y017115D01*
X057129Y017274D02*
X044175Y017274D01*
X044063Y017432D02*
X057129Y017432D01*
X057130Y020761D02*
X040332Y020761D01*
X040451Y020919D02*
X057130Y020919D01*
X057130Y021078D02*
X040474Y021078D01*
X040420Y021236D02*
X057130Y021236D01*
X057130Y024882D02*
X044203Y024882D01*
X044203Y025040D02*
X057130Y025040D01*
X057130Y025199D02*
X044203Y025199D01*
X044203Y025357D02*
X057130Y025357D01*
X057130Y025516D02*
X044203Y025516D01*
X044203Y025674D02*
X057130Y025674D01*
X057130Y025833D02*
X044203Y025833D01*
X044203Y025991D02*
X057130Y025991D01*
X057130Y026150D02*
X044203Y026150D01*
X044203Y026308D02*
X045762Y026308D01*
X045832Y026279D02*
X046224Y026279D01*
X046586Y026429D01*
X046863Y026706D01*
X047013Y027068D01*
X047013Y027460D01*
X046863Y027822D01*
X046586Y028099D01*
X046224Y028249D01*
X045832Y028249D01*
X045470Y028099D01*
X045193Y027822D01*
X045043Y027460D01*
X045043Y027068D01*
X045193Y026706D01*
X045470Y026429D01*
X045832Y026279D01*
X045433Y026467D02*
X044203Y026467D01*
X044203Y026625D02*
X045274Y026625D01*
X045161Y026784D02*
X044203Y026784D01*
X044203Y026942D02*
X045095Y026942D01*
X045043Y027101D02*
X044203Y027101D01*
X044203Y027259D02*
X045043Y027259D01*
X045043Y027418D02*
X044203Y027418D01*
X044203Y027576D02*
X045092Y027576D01*
X045157Y027735D02*
X044203Y027735D01*
X044203Y027893D02*
X045265Y027893D01*
X045423Y028052D02*
X044203Y028052D01*
X044203Y028210D02*
X045739Y028210D01*
X046318Y028210D02*
X057130Y028210D01*
X057130Y028052D02*
X046634Y028052D01*
X046792Y027893D02*
X057130Y027893D01*
X057130Y027735D02*
X046900Y027735D01*
X046965Y027576D02*
X057130Y027576D01*
X057130Y027418D02*
X047013Y027418D01*
X047013Y027259D02*
X057130Y027259D01*
X057130Y027101D02*
X047013Y027101D01*
X046961Y026942D02*
X057130Y026942D01*
X057130Y026784D02*
X046896Y026784D01*
X046783Y026625D02*
X057130Y026625D01*
X057130Y026467D02*
X046624Y026467D01*
X046295Y026308D02*
X057130Y026308D01*
X057130Y028369D02*
X044203Y028369D01*
X046620Y010934D02*
X038502Y010934D01*
X038293Y010775D02*
X046645Y010775D01*
D12*
X046959Y010900D03*
X047510Y010900D03*
X048022Y010900D03*
X047234Y011570D03*
X045254Y009822D03*
X043825Y011763D03*
X043116Y011959D03*
X041041Y011830D03*
X040360Y013180D03*
X037970Y012365D03*
X037970Y011814D03*
X038207Y011105D03*
X037026Y010475D03*
X036081Y010475D03*
X035529Y009294D03*
X035529Y008428D03*
X036159Y008349D03*
X036868Y008900D03*
X037577Y009058D03*
X038837Y008664D03*
X039545Y008664D03*
X040557Y007904D03*
X040636Y007117D03*
X040254Y006396D03*
X038049Y007011D03*
X038364Y007719D03*
X037498Y005751D03*
X037340Y003861D03*
X038128Y003860D03*
X036553Y003861D03*
X035923Y003861D03*
X035174Y003860D03*
X033325Y003940D03*
X030844Y005869D03*
X029151Y005869D03*
X029230Y007089D03*
X027340Y005885D03*
X025333Y003861D03*
X022813Y006459D03*
X022183Y006459D03*
X021520Y007406D03*
X021120Y007806D03*
X020648Y005869D03*
X019427Y005160D03*
X018604Y005566D03*
X017813Y007247D03*
X018360Y008246D03*
X017813Y009215D03*
X019270Y010003D03*
X021868Y011223D03*
X020096Y011853D03*
X019360Y013966D03*
X018600Y014446D03*
X016960Y015606D03*
X016960Y016406D03*
X016960Y017166D03*
X016960Y019906D03*
X016440Y022426D03*
X016440Y024126D03*
X016440Y024646D03*
X027240Y020526D03*
X027751Y020515D03*
X028391Y019943D03*
X028391Y019470D03*
X028371Y018978D03*
X028364Y018486D03*
X028651Y017893D03*
X029596Y017893D03*
X030502Y018877D03*
X031829Y018995D03*
X032340Y018522D03*
X031671Y018207D03*
X031211Y017459D03*
X031211Y016987D03*
X031199Y016515D03*
X029085Y015688D03*
X027655Y016515D03*
X027667Y016987D03*
X027667Y017459D03*
X027200Y019286D03*
X029281Y020097D03*
X029911Y020097D03*
X030974Y020727D03*
X031486Y021908D03*
X032262Y021042D03*
X033049Y021042D03*
X033049Y019902D03*
X032695Y019467D03*
X035411Y021042D03*
X034624Y023798D03*
X031132Y023721D03*
X029281Y022499D03*
X028494Y021475D03*
X027340Y024606D03*
X034529Y017436D03*
X036734Y017200D03*
X037758Y017200D03*
X040628Y017396D03*
X042833Y017160D03*
X043856Y017160D03*
X040136Y021042D03*
X041317Y023798D03*
X052865Y022988D03*
X053207Y023680D03*
X054821Y021751D03*
X055974Y016885D03*
X056368Y015704D03*
X052865Y016057D03*
X052431Y011767D03*
X054793Y009011D03*
X054806Y007015D03*
X055581Y006255D03*
X055581Y005467D03*
X054846Y004695D03*
X054006Y005467D03*
X054006Y006255D03*
X053218Y007042D03*
X053218Y004680D03*
X056368Y004680D03*
X056368Y007042D03*
X043510Y007196D03*
X043195Y008456D03*
X042486Y009164D03*
X042053Y009637D03*
X035529Y012286D03*
X034978Y011971D03*
X033010Y011893D03*
X033010Y012444D03*
X033010Y011341D03*
X033010Y010790D03*
X033010Y010239D03*
X033010Y009688D03*
X033010Y009137D03*
X033010Y008585D03*
X031789Y009664D03*
X031553Y010255D03*
X031238Y010727D03*
X031081Y011593D03*
X032498Y011082D03*
X029742Y012837D03*
X028915Y012641D03*
X029085Y013719D03*
X029557Y013719D03*
X027537Y012144D03*
X027577Y011554D03*
X027065Y011633D03*
X026793Y012108D03*
X025805Y012988D03*
X025105Y013000D03*
X025840Y013806D03*
X026480Y013406D03*
X025840Y014526D03*
X021720Y013966D03*
X020920Y013966D03*
X024703Y011223D03*
X025690Y010492D03*
X026041Y010885D03*
X027616Y010019D03*
X028167Y010255D03*
X028837Y010963D03*
X028010Y011003D03*
X028837Y009507D03*
X030726Y009152D03*
X033325Y007404D03*
X034585Y006853D03*
X033246Y006302D03*
X021199Y003861D03*
M02*
