%
M48
M72
T01C0.0236
T02C0.0400
T03C0.1410
%
T01
X17813Y7247
X18360Y8246
X17813Y9215
X19270Y10003
X21868Y11223
X20096Y11853
X19360Y13966
X18600Y14446
X16960Y15606
X16960Y16406
X16960Y17166
X16960Y19906
X16440Y22426
X16440Y24126
X16440Y24646
X27240Y20526
X27751Y20515
X28391Y19943
X28391Y19470
X28371Y18978
X28364Y18486
X28651Y17893
X29596Y17893
X30502Y18877
X31829Y18995
X32340Y18522
X31671Y18207
X31211Y17459
X31211Y16987
X31199Y16515
X29085Y15688
X27655Y16515
X27667Y16987
X27667Y17459
X27200Y19286
X29281Y20097
X29911Y20097
X30974Y20727
X31486Y21908
X32262Y21042
X33049Y21042
X33049Y19902
X32695Y19467
X35411Y21042
X34624Y23798
X31132Y23721
X29281Y22499
X28494Y21475
X27340Y24606
X34529Y17436
X36734Y17200
X37758Y17200
X40628Y17396
X42833Y17160
X43856Y17160
X40136Y21042
X41317Y23798
X52865Y22988
X53207Y23680
X54821Y21751
X55974Y16885
X56368Y15704
X52865Y16057
X52431Y11767
X54793Y9011
X54806Y7015
X55581Y6255
X55581Y5467
X54846Y4695
X54006Y5467
X54006Y6255
X53218Y7042
X53218Y4680
X56368Y4680
X56368Y7042
X48022Y10900
X47510Y10900
X46959Y10900
X47234Y11570
X45254Y9822
X43825Y11763
X43116Y11959
X41041Y11830
X40360Y13180
X37970Y12365
X37970Y11814
X38207Y11105
X37026Y10475
X36081Y10475
X35529Y9294
X35529Y8428
X36159Y8349
X36868Y8900
X37577Y9058
X38837Y8664
X39545Y8664
X40557Y7904
X40636Y7117
X40254Y6396
X38049Y7011
X38364Y7719
X37498Y5751
X37340Y3861
X38128Y3860
X36553Y3861
X35923Y3861
X35174Y3860
X33325Y3940
X30844Y5869
X29151Y5869
X29230Y7089
X27340Y5885
X25333Y3861
X22813Y6459
X22183Y6459
X21520Y7406
X21120Y7806
X20648Y5869
X19427Y5160
X18604Y5566
X21199Y3861
X28837Y9507
X28167Y10255
X27616Y10019
X28837Y10963
X28010Y11003
X27577Y11554
X27065Y11633
X26793Y12108
X27537Y12144
X28915Y12641
X29742Y12837
X29557Y13719
X29085Y13719
X26480Y13406
X25840Y13806
X25105Y13000
X25805Y12988
X25840Y14526
X21720Y13966
X20920Y13966
X24703Y11223
X25690Y10492
X26041Y10885
X30726Y9152
X31789Y9664
X31553Y10255
X31238Y10727
X31081Y11593
X32498Y11082
X33010Y11341
X33010Y10790
X33010Y10239
X33010Y9688
X33010Y9137
X33010Y8585
X33325Y7404
X34585Y6853
X33246Y6302
X33010Y11893
X33010Y12444
X34978Y11971
X35529Y12286
X42053Y9637
X42486Y9164
X43195Y8456
X43510Y7196
T02
X27684Y21871
T03
X17372Y4782
X45372Y4782
X46028Y27264
M30
