G75*
G70*
%OFA0B0*%
%FSLAX24Y24*%
%IPPOS*%
%LPD*%
%AMOC8*
5,1,8,0,0,1.08239X$1,22.5*
%
%ADD10R,0.0280X0.0530*%
%ADD11R,0.0530X0.0280*%
%ADD12R,0.0910X0.1162*%
%ADD13R,0.1060X0.0560*%
%ADD14R,0.0375X0.0375*%
%ADD15R,0.0729X0.1005*%
%ADD16R,0.0493X0.0454*%
%ADD17R,0.0454X0.0493*%
%ADD18R,0.0190X0.0532*%
%ADD19R,0.0280X0.0560*%
%ADD20R,0.0560X0.0280*%
%ADD21R,0.1162X0.0910*%
%ADD22R,0.0510X0.0160*%
%ADD23R,0.0160X0.0510*%
%ADD24R,0.0690X0.1044*%
%ADD25R,0.1084X0.1084*%
%ADD26R,0.0178X0.0375*%
%ADD27R,0.0375X0.0178*%
%ADD28R,0.0454X0.0454*%
%ADD29R,0.1635X0.0847*%
%ADD30R,0.0761X0.0658*%
%ADD31R,0.1635X0.1399*%
%ADD32R,0.0611X0.0532*%
%ADD33R,0.0966X0.2265*%
%ADD34R,0.0611X0.1399*%
%ADD35R,0.0651X0.0729*%
%ADD36R,0.2619X0.1044*%
%ADD37R,0.0847X0.1635*%
%ADD38R,0.0454X0.1399*%
%ADD39R,0.4273X0.3446*%
%ADD40R,0.2225X0.1576*%
%ADD41R,0.0532X0.0336*%
%ADD42OC8,0.0660*%
%ADD43C,0.1470*%
%ADD44R,0.1180X0.0660*%
%ADD45R,0.0660X0.1180*%
%ADD46C,0.0456*%
D10*
X021238Y005751D03*
X021553Y005751D03*
X021868Y005751D03*
X022183Y005751D03*
X022498Y005751D03*
X022813Y005751D03*
X023128Y005751D03*
X023443Y005751D03*
X023758Y005751D03*
X024073Y005751D03*
X024388Y005751D03*
X024703Y005751D03*
X025018Y005751D03*
X025333Y005751D03*
X025648Y005751D03*
X025963Y005751D03*
X025963Y011893D03*
X025648Y011893D03*
X025333Y011893D03*
X025018Y011893D03*
X024703Y011893D03*
X024388Y011893D03*
X024073Y011893D03*
X023758Y011893D03*
X023443Y011893D03*
X023128Y011893D03*
X022813Y011893D03*
X022498Y011893D03*
X022183Y011893D03*
X021868Y011893D03*
X021553Y011893D03*
X021238Y011893D03*
D11*
X020529Y011184D03*
X020529Y010869D03*
X020529Y010554D03*
X020529Y010239D03*
X020529Y009924D03*
X020529Y009609D03*
X020529Y009294D03*
X020529Y008979D03*
X020529Y008664D03*
X020529Y008349D03*
X020529Y008034D03*
X020529Y007719D03*
X020529Y007404D03*
X020529Y007089D03*
X020529Y006774D03*
X020529Y006459D03*
X026671Y006459D03*
X026671Y006774D03*
X026671Y007089D03*
X026671Y007404D03*
X026671Y007719D03*
X026671Y008034D03*
X026671Y008349D03*
X026671Y008664D03*
X026671Y008979D03*
X026671Y009294D03*
X026671Y009609D03*
X026671Y009924D03*
X026671Y010239D03*
X026671Y010554D03*
X026671Y010869D03*
X026671Y011184D03*
D12*
X017693Y010987D03*
X017693Y012877D03*
D13*
X017040Y009231D03*
X017040Y008231D03*
X017040Y007231D03*
X019290Y007231D03*
X019290Y008231D03*
X019290Y009231D03*
X028271Y013822D03*
X028271Y014822D03*
X028271Y015822D03*
X030521Y015822D03*
X030521Y014822D03*
X030521Y013822D03*
D14*
X030463Y021259D03*
X030463Y021849D03*
X047687Y011570D03*
X048277Y011570D03*
X020065Y006066D03*
X019474Y006066D03*
D15*
X022557Y004294D03*
X024014Y004294D03*
X036140Y013900D03*
X037596Y013900D03*
D16*
X038262Y013609D03*
X038262Y012900D03*
X037435Y012381D03*
X037435Y011672D03*
X036218Y011672D03*
X036218Y012381D03*
X035486Y012900D03*
X035486Y013609D03*
X034482Y016133D03*
X034482Y016841D03*
X038506Y019798D03*
X038506Y020507D03*
X040581Y016802D03*
X040581Y016093D03*
X044604Y019759D03*
X044604Y020467D03*
X032774Y021672D03*
X032104Y021672D03*
X032104Y022381D03*
X032774Y022381D03*
X031132Y022500D03*
X030974Y021948D03*
X030974Y021239D03*
X029557Y021278D03*
X029006Y021278D03*
X029006Y021987D03*
X029557Y021987D03*
X031132Y023209D03*
X016980Y023671D03*
X016440Y023660D03*
X016440Y022951D03*
X016980Y024380D03*
X016940Y021120D03*
X016940Y020411D03*
X028081Y012830D03*
X028081Y012121D03*
X030305Y012133D03*
X030915Y012129D03*
X030915Y012837D03*
X030305Y012841D03*
X037498Y006956D03*
X037498Y006247D03*
X038112Y006475D03*
X038112Y005767D03*
X038120Y005184D03*
X038120Y004475D03*
X036541Y004396D03*
X036541Y005105D03*
X036545Y005688D03*
X036545Y006396D03*
X035203Y006475D03*
X035203Y005767D03*
X035203Y005184D03*
X035203Y004475D03*
X041266Y007113D03*
X042053Y007129D03*
X042053Y007837D03*
X041266Y007822D03*
X041581Y011333D03*
X041581Y012042D03*
X024781Y004570D03*
X024781Y003861D03*
X021789Y003861D03*
X021789Y004570D03*
X019270Y010830D03*
X019270Y011538D03*
X020648Y011853D03*
X020648Y012562D03*
D17*
X021356Y012562D03*
X022065Y012562D03*
X025096Y012476D03*
X025805Y012476D03*
X029085Y012141D03*
X029793Y012141D03*
X033537Y009133D03*
X033537Y008562D03*
X034246Y008562D03*
X034246Y009133D03*
X033939Y007412D03*
X034648Y007412D03*
X036183Y006936D03*
X036892Y006936D03*
X038801Y008117D03*
X039510Y008117D03*
X040277Y008711D03*
X040285Y009341D03*
X040994Y009341D03*
X040986Y008711D03*
X039522Y009204D03*
X039529Y009810D03*
X039529Y010420D03*
X040262Y010719D03*
X040274Y011314D03*
X040982Y011314D03*
X040970Y010719D03*
X040978Y010089D03*
X040270Y010089D03*
X038821Y009810D03*
X038821Y010420D03*
X038813Y009204D03*
X037218Y012971D03*
X036510Y012971D03*
X029793Y016751D03*
X029085Y016751D03*
X043837Y010448D03*
X044545Y010448D03*
X044526Y008416D03*
X043817Y008416D03*
X048415Y012357D03*
X049124Y012357D03*
X030340Y005857D03*
X029632Y005857D03*
X028663Y005877D03*
X027955Y005877D03*
X020687Y005160D03*
X019978Y005160D03*
X018943Y006066D03*
X018234Y006066D03*
D18*
X027933Y006487D03*
X028150Y006487D03*
X028366Y006487D03*
X028583Y006487D03*
X028799Y006487D03*
X029016Y006487D03*
X029232Y006487D03*
X029449Y006487D03*
X029665Y006487D03*
X029882Y006487D03*
X030098Y006487D03*
X030315Y006487D03*
X030531Y006487D03*
X030748Y006487D03*
X030748Y011566D03*
X030531Y011566D03*
X030315Y011566D03*
X030098Y011566D03*
X029882Y011566D03*
X029665Y011566D03*
X029449Y011566D03*
X029232Y011566D03*
X029016Y011566D03*
X028799Y011566D03*
X028583Y011566D03*
X028366Y011566D03*
X028150Y011566D03*
X027933Y011566D03*
D19*
X028337Y017305D03*
X028651Y017305D03*
X028966Y017305D03*
X029281Y017305D03*
X029596Y017305D03*
X029911Y017305D03*
X030226Y017305D03*
X030541Y017305D03*
X030541Y020685D03*
X030226Y020685D03*
X029911Y020685D03*
X029596Y020685D03*
X029281Y020685D03*
X028966Y020685D03*
X028651Y020685D03*
X028337Y020685D03*
D20*
X027749Y020097D03*
X027749Y019782D03*
X027749Y019467D03*
X027749Y019152D03*
X027749Y018837D03*
X027749Y018522D03*
X027749Y018207D03*
X027749Y017893D03*
X031129Y017893D03*
X031129Y018207D03*
X031129Y018522D03*
X031129Y018837D03*
X031129Y019152D03*
X031129Y019467D03*
X031129Y019782D03*
X031129Y020097D03*
D21*
X030187Y023525D03*
X028297Y023525D03*
D22*
X034872Y010542D03*
X034872Y010345D03*
X034872Y010148D03*
X034872Y009952D03*
X034872Y009755D03*
X034872Y009558D03*
X034872Y009361D03*
X034872Y009164D03*
X034872Y008967D03*
X034872Y008770D03*
X034872Y008574D03*
X034872Y008377D03*
X038218Y008377D03*
X038218Y008574D03*
X038218Y008770D03*
X038218Y008967D03*
X038218Y009164D03*
X038218Y009361D03*
X038218Y009558D03*
X038218Y009755D03*
X038218Y009952D03*
X038218Y010148D03*
X038218Y010345D03*
X038218Y010542D03*
D23*
X037628Y011133D03*
X037431Y011133D03*
X037234Y011133D03*
X037037Y011133D03*
X036840Y011133D03*
X036644Y011133D03*
X036447Y011133D03*
X036250Y011133D03*
X036053Y011133D03*
X035856Y011133D03*
X035659Y011133D03*
X035463Y011133D03*
X035463Y007786D03*
X035659Y007786D03*
X035856Y007786D03*
X036053Y007786D03*
X036250Y007786D03*
X036447Y007786D03*
X036644Y007786D03*
X036840Y007786D03*
X037037Y007786D03*
X037234Y007786D03*
X037431Y007786D03*
X037628Y007786D03*
D24*
X033907Y005912D03*
X033907Y004534D03*
X034230Y012361D03*
X034230Y013739D03*
D25*
X042262Y009404D03*
D26*
X042360Y008637D03*
X042163Y008637D03*
X041966Y008637D03*
X041770Y008637D03*
X042557Y008637D03*
X042754Y008637D03*
X042754Y010172D03*
X042557Y010172D03*
X042360Y010172D03*
X042163Y010172D03*
X041966Y010172D03*
X041770Y010172D03*
D27*
X041494Y009896D03*
X041494Y009700D03*
X041494Y009503D03*
X041494Y009306D03*
X041494Y009109D03*
X041494Y008912D03*
X043029Y008912D03*
X043029Y009109D03*
X043029Y009306D03*
X043029Y009503D03*
X043029Y009700D03*
X043029Y009896D03*
D28*
X043746Y009798D03*
X044612Y009798D03*
X044620Y009050D03*
X043754Y009050D03*
X043512Y007837D03*
X042646Y007837D03*
X042372Y011072D03*
X042969Y011105D03*
X043835Y011105D03*
X044545Y011115D03*
X044545Y011981D03*
X044573Y012589D03*
X043707Y012589D03*
X042372Y011938D03*
D29*
X043667Y013959D03*
X040872Y013959D03*
X049163Y010893D03*
X051959Y010893D03*
D30*
X043884Y016148D03*
X042884Y016148D03*
X041884Y016148D03*
X037746Y016188D03*
X036746Y016188D03*
X035746Y016188D03*
X035746Y019731D03*
X036746Y019731D03*
X037746Y019731D03*
X041884Y019692D03*
X042884Y019692D03*
X043884Y019692D03*
D31*
X044014Y022160D03*
X040077Y022160D03*
X037955Y022160D03*
X034018Y022160D03*
D32*
X039214Y020861D03*
X039214Y019522D03*
X045313Y019444D03*
X045313Y020782D03*
D33*
X044368Y025310D03*
X041061Y025310D03*
X037640Y025310D03*
X034333Y025310D03*
X053344Y025286D03*
X056651Y025286D03*
X043128Y004822D03*
X039821Y004822D03*
D34*
X040982Y006062D03*
X041966Y006062D03*
X042222Y024070D03*
X043207Y024070D03*
X036478Y024070D03*
X035494Y024070D03*
X054506Y024046D03*
X055490Y024046D03*
D35*
X055947Y021318D03*
X053939Y021318D03*
X053939Y017774D03*
X055947Y017774D03*
D36*
X051294Y016058D03*
X046373Y016058D03*
X046373Y022983D03*
X051294Y022983D03*
D37*
X055459Y015113D03*
X055459Y012318D03*
D38*
X055470Y010062D03*
X054801Y010062D03*
X054132Y010062D03*
X053463Y010062D03*
X056140Y010062D03*
D39*
X054801Y005889D03*
D40*
X049474Y004347D03*
X049474Y008265D03*
D41*
X053947Y011176D03*
X055403Y011176D03*
D42*
X027684Y021871D03*
D43*
X017372Y004782D03*
X045372Y004782D03*
X046028Y027264D03*
D44*
X026330Y027436D03*
X026330Y026646D03*
X026330Y025856D03*
X026330Y025066D03*
X026330Y024276D03*
X026330Y023486D03*
X026330Y022696D03*
X026330Y021906D03*
X026330Y021116D03*
X026330Y020326D03*
X026330Y019536D03*
X026330Y018746D03*
X026330Y017956D03*
X026330Y017166D03*
X026330Y016376D03*
X026330Y015586D03*
X017870Y015586D03*
X017870Y016376D03*
X017870Y017166D03*
X017870Y017956D03*
X017870Y018746D03*
X017870Y019536D03*
X017870Y020326D03*
X017870Y021116D03*
X017870Y021906D03*
X017870Y022696D03*
X017870Y023486D03*
X017870Y024276D03*
X017870Y025066D03*
D45*
X019335Y014896D03*
X020125Y014896D03*
X020915Y014896D03*
X021705Y014896D03*
X022495Y014896D03*
X023285Y014896D03*
X024075Y014896D03*
X024865Y014896D03*
D46*
X025840Y014526D03*
X025840Y013806D03*
X026480Y013406D03*
X025805Y012988D03*
X025105Y013000D03*
X026793Y012108D03*
X027065Y011633D03*
X027577Y011554D03*
X027537Y012144D03*
X028010Y011003D03*
X028837Y010963D03*
X028167Y010255D03*
X027616Y010019D03*
X028837Y009507D03*
X030726Y009152D03*
X031789Y009664D03*
X031553Y010255D03*
X031238Y010727D03*
X031081Y011593D03*
X032498Y011082D03*
X033010Y011341D03*
X033010Y010790D03*
X033010Y010239D03*
X033010Y009688D03*
X033010Y009137D03*
X033010Y008585D03*
X033325Y007404D03*
X034585Y006853D03*
X033246Y006302D03*
X030844Y005869D03*
X029151Y005869D03*
X029230Y007089D03*
X027340Y005885D03*
X025333Y003861D03*
X022813Y006459D03*
X022183Y006459D03*
X021520Y007406D03*
X021120Y007806D03*
X020648Y005869D03*
X019427Y005160D03*
X018604Y005566D03*
X017813Y007247D03*
X018360Y008246D03*
X017813Y009215D03*
X019270Y010003D03*
X021868Y011223D03*
X020096Y011853D03*
X019360Y013966D03*
X018600Y014446D03*
X016960Y015606D03*
X016960Y016406D03*
X016960Y017166D03*
X016960Y019906D03*
X016440Y022426D03*
X016440Y024126D03*
X016440Y024646D03*
X027240Y020526D03*
X027751Y020515D03*
X028391Y019943D03*
X028391Y019470D03*
X028371Y018978D03*
X028364Y018486D03*
X028651Y017893D03*
X029596Y017893D03*
X030502Y018877D03*
X031829Y018995D03*
X032340Y018522D03*
X031671Y018207D03*
X031211Y017459D03*
X031211Y016987D03*
X031199Y016515D03*
X029085Y015688D03*
X027655Y016515D03*
X027667Y016987D03*
X027667Y017459D03*
X027200Y019286D03*
X029281Y020097D03*
X029911Y020097D03*
X030974Y020727D03*
X031486Y021908D03*
X032262Y021042D03*
X033049Y021042D03*
X033049Y019902D03*
X032695Y019467D03*
X035411Y021042D03*
X034624Y023798D03*
X031132Y023721D03*
X029281Y022499D03*
X028494Y021475D03*
X027340Y024606D03*
X034529Y017436D03*
X036734Y017200D03*
X037758Y017200D03*
X040628Y017396D03*
X042833Y017160D03*
X043856Y017160D03*
X040136Y021042D03*
X041317Y023798D03*
X052865Y022988D03*
X053207Y023680D03*
X054821Y021751D03*
X055974Y016885D03*
X056368Y015704D03*
X052865Y016057D03*
X052431Y011767D03*
X054793Y009011D03*
X054806Y007015D03*
X055581Y006255D03*
X055581Y005467D03*
X054846Y004695D03*
X054006Y005467D03*
X054006Y006255D03*
X053218Y007042D03*
X053218Y004680D03*
X056368Y004680D03*
X056368Y007042D03*
X048022Y010900D03*
X047510Y010900D03*
X046959Y010900D03*
X047234Y011570D03*
X045254Y009822D03*
X043825Y011763D03*
X043116Y011959D03*
X041041Y011830D03*
X040360Y013180D03*
X037970Y012365D03*
X037970Y011814D03*
X038207Y011105D03*
X037026Y010475D03*
X036081Y010475D03*
X035529Y009294D03*
X035529Y008428D03*
X036159Y008349D03*
X036868Y008900D03*
X037577Y009058D03*
X038837Y008664D03*
X039545Y008664D03*
X040557Y007904D03*
X040636Y007117D03*
X040254Y006396D03*
X038049Y007011D03*
X038364Y007719D03*
X037498Y005751D03*
X037340Y003861D03*
X038128Y003860D03*
X036553Y003861D03*
X035923Y003861D03*
X035174Y003860D03*
X033325Y003940D03*
X042053Y009637D03*
X042486Y009164D03*
X043195Y008456D03*
X043510Y007196D03*
X035529Y012286D03*
X034978Y011971D03*
X033010Y011893D03*
X033010Y012444D03*
X029742Y012837D03*
X028915Y012641D03*
X029085Y013719D03*
X029557Y013719D03*
X026041Y010885D03*
X025690Y010492D03*
X024703Y011223D03*
X021720Y013966D03*
X020920Y013966D03*
X021199Y003861D03*
M02*
